STARTFONT 2.1
COMMENT $Xorg: $
COMMENT ISO10646-1 extension by Markus Kuhn <mkuhn@acm.org>, 2001-03-20
COMMENT  (c) Copyright Bigelow & Holmes 1986, 1985. Lucida is a registered
COMMENT  trademark of Bigelow & Holmes. See LEGAL NOTICE file for terms 
COMMENT  of the license. 
FONT -B&H-Lucida-Bold-R-Normal-Sans-24-240-75-75-P-152-ISO10646-1
SIZE 24 72 72
FONTBOUNDINGBOX 49 36 -18 -10
STARTPROPERTIES 22
COMMENT Begin LogicalFontDescription
FONTNAME_REGISTRY ""
FOUNDRY "B&H"
FAMILY_NAME "Lucida"
WEIGHT_NAME "Bold"
SLANT "R"
SETWIDTH_NAME "Normal"
ADD_STYLE_NAME "Sans"
PIXEL_SIZE 24
POINT_SIZE 240
RESOLUTION_X 75
RESOLUTION_Y 75
SPACING "P"
AVERAGE_WIDTH 152
CHARSET_REGISTRY "ISO10646"
CHARSET_ENCODING "1"
COMMENT END LogicalFontDescription
FONT_ASCENT 22
FONT_DESCENT 5
DEFAULT_CHAR 0
COPYRIGHT "Copyright Bigelow & Holmes 1986, 1985."
FACE_NAME "Lucida Sans Bold"
X_HEIGHT 13
CAP_HEIGHT 17
ENDPROPERTIES
CHARS 756
STARTCHAR char0
ENCODING 0
SWIDTH 813 0
DWIDTH 20 0
BBX 15 17 2 0
BITMAP
AAAA
0000
8002
0000
8002
0000
8002
0000
8002
0000
8002
0000
8002
0000
8002
0000
AAAA
ENDCHAR
STARTCHAR space
ENCODING 32
SWIDTH 343 0
DWIDTH 8 0
BBX 1 1 0 0
BITMAP
00
ENDCHAR
STARTCHAR exclam
ENCODING 33
SWIDTH 265 0
DWIDTH 8 0
BBX 5 17 2 0
BITMAP
F8
F8
F8
F8
F8
F8
F8
F8
70
70
70
70
00
00
F8
F8
F8
ENDCHAR
STARTCHAR quotedbl
ENCODING 34
SWIDTH 530 0
DWIDTH 13 0
BBX 11 8 1 10
BITMAP
FBE0
FBE0
F3E0
F3E0
71C0
71C0
71C0
71C0
ENDCHAR
STARTCHAR numbersign
ENCODING 35
SWIDTH 687 0
DWIDTH 16 0
BBX 15 17 1 0
BITMAP
0318
0318
0638
0630
7FFE
7FFE
0C60
0C60
0C60
1C60
FFFC
FFF8
18C0
18C0
31C0
3180
3180
ENDCHAR
STARTCHAR dollar
ENCODING 36
SWIDTH 687 0
DWIDTH 16 0
BBX 13 23 2 -3
BITMAP
0700
0700
0700
1FF0
3FF0
7FF0
7B00
7B00
7F00
7F00
3F80
0FC0
07E0
07F0
06F8
0678
8678
FFF0
FFF0
7FC0
0700
0700
0700
ENDCHAR
STARTCHAR percent
ENCODING 37
SWIDTH 898 0
DWIDTH 22 0
BBX 21 17 0 0
BITMAP
3E01E0
7F03C0
FF8380
E38700
E38F00
FF9E00
7F3C00
3E7800
0073E0
00F7F0
01EFF8
03CE38
078E38
070E38
0F0FF8
1E07F0
3C03E0
ENDCHAR
STARTCHAR ampersand
ENCODING 38
SWIDTH 792 0
DWIDTH 19 0
BBX 18 17 0 0
BITMAP
07F000
0FF800
1FFC00
1F3C00
1F3C00
0FF800
0FF000
1FE3C0
3FF3C0
7BF3C0
F9FB80
F8FF80
F8FF00
FC7E00
7FFE00
3FFF00
0FCF80
ENDCHAR
STARTCHAR quotesingle
ENCODING 39
SWIDTH 265 0
DWIDTH 6 0
BBX 5 8 1 10
BITMAP
F8
F8
F8
F8
70
70
70
70
ENDCHAR
STARTCHAR parenleft
ENCODING 40
SWIDTH 386 0
DWIDTH 9 0
BBX 7 23 1 -5
BITMAP
02
06
0E
1E
3C
7C
7C
78
F8
F8
F8
F8
F8
F8
F8
78
7C
7C
3C
1E
0E
06
02
ENDCHAR
STARTCHAR parenright
ENCODING 41
SWIDTH 386 0
DWIDTH 9 0
BBX 7 23 1 -5
BITMAP
80
C0
E0
F0
78
7C
7C
3C
3E
3E
3E
3E
3E
3E
3E
3C
7C
7C
78
F0
E0
C0
80
ENDCHAR
STARTCHAR asterisk
ENCODING 42
SWIDTH 464 0
DWIDTH 11 0
BBX 9 9 1 8
BITMAP
1C00
5D00
4900
F780
E380
1400
7700
7700
2400
ENDCHAR
STARTCHAR plus
ENCODING 43
SWIDTH 687 0
DWIDTH 16 0
BBX 15 14 1 0
BITMAP
0380
0380
0380
0380
0380
FFFE
FFFE
FFFE
0380
0380
0380
0380
0380
0380
ENDCHAR
STARTCHAR comma
ENCODING 44
SWIDTH 343 0
DWIDTH 8 0
BBX 5 9 2 -4
BITMAP
F8
F8
F8
F8
F8
38
70
F0
C0
ENDCHAR
STARTCHAR hyphen
ENCODING 45
SWIDTH 289 0
DWIDTH 7 0
BBX 5 3 1 6
BITMAP
F8
F8
F8
ENDCHAR
STARTCHAR period
ENCODING 46
SWIDTH 343 0
DWIDTH 8 0
BBX 5 5 2 0
BITMAP
F8
F8
F8
F8
F8
ENDCHAR
STARTCHAR slash
ENCODING 47
SWIDTH 596 0
DWIDTH 14 0
BBX 14 22 0 -4
BITMAP
003C
0038
0078
0070
00F0
00E0
01E0
01C0
01C0
0380
0380
0700
0700
0E00
0E00
1C00
1C00
3800
3800
7800
7000
F000
ENDCHAR
STARTCHAR zero
ENCODING 48
SWIDTH 687 0
DWIDTH 16 0
BBX 15 17 1 0
BITMAP
07C0
1FF0
3FF8
7C7C
783C
F83E
F83E
F83E
F83E
F83E
F83E
F83E
783C
7C7C
3FF8
1FF0
07C0
ENDCHAR
STARTCHAR one
ENCODING 49
SWIDTH 687 0
DWIDTH 16 0
BBX 7 17 4 0
BITMAP
FE
FE
FE
3E
3E
3E
3E
3E
3E
3E
3E
3E
3E
3E
3E
3E
3E
ENDCHAR
STARTCHAR two
ENCODING 50
SWIDTH 687 0
DWIDTH 16 0
BBX 13 17 1 0
BITMAP
3FC0
FFE0
FFF0
C1F8
00F8
00F8
00F8
01F0
03E0
07C0
0F80
1F00
7C00
F800
FFF8
FFF8
FFF8
ENDCHAR
STARTCHAR three
ENCODING 51
SWIDTH 687 0
DWIDTH 16 0
BBX 13 17 2 0
BITMAP
3F80
FFE0
FFF0
83F0
01F0
01F0
03E0
3FC0
3FC0
3FE0
01F0
00F8
00F8
C1F8
FFF0
FFF0
7F80
ENDCHAR
STARTCHAR four
ENCODING 52
SWIDTH 687 0
DWIDTH 16 0
BBX 15 17 1 0
BITMAP
00F8
01F8
03F8
07F8
0FF8
1EF8
3CF8
7CF8
78F8
F0F8
FFFE
FFFE
FFFE
00F8
00F8
00F8
00F8
ENDCHAR
STARTCHAR five
ENCODING 53
SWIDTH 687 0
DWIDTH 16 0
BBX 12 17 3 0
BITMAP
FFF0
FFF0
FFF0
E000
E000
E000
FE00
FFC0
FFE0
07E0
01F0
01F0
01F0
83F0
FFE0
FFC0
7F00
ENDCHAR
STARTCHAR six
ENCODING 54
SWIDTH 687 0
DWIDTH 16 0
BBX 14 17 1 0
BITMAP
07F0
1FF8
3FF8
7E08
7C00
F800
FBE0
FFF8
FFF8
FCFC
F87C
F87C
787C
7CFC
3FF8
1FF0
0FC0
ENDCHAR
STARTCHAR seven
ENCODING 55
SWIDTH 687 0
DWIDTH 16 0
BBX 13 17 3 0
BITMAP
FFF8
FFF8
FFF8
0078
00F0
01E0
03E0
07C0
0780
0F00
1F00
1E00
3E00
3C00
7C00
7C00
7C00
ENDCHAR
STARTCHAR eight
ENCODING 56
SWIDTH 687 0
DWIDTH 16 0
BBX 14 17 1 0
BITMAP
0FC0
3FF0
7FF8
78F8
7878
7C78
3FF0
1FE0
1FF0
3DF8
787C
F83C
F83C
FC7C
FFF8
7FF0
1FC0
ENDCHAR
STARTCHAR nine
ENCODING 57
SWIDTH 687 0
DWIDTH 16 0
BBX 14 17 1 0
BITMAP
0FC0
3FE0
7FF0
FCF8
F878
F87C
F87C
FCFC
7FFC
7FFC
1E7C
007C
00F8
41F8
7FF0
7FE0
3F80
ENDCHAR
STARTCHAR colon
ENCODING 58
SWIDTH 343 0
DWIDTH 8 0
BBX 5 13 2 0
BITMAP
F8
F8
F8
F8
F8
00
00
00
F8
F8
F8
F8
F8
ENDCHAR
STARTCHAR semicolon
ENCODING 59
SWIDTH 343 0
DWIDTH 8 0
BBX 5 17 2 -4
BITMAP
F8
F8
F8
F8
F8
00
00
00
F8
F8
F8
F8
F8
38
70
F0
C0
ENDCHAR
STARTCHAR less
ENCODING 60
SWIDTH 687 0
DWIDTH 16 0
BBX 14 14 1 0
BITMAP
0004
001C
007C
01F8
07E0
1F80
FE00
7E00
1F80
07E0
01F8
007C
001C
0004
ENDCHAR
STARTCHAR equal
ENCODING 61
SWIDTH 687 0
DWIDTH 16 0
BBX 14 9 1 2
BITMAP
FFFC
FFFC
FFFC
0000
0000
0000
FFFC
FFFC
FFFC
ENDCHAR
STARTCHAR greater
ENCODING 62
SWIDTH 687 0
DWIDTH 16 0
BBX 14 14 1 0
BITMAP
8000
E000
F800
7E00
1F80
07E0
01F8
01FC
07E0
1F80
7E00
F800
E000
8000
ENDCHAR
STARTCHAR question
ENCODING 63
SWIDTH 572 0
DWIDTH 14 0
BBX 12 17 1 0
BITMAP
7F80
FFE0
FFF0
83F0
01F0
01F0
01E0
03C0
0780
0F00
1F00
1F00
0000
0000
1F00
1F00
1F00
ENDCHAR
STARTCHAR at
ENCODING 64
SWIDTH 833 0
DWIDTH 20 0
BBX 19 17 2 0
BITMAP
00FC00
03FF00
0F03C0
1C01C0
38FCE0
71FC60
638C60
E70860
CE3860
CE78C0
CFD9C0
CF9F80
E71E00
600000
382000
1FF000
07C000
ENDCHAR
STARTCHAR A
ENCODING 65
SWIDTH 773 0
DWIDTH 19 0
BBX 18 17 0 0
BITMAP
03F000
03F000
03F800
07F800
07F800
07FC00
0E7C00
0E7E00
1E3E00
1C3E00
1FFF00
3FFF00
3FFF80
780F80
700F80
7007C0
E007C0
ENDCHAR
STARTCHAR B
ENCODING 66
SWIDTH 669 0
DWIDTH 16 0
BBX 14 17 2 0
BITMAP
FFE0
FFF0
FFF8
F8F8
F8F8
F8F8
F9F0
FFC0
FFC0
FFF0
F8F8
F87C
F87C
F87C
FFFC
FFF8
FFE0
ENDCHAR
STARTCHAR C
ENCODING 67
SWIDTH 726 0
DWIDTH 17 0
BBX 16 17 1 0
BITMAP
03FE
0FFF
3FFF
7F03
7C00
FC00
F800
F800
F800
F800
F800
FC00
7E00
7F01
3FFF
0FFF
03FC
ENDCHAR
STARTCHAR D
ENCODING 68
SWIDTH 819 0
DWIDTH 20 0
BBX 17 17 2 0
BITMAP
FFF000
FFFC00
FFFE00
F87F00
F81F00
F81F80
F80F80
F80F80
F80F80
F80F80
F80F80
F80F80
F81F00
F83F00
FFFE00
FFFC00
FFF000
ENDCHAR
STARTCHAR E
ENCODING 69
SWIDTH 645 0
DWIDTH 15 0
BBX 13 17 2 0
BITMAP
FFF0
FFF0
FFF0
F800
F800
F800
F800
FFE0
FFE0
FFE0
F800
F800
F800
F800
FFF8
FFF8
FFF8
ENDCHAR
STARTCHAR F
ENCODING 70
SWIDTH 602 0
DWIDTH 14 0
BBX 12 17 2 0
BITMAP
FFF0
FFF0
FFF0
F800
F800
F800
F800
FFE0
FFE0
FFE0
F800
F800
F800
F800
F800
F800
F800
ENDCHAR
STARTCHAR G
ENCODING 71
SWIDTH 759 0
DWIDTH 18 0
BBX 16 17 1 0
BITMAP
03FF
0FFF
3FFF
3F03
7C00
FC00
F800
F800
F81F
F81F
F81F
FC1F
7C1F
7F1F
3FFF
0FFF
03FE
ENDCHAR
STARTCHAR H
ENCODING 72
SWIDTH 813 0
DWIDTH 20 0
BBX 15 17 2 0
BITMAP
F83E
F83E
F83E
F83E
F83E
F83E
F83E
FFFE
FFFE
FFFE
F83E
F83E
F83E
F83E
F83E
F83E
F83E
ENDCHAR
STARTCHAR I
ENCODING 73
SWIDTH 361 0
DWIDTH 9 0
BBX 5 17 2 0
BITMAP
F8
F8
F8
F8
F8
F8
F8
F8
F8
F8
F8
F8
F8
F8
F8
F8
F8
ENDCHAR
STARTCHAR J
ENCODING 74
SWIDTH 501 0
DWIDTH 12 0
BBX 10 21 0 -4
BITMAP
07C0
07C0
07C0
07C0
07C0
07C0
07C0
07C0
07C0
07C0
07C0
07C0
07C0
07C0
07C0
07C0
07C0
87C0
FF80
FF80
7E00
ENDCHAR
STARTCHAR K
ENCODING 75
SWIDTH 753 0
DWIDTH 18 0
BBX 16 17 2 0
BITMAP
F81E
F83C
F878
F8F0
F8E0
F9E0
FBC0
FFC0
FFC0
FFE0
FBF0
FBF0
F9F8
F8FC
F8FE
F87E
F83F
ENDCHAR
STARTCHAR L
ENCODING 76
SWIDTH 620 0
DWIDTH 15 0
BBX 13 17 2 0
BITMAP
F800
F800
F800
F800
F800
F800
F800
F800
F800
F800
F800
F800
F800
F800
FFF8
FFF8
FFF8
ENDCHAR
STARTCHAR M
ENCODING 77
SWIDTH 940 0
DWIDTH 23 0
BBX 18 17 2 0
BITMAP
FC0FC0
FC0FC0
FC1FC0
FE1FC0
FE1FC0
FE3FC0
EF3FC0
EF3FC0
EF7FC0
E7F7C0
E7F7C0
E7F7C0
E7E7C0
E3E7C0
E3E7C0
E3C7C0
E007C0
ENDCHAR
STARTCHAR N
ENCODING 78
SWIDTH 783 0
DWIDTH 19 0
BBX 15 17 2 0
BITMAP
F00E
F80E
FC0E
FE0E
FF0E
FF0E
FF8E
EFCE
EFEE
E7EE
E3FE
E1FE
E1FE
E0FE
E07E
E03E
E01E
ENDCHAR
STARTCHAR O
ENCODING 79
SWIDTH 855 0
DWIDTH 21 0
BBX 19 17 1 0
BITMAP
03F800
0FFE00
3FFF80
7E0FC0
7C07C0
FC07E0
F803E0
F803E0
F803E0
F803E0
F803E0
FC07E0
7C07C0
7E0FC0
3FFF80
0FFE00
03F800
ENDCHAR
STARTCHAR P
ENCODING 80
SWIDTH 657 0
DWIDTH 16 0
BBX 14 17 2 0
BITMAP
FFF0
FFF8
FFFC
F8FC
F87C
F87C
F87C
F8F8
FFF8
FFF0
FFC0
F800
F800
F800
F800
F800
F800
ENDCHAR
STARTCHAR Q
ENCODING 81
SWIDTH 855 0
DWIDTH 21 0
BBX 22 21 1 -4
BITMAP
03F800
0FFE00
3FFF80
7E0FC0
7C07C0
FC07E0
F803E0
F803E0
F803E0
F803E0
F803E0
FC07E0
7C07C0
7E0F80
3FFF80
0FFE00
03FE00
001FFC
0007F8
0003F0
000060
ENDCHAR
STARTCHAR R
ENCODING 82
SWIDTH 734 0
DWIDTH 18 0
BBX 16 17 2 0
BITMAP
FFC0
FFF0
FFF8
F8F8
F8F8
F8F8
F9F8
FFF0
FFE0
FFE0
FBF0
F9F0
F9F8
F8F8
F8FC
F87E
F87F
ENDCHAR
STARTCHAR S
ENCODING 83
SWIDTH 594 0
DWIDTH 14 0
BBX 13 17 1 0
BITMAP
1FF0
7FF0
7FF0
F830
F800
FE00
FF00
7FC0
3FF0
1FF0
07F8
01F8
00F8
C1F8
FFF0
FFE0
FF80
ENDCHAR
STARTCHAR T
ENCODING 84
SWIDTH 735 0
DWIDTH 18 0
BBX 17 17 0 0
BITMAP
FFFF80
FFFF80
FFFF80
03E000
03E000
03E000
03E000
03E000
03E000
03E000
03E000
03E000
03E000
03E000
03E000
03E000
03E000
ENDCHAR
STARTCHAR U
ENCODING 85
SWIDTH 783 0
DWIDTH 19 0
BBX 15 17 2 0
BITMAP
F83E
F83E
F83E
F83E
F83E
F83E
F83E
F83E
F83E
F83E
F83E
F83E
F83E
7C7C
7FFC
3FF8
0FE0
ENDCHAR
STARTCHAR V
ENCODING 86
SWIDTH 735 0
DWIDTH 18 0
BBX 17 17 0 0
BITMAP
F80380
FC0780
7C0700
7C0700
7E0E00
3E0E00
3F0E00
1F1C00
1F1C00
1FBC00
0FB800
0FB800
0FF800
07F000
07F000
03E000
03E000
ENDCHAR
STARTCHAR W
ENCODING 87
SWIDTH 940 0
DWIDTH 23 0
BBX 22 17 0 0
BITMAP
F83C1C
F87C1C
F87C38
FC7C38
7C7E38
7CFE38
7CFE70
7EFE70
3EFE70
3FEF70
3FCFE0
3FCFE0
1FCFE0
1FCFE0
1F87C0
1F87C0
0F87C0
ENDCHAR
STARTCHAR X
ENCODING 88
SWIDTH 699 0
DWIDTH 17 0
BBX 16 17 1 0
BITMAP
FC0F
7E1E
3E3C
3F38
1FF8
1FF0
0FE0
07E0
07E0
07F0
0FF0
0FF8
1EF8
3CFC
387E
787E
F03F
ENDCHAR
STARTCHAR Y
ENCODING 89
SWIDTH 738 0
DWIDTH 18 0
BBX 17 17 0 0
BITMAP
FC0780
7C0700
7E0E00
3F1E00
3F1C00
1FBC00
0FF800
0FF000
07F000
07E000
03E000
03E000
03E000
03E000
03E000
03E000
03E000
ENDCHAR
STARTCHAR Z
ENCODING 90
SWIDTH 675 0
DWIDTH 16 0
BBX 13 17 1 0
BITMAP
FFF8
FFF8
FFF8
01F8
03F0
03F0
07E0
0FC0
1FC0
1F80
3F00
7E00
7E00
FC00
FFF8
FFF8
FFF8
ENDCHAR
STARTCHAR bracketleft
ENCODING 91
SWIDTH 386 0
DWIDTH 9 0
BBX 6 22 2 -4
BITMAP
FC
FC
FC
F0
F0
F0
F0
F0
F0
F0
F0
F0
F0
F0
F0
F0
F0
F0
F0
FC
FC
FC
ENDCHAR
STARTCHAR backslash
ENCODING 92
SWIDTH 596 0
DWIDTH 14 0
BBX 14 22 0 -4
BITMAP
F000
7000
7800
3800
3800
1C00
1C00
0E00
0E00
0700
0700
0380
0380
01C0
01C0
01E0
00E0
00F0
0070
0078
0038
003C
ENDCHAR
STARTCHAR bracketright
ENCODING 93
SWIDTH 386 0
DWIDTH 9 0
BBX 6 22 1 -4
BITMAP
FC
FC
FC
3C
3C
3C
3C
3C
3C
3C
3C
3C
3C
3C
3C
3C
3C
3C
3C
FC
FC
FC
ENDCHAR
STARTCHAR asciicircum
ENCODING 94
SWIDTH 687 0
DWIDTH 16 0
BBX 14 14 1 3
BITMAP
0100
0300
0300
0780
0780
0FC0
0FC0
1CE0
1CE0
3870
3870
7038
7038
E01C
ENDCHAR
STARTCHAR underscore
ENCODING 95
SWIDTH 500 0
DWIDTH 12 0
BBX 11 3 1 -3
BITMAP
FFE0
FFE0
FFE0
ENDCHAR
STARTCHAR grave
ENCODING 96
SWIDTH 675 0
DWIDTH 16 0
BBX 6 3 4 15
BITMAP
F0
38
1C
ENDCHAR
STARTCHAR a
ENCODING 97
SWIDTH 623 0
DWIDTH 15 0
BBX 13 13 1 0
BITMAP
3F80
7FE0
7FF0
41F0
01F0
3FF0
7FF0
FFF0
F9F0
F9F0
FFF8
7FF8
3CF8
ENDCHAR
STARTCHAR b
ENCODING 98
SWIDTH 696 0
DWIDTH 17 0
BBX 14 18 2 0
BITMAP
F800
F800
F800
F800
F800
F9E0
FBF8
FFF8
FCFC
F87C
F87C
F87C
F87C
F87C
FCF8
FFF8
FFF0
F3E0
ENDCHAR
STARTCHAR c
ENCODING 99
SWIDTH 545 0
DWIDTH 13 0
BBX 12 13 1 0
BITMAP
0FE0
3FF0
7FF0
7E10
FC00
F800
F800
F800
FC00
7E10
7FF0
3FF0
0FF0
ENDCHAR
STARTCHAR d
ENCODING 100
SWIDTH 696 0
DWIDTH 17 0
BBX 14 18 1 0
BITMAP
007C
007C
007C
007C
007C
1E7C
3FFC
7FFC
FCFC
F87C
F87C
F87C
F87C
F87C
FCFC
7FFC
7F7C
1E7C
ENDCHAR
STARTCHAR e
ENCODING 101
SWIDTH 614 0
DWIDTH 15 0
BBX 13 13 1 0
BITMAP
0FC0
3FE0
7FF0
78F0
F8F8
FFF8
FFF8
FFF8
F800
7C08
7FF8
3FF8
0FF0
ENDCHAR
STARTCHAR f
ENCODING 102
SWIDTH 461 0
DWIDTH 11 0
BBX 11 18 0 0
BITMAP
0FE0
1FE0
3FE0
3E00
3E00
FFC0
FFC0
FFC0
3E00
3E00
3E00
3E00
3E00
3E00
3E00
3E00
3E00
3E00
ENDCHAR
STARTCHAR g
ENCODING 103
SWIDTH 696 0
DWIDTH 17 0
BBX 14 18 1 -5
BITMAP
1F3C
3FFC
7FFC
7CFC
F87C
F87C
F87C
F87C
F87C
FCFC
7FFC
7F7C
1E7C
007C
20FC
7FF8
7FF0
1FC0
ENDCHAR
STARTCHAR h
ENCODING 104
SWIDTH 693 0
DWIDTH 17 0
BBX 13 18 2 0
BITMAP
F800
F800
F800
F800
F800
F9E0
FBF0
FFF8
FFF8
FCF8
F8F8
F8F8
F8F8
F8F8
F8F8
F8F8
F8F8
F8F8
ENDCHAR
STARTCHAR i
ENCODING 105
SWIDTH 361 0
DWIDTH 9 0
BBX 5 18 2 0
BITMAP
F8
F8
F8
00
00
F8
F8
F8
F8
F8
F8
F8
F8
F8
F8
F8
F8
F8
ENDCHAR
STARTCHAR j
ENCODING 106
SWIDTH 361 0
DWIDTH 9 0
BBX 9 23 -1 -5
BITMAP
0F80
0F80
0F80
0000
0000
0F80
0F80
0F80
0F80
0F80
0F80
0F80
0F80
0F80
0F80
0F80
0F80
0F80
0F80
0F80
FF80
FF00
FE00
ENDCHAR
STARTCHAR k
ENCODING 107
SWIDTH 681 0
DWIDTH 16 0
BBX 14 18 2 0
BITMAP
F800
F800
F800
F800
F800
F878
F8F0
F8E0
F9C0
FBC0
FBC0
FFC0
FFE0
FBF0
FBF0
F9F8
F8F8
F8FC
ENDCHAR
STARTCHAR l
ENCODING 108
SWIDTH 361 0
DWIDTH 9 0
BBX 5 18 2 0
BITMAP
F8
F8
F8
F8
F8
F8
F8
F8
F8
F8
F8
F8
F8
F8
F8
F8
F8
F8
ENDCHAR
STARTCHAR m
ENCODING 109
SWIDTH 1006 0
DWIDTH 24 0
BBX 21 13 2 0
BITMAP
FBE1F0
F7F3F8
FFFFF8
FFFFF8
FCFCF8
F8F8F8
F8F8F8
F8F8F8
F8F8F8
F8F8F8
F8F8F8
F8F8F8
F8F8F8
ENDCHAR
STARTCHAR n
ENCODING 110
SWIDTH 693 0
DWIDTH 17 0
BBX 13 13 2 0
BITMAP
F9E0
FBF0
FFF8
FFF8
FCF8
F8F8
F8F8
F8F8
F8F8
F8F8
F8F8
F8F8
F8F8
ENDCHAR
STARTCHAR o
ENCODING 111
SWIDTH 675 0
DWIDTH 16 0
BBX 14 13 1 0
BITMAP
0FC0
3FF0
7FF8
7CF8
F87C
F87C
F87C
F87C
F87C
7CF8
7FF8
3FF0
0FC0
ENDCHAR
STARTCHAR p
ENCODING 112
SWIDTH 696 0
DWIDTH 17 0
BBX 14 18 2 -5
BITMAP
F9E0
FBF8
FFF8
FCFC
F87C
F87C
F87C
F87C
F87C
FCFC
FFF8
FFF0
F9E0
F800
F800
F800
F800
F800
ENDCHAR
STARTCHAR q
ENCODING 113
SWIDTH 696 0
DWIDTH 17 0
BBX 14 18 1 -5
BITMAP
1F3C
3FFC
7FFC
7CFC
F87C
F87C
F87C
F87C
F87C
FCFC
7FFC
7F7C
1E7C
007C
007C
007C
007C
007C
ENDCHAR
STARTCHAR r
ENCODING 114
SWIDTH 500 0
DWIDTH 12 0
BBX 10 13 2 0
BITMAP
F9C0
FBC0
FFC0
FFC0
FC00
F800
F800
F800
F800
F800
F800
F800
F800
ENDCHAR
STARTCHAR s
ENCODING 115
SWIDTH 622 0
DWIDTH 15 0
BBX 12 13 2 0
BITMAP
3FC0
7FE0
FFE0
F820
F800
FF00
3FC0
0FF0
01F0
C1F0
FFF0
FFE0
7F80
ENDCHAR
STARTCHAR t
ENCODING 116
SWIDTH 436 0
DWIDTH 10 0
BBX 9 16 1 0
BITMAP
3C00
7C00
7C00
FF80
FF80
FF80
7C00
7C00
7C00
7C00
7C00
7C00
7C00
7F80
3F80
1F80
ENDCHAR
STARTCHAR u
ENCODING 117
SWIDTH 693 0
DWIDTH 17 0
BBX 13 13 2 0
BITMAP
F8F8
F8F8
F8F8
F8F8
F8F8
F8F8
F8F8
F8F8
F8F8
F9F8
FFF8
7EF8
3CF8
ENDCHAR
STARTCHAR v
ENCODING 118
SWIDTH 663 0
DWIDTH 16 0
BBX 15 13 0 0
BITMAP
F80E
FC1C
7C1C
7E3C
3E38
3E38
3F78
1F70
1FF0
0FE0
0FE0
0FE0
07C0
ENDCHAR
STARTCHAR w
ENCODING 119
SWIDTH 885 0
DWIDTH 21 0
BBX 20 13 1 0
BITMAP
F0F870
F8F870
78F8E0
79F8E0
79FCE0
7DFDC0
3DFDC0
3F9DC0
3F9FC0
3F9F80
1F1F80
1F0F80
1F0F80
ENDCHAR
STARTCHAR x
ENCODING 120
SWIDTH 568 0
DWIDTH 14 0
BBX 13 13 0 0
BITMAP
FC78
7CF0
3EE0
3FE0
1FC0
1F80
0F80
0FC0
1FC0
3FE0
3BF0
79F0
F0F8
ENDCHAR
STARTCHAR y
ENCODING 121
SWIDTH 645 0
DWIDTH 15 0
BBX 15 18 0 -5
BITMAP
F81E
FC1C
7C3C
7E38
3E38
3E70
3F70
1FE0
1FE0
0FE0
0FC0
0FC0
0780
0780
0F00
0F00
1E00
3E00
ENDCHAR
STARTCHAR z
ENCODING 122
SWIDTH 608 0
DWIDTH 15 0
BBX 12 13 1 0
BITMAP
FFF0
FFF0
FFF0
07F0
0FE0
1FC0
1F80
3F00
7F00
FE00
FFF0
FFF0
FFF0
ENDCHAR
STARTCHAR braceleft
ENCODING 123
SWIDTH 386 0
DWIDTH 9 0
BBX 7 22 1 -4
BITMAP
1E
3E
7E
7C
7C
7C
7C
7C
7C
F8
F0
F0
78
7C
7C
7C
7C
7C
7C
7E
3E
1E
ENDCHAR
STARTCHAR bar
ENCODING 124
SWIDTH 265 0
DWIDTH 6 0
BBX 3 22 2 -4
BITMAP
E0
E0
E0
E0
E0
E0
E0
E0
E0
E0
E0
E0
E0
E0
E0
E0
E0
E0
E0
E0
E0
E0
ENDCHAR
STARTCHAR braceright
ENCODING 125
SWIDTH 386 0
DWIDTH 9 0
BBX 7 22 1 -4
BITMAP
F0
F8
FC
7C
7C
7C
7C
7C
7C
3E
1E
1E
3C
7C
7C
7C
7C
7C
7C
FC
F8
F0
ENDCHAR
STARTCHAR asciitilde
ENCODING 126
SWIDTH 687 0
DWIDTH 16 0
BBX 14 6 1 4
BITMAP
3C1C
7E1C
FF9C
E7FC
E1F8
E0F0
ENDCHAR
STARTCHAR space
ENCODING 160
SWIDTH 343 0
DWIDTH 8 0
BBX 1 1 0 0
BITMAP
00
ENDCHAR
STARTCHAR exclamdown
ENCODING 161
SWIDTH 265 0
DWIDTH 8 0
BBX 5 18 2 -5
BITMAP
F8
F8
F8
00
00
70
70
70
70
70
F8
F8
F8
F8
F8
F8
F8
F8
ENDCHAR
STARTCHAR cent
ENCODING 162
SWIDTH 687 0
DWIDTH 16 0
BBX 12 17 2 0
BITMAP
0380
0380
0FF0
3FF0
7FF0
7C00
F800
F800
F800
F800
FC00
7E00
7FF0
3FF0
07F0
0380
0380
ENDCHAR
STARTCHAR sterling
ENCODING 163
SWIDTH 687 0
DWIDTH 16 0
BBX 12 17 3 0
BITMAP
07F0
1FF0
1FF0
3E00
3E00
3E00
3E00
FF80
FF80
FF80
3E00
3E00
3C00
7800
FFF0
FFF0
FFF0
ENDCHAR
STARTCHAR currency
ENCODING 164
SWIDTH 687 0
DWIDTH 16 0
BBX 16 17 0 0
BITMAP
6006
E007
F00F
7BDE
3FFC
1FF8
1E78
1C38
1C38
1C38
1E78
1FF8
3FFC
7BDE
F00F
E007
4002
ENDCHAR
STARTCHAR yen
ENCODING 165
SWIDTH 687 0
DWIDTH 16 0
BBX 15 17 1 0
BITMAP
FC1E
FC1C
7E3C
3F78
3F70
1FF0
0FE0
0FC0
1FF0
1FF0
07C0
1FF0
1FF0
07C0
07C0
07C0
07C0
ENDCHAR
STARTCHAR brokenbar
ENCODING 166
SWIDTH 265 0
DWIDTH 6 0
BBX 3 22 2 -4
BITMAP
E0
E0
E0
E0
E0
E0
E0
E0
E0
00
00
00
00
E0
E0
E0
E0
E0
E0
E0
E0
E0
ENDCHAR
STARTCHAR section
ENCODING 167
SWIDTH 693 0
DWIDTH 16 0
BBX 12 22 2 -5
BITMAP
3FE0
7FE0
FFE0
F020
F800
FF00
7FC0
3FE0
7FF0
EFF0
F1F0
FC70
FF70
7FE0
7FC0
1FE0
07F0
01F0
C1F0
FFF0
FFE0
FF80
ENDCHAR
STARTCHAR dieresis
ENCODING 168
SWIDTH 675 0
DWIDTH 16 0
BBX 8 3 4 14
BITMAP
E7
E7
E7
ENDCHAR
STARTCHAR copyright
ENCODING 169
SWIDTH 825 0
DWIDTH 20 0
BBX 18 17 1 0
BITMAP
03F000
0FFC00
1C0E00
380700
71F380
67F980
CF08C0
CE00C0
CE00C0
CE00C0
CF00C0
67F980
71FB80
380700
1C0E00
0FFC00
03F000
ENDCHAR
STARTCHAR ordfeminine
ENCODING 170
SWIDTH 536 0
DWIDTH 13 0
BBX 12 9 1 8
BITMAP
7F80
FFC0
C3E0
3FE0
FFE0
F3E0
F3E0
FFF0
7CF0
ENDCHAR
STARTCHAR guillemotleft
ENCODING 171
SWIDTH 614 0
DWIDTH 15 0
BBX 13 11 1 1
BITMAP
0410
0E38
1C70
3CF0
79E0
F3C0
79E0
3CF0
1C70
0E38
0410
ENDCHAR
STARTCHAR logicalnot
ENCODING 172
SWIDTH 687 0
DWIDTH 16 0
BBX 14 9 1 2
BITMAP
FFFC
FFFC
FFFC
001C
001C
001C
001C
001C
001C
ENDCHAR
STARTCHAR hyphen
ENCODING 173
SWIDTH 289 0
DWIDTH 7 0
BBX 5 3 1 6
BITMAP
F8
F8
F8
ENDCHAR
STARTCHAR registered
ENCODING 174
SWIDTH 687 0
DWIDTH 16 0
BBX 13 12 2 5
BITMAP
0F80
3FE0
7070
6FB0
CF98
CD98
CF18
CF18
6DB0
7070
3FE0
0F80
ENDCHAR
STARTCHAR macron
ENCODING 175
SWIDTH 675 0
DWIDTH 16 0
BBX 8 3 4 14
BITMAP
FF
FF
FF
ENDCHAR
STARTCHAR degree
ENCODING 176
SWIDTH 241 0
DWIDTH 6 0
BBX 4 4 1 13
BITMAP
60
90
90
60
ENDCHAR
STARTCHAR plusminus
ENCODING 177
SWIDTH 687 0
DWIDTH 16 0
BBX 15 14 1 0
BITMAP
0380
0380
0380
FFFE
FFFE
FFFE
0380
0380
0380
0380
0000
FFFE
FFFE
FFFE
ENDCHAR
STARTCHAR twosuperior
ENCODING 178
SWIDTH 536 0
DWIDTH 10 0
BBX 8 10 -15 7
BITMAP
FC
87
03
03
06
0C
18
70
E0
FF
ENDCHAR
STARTCHAR threesuperior
ENCODING 179
SWIDTH 536 0
DWIDTH 10 0
BBX 8 10 -16 7
BITMAP
FE
83
03
07
7C
06
03
03
87
FC
ENDCHAR
STARTCHAR acute
ENCODING 180
SWIDTH 675 0
DWIDTH 16 0
BBX 6 3 6 15
BITMAP
3C
70
E0
ENDCHAR
STARTCHAR mu
ENCODING 181
SWIDTH 699 0
DWIDTH 17 0
BBX 13 17 2 -4
BITMAP
F8F8
F8F8
F8F8
F8F8
F8F8
F8F8
F8F8
F8F8
F8F8
F9F8
FFF8
FFF8
FEF8
F800
F800
F800
F800
ENDCHAR
STARTCHAR paragraph
ENCODING 182
SWIDTH 693 0
DWIDTH 16 0
BBX 10 21 2 -4
BITMAP
3FC0
7FC0
FFC0
FFC0
FFC0
FFC0
FFC0
7FC0
1FC0
0FC0
0FC0
0FC0
0FC0
0FC0
0FC0
0FC0
0FC0
0FC0
0FC0
0FC0
0FC0
ENDCHAR
STARTCHAR periodcentered
ENCODING 183
SWIDTH 343 0
DWIDTH 16 0
BBX 3 3 7 6
BITMAP
E0
E0
E0
ENDCHAR
STARTCHAR cedilla
ENCODING 184
SWIDTH 675 0
DWIDTH 16 0
BBX 5 5 6 -5
BITMAP
30
60
38
F8
F0
ENDCHAR
STARTCHAR onesuperior
ENCODING 185
SWIDTH 536 0
DWIDTH 10 0
BBX 3 10 -18 7
BITMAP
E0
60
60
60
60
60
60
60
60
60
ENDCHAR
STARTCHAR ordmasculine
ENCODING 186
SWIDTH 536 0
DWIDTH 13 0
BBX 12 9 0 8
BITMAP
1F80
7FE0
FBF0
F1F0
F1F0
F1F0
FBF0
7FE0
1F80
ENDCHAR
STARTCHAR guillemotright
ENCODING 187
SWIDTH 614 0
DWIDTH 15 0
BBX 13 11 1 1
BITMAP
4100
E380
71C0
79E0
3CF0
1E78
3CF0
79E0
71C0
E380
4100
ENDCHAR
STARTCHAR onequarter
ENCODING 188
SWIDTH 1066 0
DWIDTH 22 0
BBX 19 17 6 0
BITMAP
700780
300F00
301E00
303C00
303800
307800
30F000
31E0C0
31C1C0
33C2C0
0784C0
0F0CC0
1E18C0
1C1FE0
3C00C0
7800C0
F000C0
ENDCHAR
STARTCHAR onehalf
ENCODING 189
SWIDTH 1066 0
DWIDTH 22 0
BBX 19 17 6 0
BITMAP
700780
300F00
301E00
303C00
303800
307800
30F000
31FF80
31D0E0
33C060
078060
0F00C0
1E0180
1C0300
3C0E00
781C00
F01FE0
ENDCHAR
STARTCHAR threequarters
ENCODING 190
SWIDTH 1120 0
DWIDTH 22 0
BBX 20 17 7 0
BITMAP
FE03C0
830780
030F00
071E00
7C1C00
063C00
037800
03F060
87E0E0
FDE160
03C260
078660
0F0C60
0E0FF0
1E0060
3C0060
780060
ENDCHAR
STARTCHAR questiondown
ENCODING 191
SWIDTH 572 0
DWIDTH 14 0
BBX 12 18 1 -5
BITMAP
0F80
0F80
0F80
0000
0000
0F80
0F80
0F00
1E00
3E00
3C00
7800
F800
F800
FC10
FFF0
7FF0
1FE0
ENDCHAR
STARTCHAR Agrave
ENCODING 192
SWIDTH 773 0
DWIDTH 19 0
BBX 18 21 0 0
BITMAP
03C000
00E000
007000
000000
03F000
03F000
03F800
07F800
07F800
07FC00
0E7C00
0E7E00
1E3E00
1C3E00
1FFF00
3FFF00
3FFF80
780F80
700F80
7007C0
E007C0
ENDCHAR
STARTCHAR Aacute
ENCODING 193
SWIDTH 773 0
DWIDTH 19 0
BBX 18 21 0 0
BITMAP
007800
00E000
01C000
000000
03F000
03F000
03F800
07F800
07F800
07FC00
0E7C00
0E7E00
1E3E00
1C3E00
1FFF00
3FFF00
3FFF80
780F80
700F80
7007C0
E007C0
ENDCHAR
STARTCHAR Acircumflex
ENCODING 194
SWIDTH 773 0
DWIDTH 19 0
BBX 18 21 0 0
BITMAP
01F000
03F800
071C00
000000
03F000
03F000
03F800
07F800
07F800
07FC00
0E7C00
0E7E00
1E3E00
1C3E00
1FFF00
3FFF00
3FFF80
780F80
700F80
7007C0
E007C0
ENDCHAR
STARTCHAR Atilde
ENCODING 195
SWIDTH 773 0
DWIDTH 19 0
BBX 18 21 0 0
BITMAP
03DC00
07FC00
077800
000000
03F000
03F000
03F800
07F800
07F800
07FC00
0E7C00
0E7E00
1E3E00
1C3E00
1FFF00
3FFF00
3FFF80
780F80
700F80
7007C0
E007C0
ENDCHAR
STARTCHAR Adieresis
ENCODING 196
SWIDTH 773 0
DWIDTH 19 0
BBX 18 21 0 0
BITMAP
073800
073800
073800
000000
03F000
03F000
03F800
07F800
07F800
07FC00
0E7C00
0E7E00
1E3E00
1C3E00
1FFF00
3FFF00
3FFF80
780F80
700F80
7007C0
E007C0
ENDCHAR
STARTCHAR Aring
ENCODING 197
SWIDTH 773 0
DWIDTH 19 0
BBX 18 22 0 0
BITMAP
00C000
012000
012000
00C000
000000
03F000
03F000
03F800
07F800
07F800
07FC00
0E7C00
0E7E00
1E3E00
1C3E00
1FFF00
3FFF00
3FFF80
780F80
700F80
7007C0
E007C0
ENDCHAR
STARTCHAR AE
ENCODING 198
SWIDTH 997 0
DWIDTH 24 0
BBX 23 17 0 0
BITMAP
003FFC
007FFC
00FFFC
00FE00
01FE00
01FE00
03BE00
03BFF8
073FF8
0F3FF8
0F3E00
1FFE00
1FFE00
3FFE00
383FFE
703FFE
E03FFE
ENDCHAR
STARTCHAR Ccedilla
ENCODING 199
SWIDTH 726 0
DWIDTH 17 0
BBX 16 22 1 -5
BITMAP
03FE
0FFF
3FFF
7F03
7C00
FC00
F800
F800
F800
F800
F800
FC00
7E00
7F01
3FFF
0FFF
03FC
00C0
0180
00E0
03E0
03C0
ENDCHAR
STARTCHAR Egrave
ENCODING 200
SWIDTH 645 0
DWIDTH 15 0
BBX 13 21 2 0
BITMAP
1E00
0700
0380
0000
FFF0
FFF0
FFF0
F800
F800
F800
F800
FFE0
FFE0
FFE0
F800
F800
F800
F800
FFF8
FFF8
FFF8
ENDCHAR
STARTCHAR Eacute
ENCODING 201
SWIDTH 645 0
DWIDTH 15 0
BBX 13 21 2 0
BITMAP
03C0
0700
0E00
0000
FFF0
FFF0
FFF0
F800
F800
F800
F800
FFE0
FFE0
FFE0
F800
F800
F800
F800
FFF8
FFF8
FFF8
ENDCHAR
STARTCHAR Ecircumflex
ENCODING 202
SWIDTH 645 0
DWIDTH 15 0
BBX 13 21 2 0
BITMAP
0F80
1FC0
38E0
0000
FFF0
FFF0
FFF0
F800
F800
F800
F800
FFE0
FFE0
FFE0
F800
F800
F800
F800
FFF8
FFF8
FFF8
ENDCHAR
STARTCHAR Edieresis
ENCODING 203
SWIDTH 645 0
DWIDTH 15 0
BBX 13 21 2 0
BITMAP
39C0
39C0
39C0
0000
FFF0
FFF0
FFF0
F800
F800
F800
F800
FFE0
FFE0
FFE0
F800
F800
F800
F800
FFF8
FFF8
FFF8
ENDCHAR
STARTCHAR Igrave
ENCODING 204
SWIDTH 361 0
DWIDTH 9 0
BBX 6 21 1 0
BITMAP
F0
38
1C
00
7C
7C
7C
7C
7C
7C
7C
7C
7C
7C
7C
7C
7C
7C
7C
7C
7C
ENDCHAR
STARTCHAR Iacute
ENCODING 205
SWIDTH 361 0
DWIDTH 9 0
BBX 7 21 2 0
BITMAP
1E
38
70
00
F8
F8
F8
F8
F8
F8
F8
F8
F8
F8
F8
F8
F8
F8
F8
F8
F8
ENDCHAR
STARTCHAR Icircumflex
ENCODING 206
SWIDTH 361 0
DWIDTH 9 0
BBX 9 21 0 0
BITMAP
3E00
7F00
E380
0000
3E00
3E00
3E00
3E00
3E00
3E00
3E00
3E00
3E00
3E00
3E00
3E00
3E00
3E00
3E00
3E00
3E00
ENDCHAR
STARTCHAR Idieresis
ENCODING 207
SWIDTH 361 0
DWIDTH 9 0
BBX 8 21 1 0
BITMAP
E7
E7
E7
00
7C
7C
7C
7C
7C
7C
7C
7C
7C
7C
7C
7C
7C
7C
7C
7C
7C
ENDCHAR
STARTCHAR Eth
ENCODING 208
SWIDTH 819 0
DWIDTH 20 0
BBX 19 17 0 0
BITMAP
3FFC00
3FFF00
3FFF80
3E1FC0
3E07C0
3E07E0
3E03E0
FFC3E0
FFC3E0
FFC3E0
3E03E0
3E03E0
3E07C0
3E0FC0
3FFF80
3FFF00
3FFC00
ENDCHAR
STARTCHAR Ntilde
ENCODING 209
SWIDTH 783 0
DWIDTH 19 0
BBX 15 21 2 0
BITMAP
0F70
1FF0
1DE0
0000
F00E
F80E
FC0E
FE0E
FF0E
FF0E
FF8E
EFCE
EFEE
E7EE
E3FE
E1FE
E1FE
E0FE
E07E
E03E
E01E
ENDCHAR
STARTCHAR Ograve
ENCODING 210
SWIDTH 855 0
DWIDTH 21 0
BBX 19 21 1 0
BITMAP
03C000
00E000
007000
000000
03F800
0FFE00
3FFF80
7E0FC0
7C07C0
FC07E0
F803E0
F803E0
F803E0
F803E0
F803E0
FC07E0
7C07C0
7E0FC0
3FFF80
0FFE00
03F800
ENDCHAR
STARTCHAR Oacute
ENCODING 211
SWIDTH 855 0
DWIDTH 21 0
BBX 19 21 1 0
BITMAP
003C00
007000
00E000
000000
03F800
0FFE00
3FFF80
7E0FC0
7C07C0
FC07E0
F803E0
F803E0
F803E0
F803E0
F803E0
FC07E0
7C07C0
7E0FC0
3FFF80
0FFE00
03F800
ENDCHAR
STARTCHAR Ocircumflex
ENCODING 212
SWIDTH 855 0
DWIDTH 21 0
BBX 19 21 1 0
BITMAP
01F000
03F800
071C00
000000
03F800
0FFE00
3FFF80
7E0FC0
7C07C0
FC07E0
F803E0
F803E0
F803E0
F803E0
F803E0
FC07E0
7C07C0
7E0FC0
3FFF80
0FFE00
03F800
ENDCHAR
STARTCHAR Otilde
ENCODING 213
SWIDTH 855 0
DWIDTH 21 0
BBX 19 21 1 0
BITMAP
03DC00
07FC00
077800
000000
03F800
0FFE00
3FFF80
7E0FC0
7C07C0
FC07E0
F803E0
F803E0
F803E0
F803E0
F803E0
FC07E0
7C07C0
7E0FC0
3FFF80
0FFE00
03F800
ENDCHAR
STARTCHAR Odieresis
ENCODING 214
SWIDTH 855 0
DWIDTH 21 0
BBX 19 21 1 0
BITMAP
039C00
039C00
039C00
000000
03F800
0FFE00
3FFF80
7E0FC0
7C07C0
FC07E0
F803E0
F803E0
F803E0
F803E0
F803E0
FC07E0
7C07C0
7E0FC0
3FFF80
0FFE00
03F800
ENDCHAR
STARTCHAR multiply
ENCODING 215
SWIDTH 687 0
DWIDTH 16 0
BBX 14 14 1 0
BITMAP
6018
F03C
F87C
7CF8
3FF0
1FE0
0FC0
0FC0
1FE0
3FF0
7CF8
F87C
F03C
6018
ENDCHAR
STARTCHAR Oslash
ENCODING 216
SWIDTH 855 0
DWIDTH 21 0
BBX 19 17 1 0
BITMAP
03F9E0
0FFFC0
3FFF80
7E0FC0
7C1FC0
FC3FE0
F87BE0
F8F3E0
F9F3E0
F9E3E0
FBC3E0
FF87E0
7F07C0
7E0FC0
3FFF80
7FFE00
F3F800
ENDCHAR
STARTCHAR Ugrave
ENCODING 217
SWIDTH 783 0
DWIDTH 19 0
BBX 15 21 2 0
BITMAP
0F00
0380
01C0
0000
F83E
F83E
F83E
F83E
F83E
F83E
F83E
F83E
F83E
F83E
F83E
F83E
F83E
7C7C
7FFC
3FF8
0FE0
ENDCHAR
STARTCHAR Uacute
ENCODING 218
SWIDTH 783 0
DWIDTH 19 0
BBX 15 21 2 0
BITMAP
00F0
01C0
0380
0000
F83E
F83E
F83E
F83E
F83E
F83E
F83E
F83E
F83E
F83E
F83E
F83E
F83E
7C7C
7FFC
3FF8
0FE0
ENDCHAR
STARTCHAR Ucircumflex
ENCODING 219
SWIDTH 783 0
DWIDTH 19 0
BBX 15 21 2 0
BITMAP
07C0
0FE0
1C70
0000
F83E
F83E
F83E
F83E
F83E
F83E
F83E
F83E
F83E
F83E
F83E
F83E
F83E
7C7C
7FFC
3FF8
0FE0
ENDCHAR
STARTCHAR Udieresis
ENCODING 220
SWIDTH 783 0
DWIDTH 19 0
BBX 15 21 2 0
BITMAP
0E70
0E70
0E70
0000
F83E
F83E
F83E
F83E
F83E
F83E
F83E
F83E
F83E
F83E
F83E
F83E
F83E
7C7C
7FFC
3FF8
0FE0
ENDCHAR
STARTCHAR Yacute
ENCODING 221
SWIDTH 738 0
DWIDTH 18 0
BBX 17 21 0 0
BITMAP
007800
00E000
01C000
000000
FC0780
7C0700
7E0E00
3F1E00
3F1C00
1FBC00
0FF800
0FF000
07F000
07E000
03E000
03E000
03E000
03E000
03E000
03E000
03E000
ENDCHAR
STARTCHAR Thorn
ENCODING 222
SWIDTH 657 0
DWIDTH 16 0
BBX 14 17 2 0
BITMAP
F800
F800
F800
FFF0
FFF8
FFFC
F8FC
F87C
F87C
F87C
F8F8
FFF8
FFF0
FFC0
F800
F800
F800
ENDCHAR
STARTCHAR germandbls
ENCODING 223
SWIDTH 724 0
DWIDTH 17 0
BBX 15 18 2 0
BITMAP
1FC0
3FE0
7FF0
F8F0
F8E0
F8E0
F9C0
F9C0
FBF0
FBF8
F9FC
F9FE
F87E
F83E
F81E
F9FE
F9FC
F9F8
ENDCHAR
STARTCHAR agrave
ENCODING 224
SWIDTH 623 0
DWIDTH 15 0
BBX 13 17 1 0
BITMAP
1E00
0700
0380
0000
3F80
7FE0
7FF0
41F0
01F0
3FF0
7FF0
FFF0
F9F0
F9F0
FFF8
7FF8
3CF8
ENDCHAR
STARTCHAR aacute
ENCODING 225
SWIDTH 623 0
DWIDTH 15 0
BBX 13 17 1 0
BITMAP
01E0
0380
0700
0000
3F80
7FE0
7FF0
41F0
01F0
3FF0
7FF0
FFF0
F9F0
F9F0
FFF8
7FF8
3CF8
ENDCHAR
STARTCHAR acircumflex
ENCODING 226
SWIDTH 623 0
DWIDTH 15 0
BBX 13 17 1 0
BITMAP
0F80
1FC0
38E0
0000
3F80
7FE0
7FF0
41F0
01F0
3FF0
7FF0
FFF0
F9F0
F9F0
FFF8
7FF8
3CF8
ENDCHAR
STARTCHAR atilde
ENCODING 227
SWIDTH 623 0
DWIDTH 15 0
BBX 13 17 1 0
BITMAP
1EE0
3FE0
3BC0
0000
3F80
7FE0
7FF0
41F0
01F0
3FF0
7FF0
FFF0
F9F0
F9F0
FFF8
7FF8
3CF8
ENDCHAR
STARTCHAR adieresis
ENCODING 228
SWIDTH 623 0
DWIDTH 15 0
BBX 13 17 1 0
BITMAP
1CE0
1CE0
1CE0
0000
3F80
7FE0
7FF0
41F0
01F0
3FF0
7FF0
FFF0
F9F0
F9F0
FFF8
7FF8
3CF8
ENDCHAR
STARTCHAR aring
ENCODING 229
SWIDTH 623 0
DWIDTH 15 0
BBX 13 18 1 0
BITMAP
0600
0900
0900
0600
0000
3F80
7FE0
7FF0
41F0
01F0
3FF0
7FF0
FFF0
F9F0
F9F0
FFF8
7FF8
3CF8
ENDCHAR
STARTCHAR ae
ENCODING 230
SWIDTH 913 0
DWIDTH 22 0
BBX 20 13 1 0
BITMAP
3F0F80
7FFFC0
7FFFE0
41F1E0
00F1F0
1FFFF0
7FFFF0
FFFFF0
F8F000
F9F810
FFFFF0
7F3FF0
3C1FE0
ENDCHAR
STARTCHAR ccedilla
ENCODING 231
SWIDTH 545 0
DWIDTH 13 0
BBX 12 18 1 -5
BITMAP
0FE0
3FF0
7FF0
7E10
FC00
F800
F800
F800
FC00
7E10
7FF0
3FF0
0FF0
0300
0600
0380
0F80
0F00
ENDCHAR
STARTCHAR egrave
ENCODING 232
SWIDTH 614 0
DWIDTH 15 0
BBX 13 17 1 0
BITMAP
1E00
0700
0380
0000
0FC0
3FE0
7FF0
78F0
F8F8
FFF8
FFF8
FFF8
F800
7C08
7FF8
3FF8
0FF0
ENDCHAR
STARTCHAR eacute
ENCODING 233
SWIDTH 614 0
DWIDTH 15 0
BBX 13 17 1 0
BITMAP
01E0
0380
0700
0000
0FC0
3FE0
7FF0
78F0
F8F8
FFF8
FFF8
FFF8
F800
7C08
7FF8
3FF8
0FF0
ENDCHAR
STARTCHAR ecircumflex
ENCODING 234
SWIDTH 614 0
DWIDTH 15 0
BBX 13 17 1 0
BITMAP
0F80
1FC0
38E0
0000
0FC0
3FE0
7FF0
78F0
F8F8
FFF8
FFF8
FFF8
F800
7C08
7FF8
3FF8
0FF0
ENDCHAR
STARTCHAR edieresis
ENCODING 235
SWIDTH 614 0
DWIDTH 15 0
BBX 13 17 1 0
BITMAP
1CE0
1CE0
1CE0
0000
0FC0
3FE0
7FF0
78F0
F8F8
FFF8
FFF8
FFF8
F800
7C08
7FF8
3FF8
0FF0
ENDCHAR
STARTCHAR igrave
ENCODING 236
SWIDTH 361 0
DWIDTH 9 0
BBX 6 17 1 0
BITMAP
F0
38
1C
00
7C
7C
7C
7C
7C
7C
7C
7C
7C
7C
7C
7C
7C
ENDCHAR
STARTCHAR iacute
ENCODING 237
SWIDTH 361 0
DWIDTH 9 0
BBX 7 17 2 0
BITMAP
1E
38
70
00
F8
F8
F8
F8
F8
F8
F8
F8
F8
F8
F8
F8
F8
ENDCHAR
STARTCHAR icircumflex
ENCODING 238
SWIDTH 361 0
DWIDTH 9 0
BBX 9 17 0 0
BITMAP
3E00
7F00
E380
0000
3E00
3E00
3E00
3E00
3E00
3E00
3E00
3E00
3E00
3E00
3E00
3E00
3E00
ENDCHAR
STARTCHAR idieresis
ENCODING 239
SWIDTH 361 0
DWIDTH 9 0
BBX 8 17 1 0
BITMAP
E7
E7
E7
00
7C
7C
7C
7C
7C
7C
7C
7C
7C
7C
7C
7C
7C
ENDCHAR
STARTCHAR eth
ENCODING 240
SWIDTH 675 0
DWIDTH 16 0
BBX 14 21 1 0
BITMAP
0100
0380
07C0
F700
FF00
FFC0
3FE0
FBF0
71F8
3FF8
3FF8
7FFC
FCFC
F87C
F87C
F87C
F87C
FCF8
7FF8
3FF0
0FC0
ENDCHAR
STARTCHAR ntilde
ENCODING 241
SWIDTH 693 0
DWIDTH 17 0
BBX 13 17 2 0
BITMAP
1EE0
3FE0
3BC0
0000
F9E0
FBF0
FFF8
FFF8
FCF8
F8F8
F8F8
F8F8
F8F8
F8F8
F8F8
F8F8
F8F8
ENDCHAR
STARTCHAR ograve
ENCODING 242
SWIDTH 675 0
DWIDTH 16 0
BBX 14 17 1 0
BITMAP
0F00
0380
01C0
0000
0FC0
3FF0
7FF8
7CF8
F87C
F87C
F87C
F87C
F87C
7CF8
7FF8
3FF0
0FC0
ENDCHAR
STARTCHAR oacute
ENCODING 243
SWIDTH 675 0
DWIDTH 16 0
BBX 14 17 1 0
BITMAP
01E0
0380
0700
0000
0FC0
3FF0
7FF8
7CF8
F87C
F87C
F87C
F87C
F87C
7CF8
7FF8
3FF0
0FC0
ENDCHAR
STARTCHAR ocircumflex
ENCODING 244
SWIDTH 675 0
DWIDTH 16 0
BBX 14 17 1 0
BITMAP
07C0
0FE0
1C70
0000
0FC0
3FF0
7FF8
7CF8
F87C
F87C
F87C
F87C
F87C
7CF8
7FF8
3FF0
0FC0
ENDCHAR
STARTCHAR otilde
ENCODING 245
SWIDTH 675 0
DWIDTH 16 0
BBX 14 17 1 0
BITMAP
0F70
1FF0
1DE0
0000
0FC0
3FF0
7FF8
7CF8
F87C
F87C
F87C
F87C
F87C
7CF8
7FF8
3FF0
0FC0
ENDCHAR
STARTCHAR odieresis
ENCODING 246
SWIDTH 675 0
DWIDTH 16 0
BBX 14 17 1 0
BITMAP
1CE0
1CE0
1CE0
0000
0FC0
3FF0
7FF8
7CF8
F87C
F87C
F87C
F87C
F87C
7CF8
7FF8
3FF0
0FC0
ENDCHAR
STARTCHAR divide
ENCODING 247
SWIDTH 687 0
DWIDTH 16 0
BBX 14 14 1 0
BITMAP
0700
0700
0700
0000
0000
FFFC
FFFC
FFFC
0000
0000
0000
0700
0700
0700
ENDCHAR
STARTCHAR oslash
ENCODING 248
SWIDTH 675 0
DWIDTH 16 0
BBX 15 13 1 0
BITMAP
0FDE
3FFC
7FF8
7CF8
F9FC
FBFC
FFFC
FFFC
FF7C
7EF8
7FF8
7FF0
FFC0
ENDCHAR
STARTCHAR ugrave
ENCODING 249
SWIDTH 693 0
DWIDTH 17 0
BBX 13 17 2 0
BITMAP
1E00
0700
0380
0000
F8F8
F8F8
F8F8
F8F8
F8F8
F8F8
F8F8
F8F8
F8F8
F9F8
FFF8
7EF8
3CF8
ENDCHAR
STARTCHAR uacute
ENCODING 250
SWIDTH 693 0
DWIDTH 17 0
BBX 13 17 2 0
BITMAP
01E0
0380
0700
0000
F8F8
F8F8
F8F8
F8F8
F8F8
F8F8
F8F8
F8F8
F8F8
F9F8
FFF8
7EF8
3CF8
ENDCHAR
STARTCHAR ucircumflex
ENCODING 251
SWIDTH 693 0
DWIDTH 17 0
BBX 13 17 2 0
BITMAP
0F80
1FC0
38E0
0000
F8F8
F8F8
F8F8
F8F8
F8F8
F8F8
F8F8
F8F8
F8F8
F9F8
FFF8
7EF8
3CF8
ENDCHAR
STARTCHAR udieresis
ENCODING 252
SWIDTH 693 0
DWIDTH 17 0
BBX 13 17 2 0
BITMAP
1CE0
1CE0
1CE0
0000
F8F8
F8F8
F8F8
F8F8
F8F8
F8F8
F8F8
F8F8
F8F8
F9F8
FFF8
7EF8
3CF8
ENDCHAR
STARTCHAR yacute
ENCODING 253
SWIDTH 645 0
DWIDTH 15 0
BBX 15 22 0 -5
BITMAP
01E0
0380
0700
0000
F81E
FC1C
7C3C
7E38
3E38
3E70
3F70
1FE0
1FE0
0FE0
0FC0
0FC0
0780
0780
0F00
0F00
1E00
3E00
ENDCHAR
STARTCHAR thorn
ENCODING 254
SWIDTH 696 0
DWIDTH 17 0
BBX 14 22 2 -5
BITMAP
F800
F800
F800
F800
F9E0
FBF8
FFF8
FCFC
F87C
F87C
F87C
F87C
F87C
FCFC
FFF8
FFF0
F9E0
F800
F800
F800
F800
F800
ENDCHAR
STARTCHAR ydieresis
ENCODING 255
SWIDTH 645 0
DWIDTH 15 0
BBX 15 22 0 -5
BITMAP
0E70
0E70
0E70
0000
F81E
FC1C
7C3C
7E38
3E38
3E70
3F70
1FE0
1FE0
0FE0
0FC0
0FC0
0780
0780
0F00
0F00
1E00
3E00
ENDCHAR
STARTCHAR Amacron
ENCODING 256
SWIDTH 773 0
DWIDTH 19 0
BBX 18 21 0 0
BITMAP
07F800
07F800
07F800
000000
03F000
03F000
03F800
07F800
07F800
07FC00
0E7C00
0E7E00
1E3E00
1C3E00
1FFF00
3FFF00
3FFF80
780F80
700F80
7007C0
E007C0
ENDCHAR
STARTCHAR amacron
ENCODING 257
SWIDTH 623 0
DWIDTH 15 0
BBX 13 17 1 0
BITMAP
3FC0
3FC0
3FC0
0000
3F80
7FE0
7FF0
41F0
01F0
3FF0
7FF0
FFF0
F9F0
F9F0
FFF8
7FF8
3CF8
ENDCHAR
STARTCHAR Abreve
ENCODING 258
SWIDTH 773 0
DWIDTH 19 0
BBX 18 21 0 0
BITMAP
071C00
03F800
01F000
000000
03F000
03F000
03F800
07F800
07F800
07FC00
0E7C00
0E7E00
1E3E00
1C3E00
1FFF00
3FFF00
3FFF80
780F80
700F80
7007C0
E007C0
ENDCHAR
STARTCHAR abreve
ENCODING 259
SWIDTH 623 0
DWIDTH 15 0
BBX 13 17 1 0
BITMAP
38E0
1FC0
0F80
0000
3F80
7FE0
7FF0
41F0
01F0
3FF0
7FF0
FFF0
F9F0
F9F0
FFF8
7FF8
3CF8
ENDCHAR
STARTCHAR Aogonek
ENCODING 260
SWIDTH 773 0
DWIDTH 19 0
BBX 18 21 0 -4
BITMAP
03F000
03F000
03F800
07F800
07F800
07FC00
0E7C00
0E7E00
1E3E00
1C3E00
1FFF00
3FFF00
3FFF80
780F80
700F80
7007C0
E007C0
000000
00E000
01C000
00F000
ENDCHAR
STARTCHAR aogonek
ENCODING 261
SWIDTH 623 0
DWIDTH 15 0
BBX 13 17 1 -4
BITMAP
3F80
7FE0
7FF0
41F0
01F0
3FF0
7FF0
FFF0
F9F0
F9F0
FFF8
7FF8
3CF8
0000
0700
0E00
0780
ENDCHAR
STARTCHAR Cacute
ENCODING 262
SWIDTH 726 0
DWIDTH 17 0
BBX 16 21 1 0
BITMAP
00F0
01C0
0380
0000
03FE
0FFF
3FFF
7F03
7C00
FC00
F800
F800
F800
F800
F800
FC00
7E00
7F01
3FFF
0FFF
03FC
ENDCHAR
STARTCHAR cacute
ENCODING 263
SWIDTH 545 0
DWIDTH 13 0
BBX 12 17 1 0
BITMAP
03C0
0700
0E00
0000
0FE0
3FF0
7FF0
7E10
FC00
F800
F800
F800
FC00
7E10
7FF0
3FF0
0FF0
ENDCHAR
STARTCHAR Ccircumflex
ENCODING 264
SWIDTH 726 0
DWIDTH 17 0
BBX 16 21 1 0
BITMAP
03E0
07F0
0E38
0000
03FE
0FFF
3FFF
7F03
7C00
FC00
F800
F800
F800
F800
F800
FC00
7E00
7F01
3FFF
0FFF
03FC
ENDCHAR
STARTCHAR ccircumflex
ENCODING 265
SWIDTH 545 0
DWIDTH 13 0
BBX 12 17 1 0
BITMAP
0F80
1FC0
38E0
0000
0FE0
3FF0
7FF0
7E10
FC00
F800
F800
F800
FC00
7E10
7FF0
3FF0
0FF0
ENDCHAR
STARTCHAR Cdotaccent
ENCODING 266
SWIDTH 726 0
DWIDTH 17 0
BBX 16 21 1 0
BITMAP
01C0
01C0
01C0
0000
03FE
0FFF
3FFF
7F03
7C00
FC00
F800
F800
F800
F800
F800
FC00
7E00
7F01
3FFF
0FFF
03FC
ENDCHAR
STARTCHAR cdotaccent
ENCODING 267
SWIDTH 545 0
DWIDTH 13 0
BBX 12 17 1 0
BITMAP
0700
0700
0700
0000
0FE0
3FF0
7FF0
7E10
FC00
F800
F800
F800
FC00
7E10
7FF0
3FF0
0FF0
ENDCHAR
STARTCHAR Ccaron
ENCODING 268
SWIDTH 726 0
DWIDTH 17 0
BBX 16 21 1 0
BITMAP
0E38
07F0
03E0
0000
03FE
0FFF
3FFF
7F03
7C00
FC00
F800
F800
F800
F800
F800
FC00
7E00
7F01
3FFF
0FFF
03FC
ENDCHAR
STARTCHAR ccaron
ENCODING 269
SWIDTH 545 0
DWIDTH 13 0
BBX 12 17 1 0
BITMAP
38E0
1FC0
0F80
0000
0FE0
3FF0
7FF0
7E10
FC00
F800
F800
F800
FC00
7E10
7FF0
3FF0
0FF0
ENDCHAR
STARTCHAR Dcaron
ENCODING 270
SWIDTH 819 0
DWIDTH 20 0
BBX 17 21 2 0
BITMAP
1C7000
0FE000
07C000
000000
FFF000
FFFC00
FFFE00
F87F00
F81F00
F81F80
F80F80
F80F80
F80F80
F80F80
F80F80
F80F80
F81F00
F83F00
FFFE00
FFFC00
FFF000
ENDCHAR
STARTCHAR dcaron
ENCODING 271
SWIDTH 926 0
DWIDTH 22 0
BBX 21 18 1 0
BITMAP
007CF8
007CF8
007CF8
007CF8
007CF8
1E7C38
3FFCF0
7FFCC0
FCFC00
F87C00
F87C00
F87C00
F87C00
F87C00
FCFC00
7FFC00
7F7C00
1E7C00
ENDCHAR
STARTCHAR Dcroat
ENCODING 272
SWIDTH 819 0
DWIDTH 20 0
BBX 19 17 0 0
BITMAP
3FFC00
3FFF00
3FFF80
3E1FC0
3E07C0
3E07E0
3E03E0
FFC3E0
FFC3E0
FFC3E0
3E03E0
3E03E0
3E07C0
3E0FC0
3FFF80
3FFF00
3FFC00
ENDCHAR
STARTCHAR dcroat
ENCODING 273
SWIDTH 696 0
DWIDTH 17 0
BBX 14 18 1 0
BITMAP
007C
007C
00FC
00FC
00FC
1E7C
3FFC
7FFC
FCFC
F87C
F87C
F87C
F87C
F87C
FCFC
7FFC
7F7C
1E7C
ENDCHAR
STARTCHAR Emacron
ENCODING 274
SWIDTH 645 0
DWIDTH 15 0
BBX 13 21 2 0
BITMAP
3FC0
3FC0
3FC0
0000
FFF0
FFF0
FFF0
F800
F800
F800
F800
FFE0
FFE0
FFE0
F800
F800
F800
F800
FFF8
FFF8
FFF8
ENDCHAR
STARTCHAR emacron
ENCODING 275
SWIDTH 614 0
DWIDTH 15 0
BBX 13 17 1 0
BITMAP
1FE0
1FE0
1FE0
0000
0FC0
3FE0
7FF0
78F0
F8F8
FFF8
FFF8
FFF8
F800
7C08
7FF8
3FF8
0FF0
ENDCHAR
STARTCHAR Ebreve
ENCODING 276
SWIDTH 645 0
DWIDTH 15 0
BBX 13 21 2 0
BITMAP
71C0
3F80
1F00
0000
FFF0
FFF0
FFF0
F800
F800
F800
F800
FFE0
FFE0
FFE0
F800
F800
F800
F800
FFF8
FFF8
FFF8
ENDCHAR
STARTCHAR ebreve
ENCODING 277
SWIDTH 614 0
DWIDTH 15 0
BBX 13 17 1 0
BITMAP
38E0
1FC0
0F80
0000
0FC0
3FE0
7FF0
78F0
F8F8
FFF8
FFF8
FFF8
F800
7C08
7FF8
3FF8
0FF0
ENDCHAR
STARTCHAR Edotaccent
ENCODING 278
SWIDTH 645 0
DWIDTH 15 0
BBX 13 21 2 0
BITMAP
0E00
0E00
0E00
0000
FFF0
FFF0
FFF0
F800
F800
F800
F800
FFE0
FFE0
FFE0
F800
F800
F800
F800
FFF8
FFF8
FFF8
ENDCHAR
STARTCHAR edotaccent
ENCODING 279
SWIDTH 614 0
DWIDTH 15 0
BBX 13 17 1 0
BITMAP
0700
0700
0700
0000
0FC0
3FE0
7FF0
78F0
F8F8
FFF8
FFF8
FFF8
F800
7C08
7FF8
3FF8
0FF0
ENDCHAR
STARTCHAR Eogonek
ENCODING 280
SWIDTH 645 0
DWIDTH 15 0
BBX 13 21 2 -4
BITMAP
FFF0
FFF0
FFF0
F800
F800
F800
F800
FFE0
FFE0
FFE0
F800
F800
F800
F800
FFF8
FFF8
FFF8
0000
0E00
1C00
0F00
ENDCHAR
STARTCHAR eogonek
ENCODING 281
SWIDTH 614 0
DWIDTH 15 0
BBX 13 17 1 -4
BITMAP
0FC0
3FE0
7FF0
78F0
F8F8
FFF8
FFF8
FFF8
F800
7C08
7FF8
3FF8
0FF0
0000
0700
0E00
0780
ENDCHAR
STARTCHAR Ecaron
ENCODING 282
SWIDTH 645 0
DWIDTH 15 0
BBX 13 21 2 0
BITMAP
71C0
3F80
1F00
0000
FFF0
FFF0
FFF0
F800
F800
F800
F800
FFE0
FFE0
FFE0
F800
F800
F800
F800
FFF8
FFF8
FFF8
ENDCHAR
STARTCHAR ecaron
ENCODING 283
SWIDTH 614 0
DWIDTH 15 0
BBX 13 17 1 0
BITMAP
38E0
1FC0
0F80
0000
0FC0
3FE0
7FF0
78F0
F8F8
FFF8
FFF8
FFF8
F800
7C08
7FF8
3FF8
0FF0
ENDCHAR
STARTCHAR Gcircumflex
ENCODING 284
SWIDTH 759 0
DWIDTH 18 0
BBX 16 21 1 0
BITMAP
03E0
07F0
0E38
0000
03FF
0FFF
3FFF
3F03
7C00
FC00
F800
F800
F81F
F81F
F81F
FC1F
7C1F
7F1F
3FFF
0FFF
03FE
ENDCHAR
STARTCHAR gcircumflex
ENCODING 285
SWIDTH 696 0
DWIDTH 17 0
BBX 14 22 1 -5
BITMAP
07C0
0FE0
1C70
0000
1F3C
3FFC
7FFC
7CFC
F87C
F87C
F87C
F87C
F87C
FCFC
7FFC
7F7C
1E7C
007C
20FC
7FF8
7FF0
1FC0
ENDCHAR
STARTCHAR Gbreve
ENCODING 286
SWIDTH 759 0
DWIDTH 18 0
BBX 16 21 1 0
BITMAP
0E38
07F0
03E0
0000
03FF
0FFF
3FFF
3F03
7C00
FC00
F800
F800
F81F
F81F
F81F
FC1F
7C1F
7F1F
3FFF
0FFF
03FE
ENDCHAR
STARTCHAR gbreve
ENCODING 287
SWIDTH 696 0
DWIDTH 17 0
BBX 14 22 1 -5
BITMAP
1C70
0FE0
07C0
0000
1F3C
3FFC
7FFC
7CFC
F87C
F87C
F87C
F87C
F87C
FCFC
7FFC
7F7C
1E7C
007C
20FC
7FF8
7FF0
1FC0
ENDCHAR
STARTCHAR Gdotaccent
ENCODING 288
SWIDTH 759 0
DWIDTH 18 0
BBX 16 21 1 0
BITMAP
01C0
01C0
01C0
0000
03FF
0FFF
3FFF
3F03
7C00
FC00
F800
F800
F81F
F81F
F81F
FC1F
7C1F
7F1F
3FFF
0FFF
03FE
ENDCHAR
STARTCHAR gdotaccent
ENCODING 289
SWIDTH 696 0
DWIDTH 17 0
BBX 14 22 1 -5
BITMAP
0380
0380
0380
0000
1F3C
3FFC
7FFC
7CFC
F87C
F87C
F87C
F87C
F87C
FCFC
7FFC
7F7C
1E7C
007C
20FC
7FF8
7FF0
1FC0
ENDCHAR
STARTCHAR Gcommaaccent
ENCODING 290
SWIDTH 759 0
DWIDTH 18 0
BBX 16 27 1 -10
BITMAP
03FF
0FFF
3FFF
3F03
7C00
FC00
F800
F800
F81F
F81F
F81F
FC1F
7C1F
7F1F
3FFF
0FFF
03FE
0000
03E0
03E0
03E0
03E0
03E0
00E0
01C0
03C0
0300
ENDCHAR
STARTCHAR gcommaaccent
ENCODING 291
SWIDTH 696 0
DWIDTH 17 0
BBX 14 27 1 -5
BITMAP
00C0
03C0
0700
07C0
07C0
07C0
07C0
07C0
0000
1F3C
3FFC
7FFC
7CFC
F87C
F87C
F87C
F87C
F87C
FCFC
7FFC
7F7C
1E7C
007C
20FC
7FF8
7FF0
1FC0
ENDCHAR
STARTCHAR Hcircumflex
ENCODING 292
SWIDTH 813 0
DWIDTH 20 0
BBX 15 21 2 0
BITMAP
07C0
0FE0
1C70
0000
F83E
F83E
F83E
F83E
F83E
F83E
F83E
FFFE
FFFE
FFFE
F83E
F83E
F83E
F83E
F83E
F83E
F83E
ENDCHAR
STARTCHAR hcircumflex
ENCODING 293
SWIDTH 693 0
DWIDTH 17 0
BBX 14 22 1 0
BITMAP
3E00
7F00
E380
0000
7C00
7C00
7C00
7C00
7C00
7CF0
7DF8
7FFC
7FFC
7E7C
7C7C
7C7C
7C7C
7C7C
7C7C
7C7C
7C7C
7C7C
ENDCHAR
STARTCHAR Hbar
ENCODING 294
SWIDTH 813 0
DWIDTH 20 0
BBX 15 17 2 0
BITMAP
F83E
F83E
FFFE
FFFE
FFFE
F83E
F83E
FFFE
FFFE
FFFE
F83E
F83E
F83E
F83E
F83E
F83E
F83E
ENDCHAR
STARTCHAR hbar
ENCODING 295
SWIDTH 693 0
DWIDTH 17 0
BBX 13 18 2 0
BITMAP
F800
F800
FC00
FC00
FC00
F9E0
FBF0
FFF8
FFF8
FCF8
F8F8
F8F8
F8F8
F8F8
F8F8
F8F8
F8F8
F8F8
ENDCHAR
STARTCHAR Itilde
ENCODING 296
SWIDTH 361 0
DWIDTH 9 0
BBX 9 21 0 0
BITMAP
7B80
FF80
EF00
0000
3E00
3E00
3E00
3E00
3E00
3E00
3E00
3E00
3E00
3E00
3E00
3E00
3E00
3E00
3E00
3E00
3E00
ENDCHAR
STARTCHAR itilde
ENCODING 297
SWIDTH 361 0
DWIDTH 9 0
BBX 9 17 0 0
BITMAP
7B80
FF80
EF00
0000
3E00
3E00
3E00
3E00
3E00
3E00
3E00
3E00
3E00
3E00
3E00
3E00
3E00
ENDCHAR
STARTCHAR Imacron
ENCODING 298
SWIDTH 361 0
DWIDTH 9 0
BBX 8 21 1 0
BITMAP
FF
FF
FF
00
7C
7C
7C
7C
7C
7C
7C
7C
7C
7C
7C
7C
7C
7C
7C
7C
7C
ENDCHAR
STARTCHAR imacron
ENCODING 299
SWIDTH 361 0
DWIDTH 9 0
BBX 8 17 1 0
BITMAP
FF
FF
FF
00
7C
7C
7C
7C
7C
7C
7C
7C
7C
7C
7C
7C
7C
ENDCHAR
STARTCHAR Ibreve
ENCODING 300
SWIDTH 361 0
DWIDTH 9 0
BBX 9 21 0 0
BITMAP
E380
7F00
3E00
0000
3E00
3E00
3E00
3E00
3E00
3E00
3E00
3E00
3E00
3E00
3E00
3E00
3E00
3E00
3E00
3E00
3E00
ENDCHAR
STARTCHAR ibreve
ENCODING 301
SWIDTH 361 0
DWIDTH 9 0
BBX 9 17 0 0
BITMAP
E380
7F00
3E00
0000
3E00
3E00
3E00
3E00
3E00
3E00
3E00
3E00
3E00
3E00
3E00
3E00
3E00
ENDCHAR
STARTCHAR Iogonek
ENCODING 302
SWIDTH 361 0
DWIDTH 9 0
BBX 5 21 2 -4
BITMAP
F8
F8
F8
F8
F8
F8
F8
F8
F8
F8
F8
F8
F8
F8
F8
F8
F8
00
70
E0
78
ENDCHAR
STARTCHAR iogonek
ENCODING 303
SWIDTH 361 0
DWIDTH 9 0
BBX 5 22 2 -4
BITMAP
F8
F8
F8
00
00
F8
F8
F8
F8
F8
F8
F8
F8
F8
F8
F8
F8
F8
00
70
E0
78
ENDCHAR
STARTCHAR Idotaccent
ENCODING 304
SWIDTH 361 0
DWIDTH 9 0
BBX 5 21 2 0
BITMAP
70
70
70
00
F8
F8
F8
F8
F8
F8
F8
F8
F8
F8
F8
F8
F8
F8
F8
F8
F8
ENDCHAR
STARTCHAR dotlessi
ENCODING 305
SWIDTH 361 0
DWIDTH 9 0
BBX 5 13 2 0
BITMAP
F8
F8
F8
F8
F8
F8
F8
F8
F8
F8
F8
F8
F8
ENDCHAR
STARTCHAR IJ
ENCODING 306
SWIDTH 844 0
DWIDTH 21 0
BBX 17 21 2 -4
BITMAP
F80F80
F80F80
F80F80
F80F80
F80F80
F80F80
F80F80
F80F80
F80F80
F80F80
F80F80
F80F80
F80F80
F80F80
F80F80
F80F80
F80F80
010F80
01FF00
01FF00
00FC00
ENDCHAR
STARTCHAR ij
ENCODING 307
SWIDTH 704 0
DWIDTH 18 0
BBX 15 23 2 -5
BITMAP
F83E
F83E
F83E
0000
0000
F83E
F83E
F83E
F83E
F83E
F83E
F83E
F83E
F83E
F83E
F83E
F83E
F83E
003E
003E
03FE
03FC
03F8
ENDCHAR
STARTCHAR Jcircumflex
ENCODING 308
SWIDTH 501 0
DWIDTH 12 0
BBX 11 25 0 -4
BITMAP
0F80
1FC0
38E0
0000
07C0
07C0
07C0
07C0
07C0
07C0
07C0
07C0
07C0
07C0
07C0
07C0
07C0
07C0
07C0
07C0
07C0
87C0
FF80
FF80
7E00
ENDCHAR
STARTCHAR jcircumflex
ENCODING 309
SWIDTH 361 0
DWIDTH 9 0
BBX 10 22 -1 -5
BITMAP
1F00
3F80
71C0
0000
0F80
0F80
0F80
0F80
0F80
0F80
0F80
0F80
0F80
0F80
0F80
0F80
0F80
0F80
0F80
FF80
FF00
FE00
ENDCHAR
STARTCHAR Kcommaaccent
ENCODING 310
SWIDTH 753 0
DWIDTH 18 0
BBX 16 27 2 -10
BITMAP
F81E
F83C
F878
F8F0
F8E0
F9E0
FBC0
FFC0
FFC0
FFE0
FBF0
FBF0
F9F8
F8FC
F8FE
F87E
F83F
0000
07C0
07C0
07C0
07C0
07C0
01C0
0380
0780
0600
ENDCHAR
STARTCHAR kcommaaccent
ENCODING 311
SWIDTH 681 0
DWIDTH 16 0
BBX 14 28 2 -10
BITMAP
F800
F800
F800
F800
F800
F878
F8F0
F8E0
F9C0
FBC0
FBC0
FFC0
FFE0
FBF0
FBF0
F9F8
F8F8
F8FC
0000
0F80
0F80
0F80
0F80
0F80
0380
0700
0F00
0C00
ENDCHAR
STARTCHAR kgreenlandic
ENCODING 312
SWIDTH 681 0
DWIDTH 16 0
BBX 14 13 2 0
BITMAP
F878
F8F0
F8E0
F9C0
FBC0
FBC0
FFC0
FFE0
FBF0
FBF0
F9F8
F8F8
F8FC
ENDCHAR
STARTCHAR Lacute
ENCODING 313
SWIDTH 620 0
DWIDTH 15 0
BBX 13 21 2 0
BITMAP
0F00
1C00
3800
0000
F800
F800
F800
F800
F800
F800
F800
F800
F800
F800
F800
F800
F800
F800
FFF8
FFF8
FFF8
ENDCHAR
STARTCHAR lacute
ENCODING 314
SWIDTH 361 0
DWIDTH 9 0
BBX 7 22 2 0
BITMAP
1E
38
70
00
F8
F8
F8
F8
F8
F8
F8
F8
F8
F8
F8
F8
F8
F8
F8
F8
F8
F8
ENDCHAR
STARTCHAR Lcommaaccent
ENCODING 315
SWIDTH 620 0
DWIDTH 15 0
BBX 13 27 2 -10
BITMAP
F800
F800
F800
F800
F800
F800
F800
F800
F800
F800
F800
F800
F800
F800
FFF8
FFF8
FFF8
0000
1F00
1F00
1F00
1F00
1F00
0700
0E00
1E00
1800
ENDCHAR
STARTCHAR lcommaaccent
ENCODING 316
SWIDTH 361 0
DWIDTH 9 0
BBX 5 28 2 -10
BITMAP
F8
F8
F8
F8
F8
F8
F8
F8
F8
F8
F8
F8
F8
F8
F8
F8
F8
F8
00
F8
F8
F8
F8
F8
38
70
F0
C0
ENDCHAR
STARTCHAR Lcaron
ENCODING 317
SWIDTH 854 0
DWIDTH 20 0
BBX 18 18 2 0
BITMAP
0007C0
F807C0
F807C0
F807C0
F807C0
F801C0
F80780
F80600
F80000
F80000
F80000
F80000
F80000
F80000
F80000
FFF800
FFF800
FFF800
ENDCHAR
STARTCHAR lcaron
ENCODING 318
SWIDTH 608 0
DWIDTH 15 0
BBX 13 18 2 0
BITMAP
F8F8
F8F8
F8F8
F8F8
F8F8
F838
F8F0
F8C0
F800
F800
F800
F800
F800
F800
F800
F800
F800
F800
ENDCHAR
STARTCHAR Ldot
ENCODING 319
SWIDTH 932 0
DWIDTH 30 0
BBX 22 17 2 0
BITMAP
F80000
F80000
F80000
F80000
F80000
F80000
F80000
F80000
F8001C
F8001C
F8001C
F80000
F80000
F80000
FFF800
FFF800
FFF800
ENDCHAR
STARTCHAR ldot
ENCODING 320
SWIDTH 686 0
DWIDTH 25 0
BBX 17 18 2 0
BITMAP
F80000
F80000
F80000
F80000
F80000
F80000
F80000
F80000
F80000
F80380
F80380
F80380
F80000
F80000
F80000
F80000
F80000
F80000
ENDCHAR
STARTCHAR Lslash
ENCODING 321
SWIDTH 620 0
DWIDTH 15 0
BBX 15 17 0 0
BITMAP
3E00
3E00
3E00
3E00
3E80
3F80
3F80
3F00
7E00
FE00
FE00
BE00
3E00
3E00
3FFE
3FFE
3FFE
ENDCHAR
STARTCHAR lslash
ENCODING 322
SWIDTH 361 0
DWIDTH 9 0
BBX 9 18 0 0
BITMAP
3E00
3E00
3E00
3E00
3E00
3E80
3F80
3F80
3F00
FE00
FE00
FE00
BE00
3E00
3E00
3E00
3E00
3E00
ENDCHAR
STARTCHAR Nacute
ENCODING 323
SWIDTH 783 0
DWIDTH 19 0
BBX 15 21 2 0
BITMAP
01E0
0380
0700
0000
F00E
F80E
FC0E
FE0E
FF0E
FF0E
FF8E
EFCE
EFEE
E7EE
E3FE
E1FE
E1FE
E0FE
E07E
E03E
E01E
ENDCHAR
STARTCHAR nacute
ENCODING 324
SWIDTH 693 0
DWIDTH 17 0
BBX 13 17 2 0
BITMAP
03C0
0700
0E00
0000
F9E0
FBF0
FFF8
FFF8
FCF8
F8F8
F8F8
F8F8
F8F8
F8F8
F8F8
F8F8
F8F8
ENDCHAR
STARTCHAR Ncommaaccent
ENCODING 325
SWIDTH 783 0
DWIDTH 19 0
BBX 15 27 2 -10
BITMAP
F00E
F80E
FC0E
FE0E
FF0E
FF0E
FF8E
EFCE
EFEE
E7EE
E3FE
E1FE
E1FE
E0FE
E07E
E03E
E01E
0000
03E0
03E0
03E0
03E0
03E0
00E0
01C0
03C0
0300
ENDCHAR
STARTCHAR ncommaaccent
ENCODING 326
SWIDTH 693 0
DWIDTH 17 0
BBX 13 23 2 -10
BITMAP
F9E0
FBF0
FFF8
FFF8
FCF8
F8F8
F8F8
F8F8
F8F8
F8F8
F8F8
F8F8
F8F8
0000
0F80
0F80
0F80
0F80
0F80
0380
0700
0F00
0C00
ENDCHAR
STARTCHAR Ncaron
ENCODING 327
SWIDTH 783 0
DWIDTH 19 0
BBX 15 21 2 0
BITMAP
38E0
1FC0
0F80
0000
F00E
F80E
FC0E
FE0E
FF0E
FF0E
FF8E
EFCE
EFEE
E7EE
E3FE
E1FE
E1FE
E0FE
E07E
E03E
E01E
ENDCHAR
STARTCHAR ncaron
ENCODING 328
SWIDTH 693 0
DWIDTH 17 0
BBX 13 17 2 0
BITMAP
38E0
1FC0
0F80
0000
F9E0
FBF0
FFF8
FFF8
FCF8
F8F8
F8F8
F8F8
F8F8
F8F8
F8F8
F8F8
F8F8
ENDCHAR
STARTCHAR napostrophe
ENCODING 329
SWIDTH 945 0
DWIDTH 23 0
BBX 20 18 1 0
BITMAP
F80000
F80000
F80000
F80000
F80000
39F3C0
F1F7E0
C1FFF0
01FFF0
01F9F0
01F1F0
01F1F0
01F1F0
01F1F0
01F1F0
01F1F0
01F1F0
01F1F0
ENDCHAR
STARTCHAR Eng
ENCODING 330
SWIDTH 783 0
DWIDTH 19 0
BBX 15 22 2 -5
BITMAP
F00E
F80E
FC0E
FE0E
FF0E
FF0E
FF8E
EFCE
EFEE
E7EE
E3FE
E1FE
E1FE
E0FE
E07E
E03E
E03E
003E
003E
03FE
03FC
03F8
ENDCHAR
STARTCHAR eng
ENCODING 331
SWIDTH 693 0
DWIDTH 17 0
BBX 13 18 2 -5
BITMAP
F9E0
FBF0
FFF8
FFF8
FCF8
F8F8
F8F8
F8F8
F8F8
F8F8
F8F8
F8F8
F8F8
00F8
00F8
0FF8
0FF0
0FE0
ENDCHAR
STARTCHAR Omacron
ENCODING 332
SWIDTH 855 0
DWIDTH 21 0
BBX 19 21 1 0
BITMAP
03FC00
03FC00
03FC00
000000
03F800
0FFE00
3FFF80
7E0FC0
7C07C0
FC07E0
F803E0
F803E0
F803E0
F803E0
F803E0
FC07E0
7C07C0
7E0FC0
3FFF80
0FFE00
03F800
ENDCHAR
STARTCHAR omacron
ENCODING 333
SWIDTH 675 0
DWIDTH 16 0
BBX 14 17 1 0
BITMAP
1FE0
1FE0
1FE0
0000
0FC0
3FF0
7FF8
7CF8
F87C
F87C
F87C
F87C
F87C
7CF8
7FF8
3FF0
0FC0
ENDCHAR
STARTCHAR Obreve
ENCODING 334
SWIDTH 855 0
DWIDTH 21 0
BBX 19 21 1 0
BITMAP
071C00
03F800
01F000
000000
03F800
0FFE00
3FFF80
7E0FC0
7C07C0
FC07E0
F803E0
F803E0
F803E0
F803E0
F803E0
FC07E0
7C07C0
7E0FC0
3FFF80
0FFE00
03F800
ENDCHAR
STARTCHAR obreve
ENCODING 335
SWIDTH 675 0
DWIDTH 16 0
BBX 14 17 1 0
BITMAP
1C70
0FE0
07C0
0000
0FC0
3FF0
7FF8
7CF8
F87C
F87C
F87C
F87C
F87C
7CF8
7FF8
3FF0
0FC0
ENDCHAR
STARTCHAR Ohungarumlaut
ENCODING 336
SWIDTH 855 0
DWIDTH 21 0
BBX 19 21 1 0
BITMAP
00EE00
01D800
03B000
000000
03F800
0FFE00
3FFF80
7E0FC0
7C07C0
FC07E0
F803E0
F803E0
F803E0
F803E0
F803E0
FC07E0
7C07C0
7E0FC0
3FFF80
0FFE00
03F800
ENDCHAR
STARTCHAR ohungarumlaut
ENCODING 337
SWIDTH 675 0
DWIDTH 16 0
BBX 14 17 1 0
BITMAP
03B8
0760
0EC0
0000
0FC0
3FF0
7FF8
7CF8
F87C
F87C
F87C
F87C
F87C
7CF8
7FF8
3FF0
0FC0
ENDCHAR
STARTCHAR OE
ENCODING 338
SWIDTH 1102 0
DWIDTH 26 0
BBX 25 17 1 0
BITMAP
03FFFF00
0FFFFF00
3FFFFF00
7E1F8000
7C0F8000
FC0F8000
F80F8000
F80FFE00
F80FFE00
F80FFE00
F80F8000
FC0F8000
7C0F8000
7E1F8000
3FFFFF80
0FFFFF80
03FFFF80
ENDCHAR
STARTCHAR oe
ENCODING 339
SWIDTH 990 0
DWIDTH 24 0
BBX 22 13 1 0
BITMAP
0F83C0
3FE7F0
7FFFF8
7CFC78
F87C7C
F87FFC
F87FFC
F87FFC
F87C00
7CFE04
7FFFFC
3FFFFC
0FC7F8
ENDCHAR
STARTCHAR Racute
ENCODING 340
SWIDTH 734 0
DWIDTH 18 0
BBX 16 21 2 0
BITMAP
01E0
0380
0700
0000
FFC0
FFF0
FFF8
F8F8
F8F8
F8F8
F9F8
FFF0
FFE0
FFE0
FBF0
F9F0
F9F8
F8F8
F8FC
F87E
F87F
ENDCHAR
STARTCHAR racute
ENCODING 341
SWIDTH 500 0
DWIDTH 12 0
BBX 10 17 2 0
BITMAP
0780
0E00
1C00
0000
F9C0
FBC0
FFC0
FFC0
FC00
F800
F800
F800
F800
F800
F800
F800
F800
ENDCHAR
STARTCHAR Rcommaaccent
ENCODING 342
SWIDTH 734 0
DWIDTH 18 0
BBX 16 27 2 -10
BITMAP
FFC0
FFF0
FFF8
F8F8
F8F8
F8F8
F9F8
FFF0
FFE0
FFE0
FBF0
F9F0
F9F8
F8F8
F8FC
F87E
F87F
0000
07C0
07C0
07C0
07C0
07C0
01C0
0380
0780
0600
ENDCHAR
STARTCHAR rcommaaccent
ENCODING 343
SWIDTH 500 0
DWIDTH 12 0
BBX 10 23 2 -10
BITMAP
F9C0
FBC0
FFC0
FFC0
FC00
F800
F800
F800
F800
F800
F800
F800
F800
0000
7C00
7C00
7C00
7C00
7C00
1C00
3800
7800
6000
ENDCHAR
STARTCHAR Rcaron
ENCODING 344
SWIDTH 734 0
DWIDTH 18 0
BBX 16 21 2 0
BITMAP
38E0
1FC0
0F80
0000
FFC0
FFF0
FFF8
F8F8
F8F8
F8F8
F9F8
FFF0
FFE0
FFE0
FBF0
F9F0
F9F8
F8F8
F8FC
F87E
F87F
ENDCHAR
STARTCHAR rcaron
ENCODING 345
SWIDTH 500 0
DWIDTH 12 0
BBX 10 17 2 0
BITMAP
E380
7F00
3E00
0000
F9C0
FBC0
FFC0
FFC0
FC00
F800
F800
F800
F800
F800
F800
F800
F800
ENDCHAR
STARTCHAR Sacute
ENCODING 346
SWIDTH 594 0
DWIDTH 14 0
BBX 13 21 1 0
BITMAP
03C0
0700
0E00
0000
1FF0
7FF0
7FF0
F830
F800
FE00
FF00
7FC0
3FF0
1FF0
07F8
01F8
00F8
C1F8
FFF0
FFE0
FF80
ENDCHAR
STARTCHAR sacute
ENCODING 347
SWIDTH 622 0
DWIDTH 15 0
BBX 12 17 2 0
BITMAP
03C0
0700
0E00
0000
3FC0
7FE0
FFE0
F820
F800
FF00
3FC0
0FF0
01F0
C1F0
FFF0
FFE0
7F80
ENDCHAR
STARTCHAR Scircumflex
ENCODING 348
SWIDTH 594 0
DWIDTH 14 0
BBX 13 21 1 0
BITMAP
0F80
1FC0
38E0
0000
1FF0
7FF0
7FF0
F830
F800
FE00
FF00
7FC0
3FF0
1FF0
07F8
01F8
00F8
C1F8
FFF0
FFE0
FF80
ENDCHAR
STARTCHAR scircumflex
ENCODING 349
SWIDTH 622 0
DWIDTH 15 0
BBX 12 17 2 0
BITMAP
1F00
3F80
71C0
0000
3FC0
7FE0
FFE0
F820
F800
FF00
3FC0
0FF0
01F0
C1F0
FFF0
FFE0
7F80
ENDCHAR
STARTCHAR Scedilla
ENCODING 350
SWIDTH 594 0
DWIDTH 14 0
BBX 13 22 1 -5
BITMAP
1FF0
7FF0
7FF0
F830
F800
FE00
FF00
7FC0
3FF0
1FF0
07F8
01F8
00F8
C1F8
FFF0
FFE0
FF80
0300
0600
0380
0F80
0F00
ENDCHAR
STARTCHAR scedilla
ENCODING 351
SWIDTH 622 0
DWIDTH 15 0
BBX 12 18 2 -5
BITMAP
3FC0
7FE0
FFE0
F820
F800
FF00
3FC0
0FF0
01F0
C1F0
FFF0
FFE0
7F80
0600
0C00
0700
1F00
1E00
ENDCHAR
STARTCHAR Scaron
ENCODING 352
SWIDTH 594 0
DWIDTH 14 0
BBX 13 21 1 0
BITMAP
38E0
1FC0
0F80
0000
1FF0
7FF0
7FF0
F830
F800
FE00
FF00
7FC0
3FF0
1FF0
07F8
01F8
00F8
C1F8
FFF0
FFE0
FF80
ENDCHAR
STARTCHAR scaron
ENCODING 353
SWIDTH 622 0
DWIDTH 15 0
BBX 12 17 2 0
BITMAP
38E0
1FC0
0F80
0000
3FC0
7FE0
FFE0
F820
F800
FF00
3FC0
0FF0
01F0
C1F0
FFF0
FFE0
7F80
ENDCHAR
STARTCHAR Tcommaaccent
ENCODING 354
SWIDTH 735 0
DWIDTH 18 0
BBX 17 22 0 -5
BITMAP
FFFF80
FFFF80
FFFF80
03E000
03E000
03E000
03E000
03E000
03E000
03E000
03E000
03E000
03E000
03E000
03E000
03E000
03E000
00C000
018000
00E000
03E000
03C000
ENDCHAR
STARTCHAR tcommaaccent
ENCODING 355
SWIDTH 436 0
DWIDTH 10 0
BBX 9 21 1 -5
BITMAP
3C00
7C00
7C00
FF80
FF80
FF80
7C00
7C00
7C00
7C00
7C00
7C00
7C00
7F80
3F80
1F80
0C00
1800
0E00
3E00
3C00
ENDCHAR
STARTCHAR Tcaron
ENCODING 356
SWIDTH 735 0
DWIDTH 18 0
BBX 17 21 0 0
BITMAP
0E3800
07F000
03E000
000000
FFFF80
FFFF80
FFFF80
03E000
03E000
03E000
03E000
03E000
03E000
03E000
03E000
03E000
03E000
03E000
03E000
03E000
03E000
ENDCHAR
STARTCHAR tcaron
ENCODING 357
SWIDTH 679 0
DWIDTH 16 0
BBX 15 18 1 0
BITMAP
003E
003E
3C3E
7C3E
7C3E
FF8E
FFBC
FFB0
7C00
7C00
7C00
7C00
7C00
7C00
7C00
7F80
3F80
1F80
ENDCHAR
STARTCHAR Tbar
ENCODING 358
SWIDTH 735 0
DWIDTH 18 0
BBX 17 17 0 0
BITMAP
FFFF80
FFFF80
FFFF80
03E000
03E000
03E000
03E000
03E000
03E000
03E000
03E000
03E000
03E000
03E000
03E000
03E000
03E000
ENDCHAR
STARTCHAR tbar
ENCODING 359
SWIDTH 436 0
DWIDTH 10 0
BBX 9 16 1 0
BITMAP
3C00
7C00
7C00
FF80
FF80
FF80
7C00
7E00
7E00
7E00
7C00
7C00
7C00
7F80
3F80
1F80
ENDCHAR
STARTCHAR Utilde
ENCODING 360
SWIDTH 783 0
DWIDTH 19 0
BBX 15 21 2 0
BITMAP
0F70
1FF0
1DE0
0000
F83E
F83E
F83E
F83E
F83E
F83E
F83E
F83E
F83E
F83E
F83E
F83E
F83E
7C7C
7FFC
3FF8
0FE0
ENDCHAR
STARTCHAR utilde
ENCODING 361
SWIDTH 693 0
DWIDTH 17 0
BBX 13 17 2 0
BITMAP
1EE0
3FE0
3BC0
0000
F8F8
F8F8
F8F8
F8F8
F8F8
F8F8
F8F8
F8F8
F8F8
F9F8
FFF8
7EF8
3CF8
ENDCHAR
STARTCHAR Umacron
ENCODING 362
SWIDTH 783 0
DWIDTH 19 0
BBX 15 21 2 0
BITMAP
0FF0
0FF0
0FF0
0000
F83E
F83E
F83E
F83E
F83E
F83E
F83E
F83E
F83E
F83E
F83E
F83E
F83E
7C7C
7FFC
3FF8
0FE0
ENDCHAR
STARTCHAR umacron
ENCODING 363
SWIDTH 693 0
DWIDTH 17 0
BBX 13 17 2 0
BITMAP
1FE0
1FE0
1FE0
0000
F8F8
F8F8
F8F8
F8F8
F8F8
F8F8
F8F8
F8F8
F8F8
F9F8
FFF8
7EF8
3CF8
ENDCHAR
STARTCHAR Ubreve
ENCODING 364
SWIDTH 783 0
DWIDTH 19 0
BBX 15 21 2 0
BITMAP
1C70
0FE0
07C0
0000
F83E
F83E
F83E
F83E
F83E
F83E
F83E
F83E
F83E
F83E
F83E
F83E
F83E
7C7C
7FFC
3FF8
0FE0
ENDCHAR
STARTCHAR ubreve
ENCODING 365
SWIDTH 693 0
DWIDTH 17 0
BBX 13 17 2 0
BITMAP
38E0
1FC0
0F80
0000
F8F8
F8F8
F8F8
F8F8
F8F8
F8F8
F8F8
F8F8
F8F8
F9F8
FFF8
7EF8
3CF8
ENDCHAR
STARTCHAR Uring
ENCODING 366
SWIDTH 783 0
DWIDTH 19 0
BBX 15 22 2 0
BITMAP
0180
0240
0240
0180
0000
F83E
F83E
F83E
F83E
F83E
F83E
F83E
F83E
F83E
F83E
F83E
F83E
F83E
7C7C
7FFC
3FF8
0FE0
ENDCHAR
STARTCHAR uring
ENCODING 367
SWIDTH 693 0
DWIDTH 17 0
BBX 13 18 2 0
BITMAP
0300
0480
0480
0300
0000
F8F8
F8F8
F8F8
F8F8
F8F8
F8F8
F8F8
F8F8
F8F8
F9F8
FFF8
7EF8
3CF8
ENDCHAR
STARTCHAR Uhungarumlaut
ENCODING 368
SWIDTH 783 0
DWIDTH 19 0
BBX 15 21 2 0
BITMAP
03B8
0760
0EC0
0000
F83E
F83E
F83E
F83E
F83E
F83E
F83E
F83E
F83E
F83E
F83E
F83E
F83E
7C7C
7FFC
3FF8
0FE0
ENDCHAR
STARTCHAR uhungarumlaut
ENCODING 369
SWIDTH 693 0
DWIDTH 17 0
BBX 13 17 2 0
BITMAP
0770
0EC0
1D80
0000
F8F8
F8F8
F8F8
F8F8
F8F8
F8F8
F8F8
F8F8
F8F8
F9F8
FFF8
7EF8
3CF8
ENDCHAR
STARTCHAR Uogonek
ENCODING 370
SWIDTH 783 0
DWIDTH 19 0
BBX 15 21 2 -4
BITMAP
F83E
F83E
F83E
F83E
F83E
F83E
F83E
F83E
F83E
F83E
F83E
F83E
F83E
7C7C
7FFC
3FF8
0FE0
0000
0380
0700
03C0
ENDCHAR
STARTCHAR uogonek
ENCODING 371
SWIDTH 693 0
DWIDTH 17 0
BBX 13 17 2 -4
BITMAP
F8F8
F8F8
F8F8
F8F8
F8F8
F8F8
F8F8
F8F8
F8F8
F9F8
FFF8
7EF8
3CF8
0000
0700
0E00
0780
ENDCHAR
STARTCHAR Wcircumflex
ENCODING 372
SWIDTH 940 0
DWIDTH 23 0
BBX 22 21 0 0
BITMAP
00F800
01FC00
038E00
000000
F83C1C
F87C1C
F87C38
FC7C38
7C7E38
7CFE38
7CFE70
7EFE70
3EFE70
3FEF70
3FCFE0
3FCFE0
1FCFE0
1FCFE0
1F87C0
1F87C0
0F87C0
ENDCHAR
STARTCHAR wcircumflex
ENCODING 373
SWIDTH 885 0
DWIDTH 21 0
BBX 20 17 1 0
BITMAP
01F000
03F800
071C00
000000
F0F870
F8F870
78F8E0
79F8E0
79FCE0
7DFDC0
3DFDC0
3F9DC0
3F9FC0
3F9F80
1F1F80
1F0F80
1F0F80
ENDCHAR
STARTCHAR Ycircumflex
ENCODING 374
SWIDTH 738 0
DWIDTH 18 0
BBX 17 21 0 0
BITMAP
07C000
0FE000
1C7000
000000
FC0780
7C0700
7E0E00
3F1E00
3F1C00
1FBC00
0FF800
0FF000
07F000
07E000
03E000
03E000
03E000
03E000
03E000
03E000
03E000
ENDCHAR
STARTCHAR ycircumflex
ENCODING 375
SWIDTH 645 0
DWIDTH 15 0
BBX 15 22 0 -5
BITMAP
07C0
0FE0
1C70
0000
F81E
FC1C
7C3C
7E38
3E38
3E70
3F70
1FE0
1FE0
0FE0
0FC0
0FC0
0780
0780
0F00
0F00
1E00
3E00
ENDCHAR
STARTCHAR Ydieresis
ENCODING 376
SWIDTH 738 0
DWIDTH 18 0
BBX 17 21 0 0
BITMAP
073800
073800
073800
000000
FC0780
7C0700
7E0E00
3F1E00
3F1C00
1FBC00
0FF800
0FF000
07F000
07E000
03E000
03E000
03E000
03E000
03E000
03E000
03E000
ENDCHAR
STARTCHAR Zacute
ENCODING 377
SWIDTH 675 0
DWIDTH 16 0
BBX 13 21 1 0
BITMAP
01E0
0380
0700
0000
FFF8
FFF8
FFF8
01F8
03F0
03F0
07E0
0FC0
1FC0
1F80
3F00
7E00
7E00
FC00
FFF8
FFF8
FFF8
ENDCHAR
STARTCHAR zacute
ENCODING 378
SWIDTH 608 0
DWIDTH 15 0
BBX 12 17 1 0
BITMAP
03C0
0700
0E00
0000
FFF0
FFF0
FFF0
07F0
0FE0
1FC0
1F80
3F00
7F00
FE00
FFF0
FFF0
FFF0
ENDCHAR
STARTCHAR Zdotaccent
ENCODING 379
SWIDTH 675 0
DWIDTH 16 0
BBX 13 21 1 0
BITMAP
0700
0700
0700
0000
FFF8
FFF8
FFF8
01F8
03F0
03F0
07E0
0FC0
1FC0
1F80
3F00
7E00
7E00
FC00
FFF8
FFF8
FFF8
ENDCHAR
STARTCHAR zdotaccent
ENCODING 380
SWIDTH 608 0
DWIDTH 15 0
BBX 12 17 1 0
BITMAP
0700
0700
0700
0000
FFF0
FFF0
FFF0
07F0
0FE0
1FC0
1F80
3F00
7F00
FE00
FFF0
FFF0
FFF0
ENDCHAR
STARTCHAR Zcaron
ENCODING 381
SWIDTH 675 0
DWIDTH 16 0
BBX 13 21 1 0
BITMAP
1C70
0FE0
07C0
0000
FFF8
FFF8
FFF8
01F8
03F0
03F0
07E0
0FC0
1FC0
1F80
3F00
7E00
7E00
FC00
FFF8
FFF8
FFF8
ENDCHAR
STARTCHAR zcaron
ENCODING 382
SWIDTH 608 0
DWIDTH 15 0
BBX 12 17 1 0
BITMAP
38E0
1FC0
0F80
0000
FFF0
FFF0
FFF0
07F0
0FE0
1FC0
1F80
3F00
7F00
FE00
FFF0
FFF0
FFF0
ENDCHAR
STARTCHAR uni0186
ENCODING 390
SWIDTH 726 0
DWIDTH 17 0
BBX 16 17 1 0
BITMAP
3FC0
FFF0
FFFC
80FE
007E
003F
001F
001F
001F
001F
001F
003F
003E
C0FE
FFFC
FFF0
7FC0
ENDCHAR
STARTCHAR uni0189
ENCODING 393
SWIDTH 819 0
DWIDTH 20 0
BBX 19 17 0 0
BITMAP
3FFC00
3FFF00
3FFF80
3E1FC0
3E07C0
3E07E0
3E03E0
FFC3E0
FFC3E0
FFC3E0
3E03E0
3E03E0
3E07C0
3E0FC0
3FFF80
3FFF00
3FFC00
ENDCHAR
STARTCHAR uni018E
ENCODING 398
SWIDTH 645 0
DWIDTH 15 0
BBX 13 17 2 0
BITMAP
FFF8
FFF8
FFF8
00F8
00F8
00F8
00F8
3FF8
3FF8
3FF8
00F8
00F8
00F8
00F8
7FF8
7FF8
7FF8
ENDCHAR
STARTCHAR florin
ENCODING 402
SWIDTH 687 0
DWIDTH 16 0
BBX 13 21 3 -4
BITMAP
01F8
07F8
07F8
0F00
0F00
1F00
1E00
7F80
7F80
7F80
3E00
3E00
3C00
3C00
7C00
7C00
7C00
7800
7800
F800
F800
ENDCHAR
STARTCHAR uni0197
ENCODING 407
SWIDTH 361 0
DWIDTH 9 0
BBX 5 17 2 0
BITMAP
F8
F8
F8
F8
F8
F8
F8
F8
F8
F8
F8
F8
F8
F8
F8
F8
F8
ENDCHAR
STARTCHAR uni019A
ENCODING 410
SWIDTH 361 0
DWIDTH 9 0
BBX 5 18 2 0
BITMAP
F8
F8
F8
F8
F8
F8
F8
F8
F8
F8
F8
F8
F8
F8
F8
F8
F8
F8
ENDCHAR
STARTCHAR uni019D
ENCODING 413
SWIDTH 783 0
DWIDTH 19 0
BBX 19 22 -2 -5
BITMAP
0F00E0
0F80E0
0FC0E0
0FE0E0
0FF0E0
0FF0E0
0FF8E0
0EFCE0
0EFEE0
0E7EE0
0E3FE0
0F9FE0
0F8FE0
0F8FE0
0F87E0
0F83E0
0F81E0
0F8000
0F8000
FF8000
FF0000
FE0000
ENDCHAR
STARTCHAR uni019F
ENCODING 415
SWIDTH 855 0
DWIDTH 21 0
BBX 19 17 1 0
BITMAP
03F800
0FFE00
3FFF80
7E0FC0
7C07C0
FC07E0
F803E0
FFFFE0
FFFFE0
FFFFE0
F803E0
FC07E0
7C07C0
7E0FC0
3FFF80
0FFE00
03F800
ENDCHAR
STARTCHAR Ohorn
ENCODING 416
SWIDTH 855 0
DWIDTH 21 0
BBX 22 17 1 0
BITMAP
03F87C
0FFE7C
3FFFFC
7E0FFC
7C07FC
FC07FC
F803F8
F803E0
F803E0
F803E0
F803E0
FC07E0
7C07C0
7E0FC0
3FFF80
0FFE00
03F800
ENDCHAR
STARTCHAR ohorn
ENCODING 417
SWIDTH 675 0
DWIDTH 16 0
BBX 18 13 1 0
BITMAP
0FC7C0
3FF7C0
7FFFC0
7CFFC0
F87FC0
F87DC0
F87F80
F87E00
F87C00
7CF800
7FF800
3FF000
0FC000
ENDCHAR
STARTCHAR uni01A7
ENCODING 423
SWIDTH 594 0
DWIDTH 14 0
BBX 13 17 1 0
BITMAP
7FC0
7FF0
7FF0
60F8
00F8
03F8
07F8
1FF0
7FE0
7FC0
FF00
FC00
F800
FC18
7FF8
3FF8
0FF8
ENDCHAR
STARTCHAR uni01A8
ENCODING 424
SWIDTH 622 0
DWIDTH 15 0
BBX 12 13 2 0
BITMAP
3FC0
7FE0
7FF0
41F0
01F0
0FF0
3FC0
FF00
F800
F830
FFF0
7FF0
1FE0
ENDCHAR
STARTCHAR uni01AE
ENCODING 430
SWIDTH 735 0
DWIDTH 18 0
BBX 17 22 0 -5
BITMAP
FFFF80
FFFF80
FFFF80
03E000
03E000
03E000
03E000
03E000
03E000
03E000
03E000
03E000
03E000
03E000
03E000
03E000
03E000
03E000
03E000
03FE00
01FE00
00FE00
ENDCHAR
STARTCHAR Uhorn
ENCODING 431
SWIDTH 783 0
DWIDTH 19 0
BBX 19 17 2 0
BITMAP
F83FE0
F83FE0
F83FE0
F83FE0
F83FE0
F83EE0
F83FC0
F83F00
F83E00
F83E00
F83E00
F83E00
F83E00
7C7C00
7FFC00
3FF800
0FE000
ENDCHAR
STARTCHAR uhorn
ENCODING 432
SWIDTH 693 0
DWIDTH 17 0
BBX 17 13 2 0
BITMAP
F8FF80
F8FF80
F8FF80
F8FF80
F8FF80
F8FB80
F8FF00
F8FC00
F8F800
F9F800
FFF800
7EF800
3CF800
ENDCHAR
STARTCHAR uni01B5
ENCODING 437
SWIDTH 675 0
DWIDTH 16 0
BBX 13 17 1 0
BITMAP
FFF8
FFF8
FFF8
01F8
03F0
03F0
07E0
0FC0
1FC0
1F80
3F00
7E00
7E00
FC00
FFF8
FFF8
FFF8
ENDCHAR
STARTCHAR uni01B6
ENCODING 438
SWIDTH 608 0
DWIDTH 15 0
BBX 12 13 1 0
BITMAP
FFF0
FFF0
FFF0
07F0
0FE0
1FC0
1F80
3F80
7F00
FE00
FFF0
FFF0
FFF0
ENDCHAR
STARTCHAR uni01BB
ENCODING 443
SWIDTH 687 0
DWIDTH 16 0
BBX 13 17 1 0
BITMAP
3FC0
FFE0
FFF0
C1F8
00F8
00F8
00F8
FFF8
FFF8
FFF8
0F80
1F00
7C00
F800
FFF8
FFF8
FFF8
ENDCHAR
STARTCHAR uni01BC
ENCODING 444
SWIDTH 687 0
DWIDTH 16 0
BBX 12 17 3 0
BITMAP
FFF0
FFF0
FFF0
E000
E000
E000
FE00
FFC0
FFE0
07E0
01F0
01F0
01F0
83F0
FFE0
FFC0
7F00
ENDCHAR
STARTCHAR uni01C0
ENCODING 448
SWIDTH 265 0
DWIDTH 6 0
BBX 3 22 2 -4
BITMAP
E0
E0
E0
E0
E0
E0
E0
E0
E0
E0
E0
E0
E0
E0
E0
E0
E0
E0
E0
E0
E0
E0
ENDCHAR
STARTCHAR uni01C2
ENCODING 450
SWIDTH 687 0
DWIDTH 16 0
BBX 14 22 1 -4
BITMAP
0380
0380
0380
0380
0380
0380
0380
FFFC
FFFC
FFFC
0380
0380
0380
FFFC
FFFC
FFFC
0380
0380
0380
0380
0380
0380
ENDCHAR
STARTCHAR uni01C3
ENCODING 451
SWIDTH 265 0
DWIDTH 8 0
BBX 5 17 2 0
BITMAP
F8
F8
F8
F8
F8
F8
F8
F8
70
70
70
70
00
00
F8
F8
F8
ENDCHAR
STARTCHAR uni01CD
ENCODING 461
SWIDTH 773 0
DWIDTH 19 0
BBX 18 21 0 0
BITMAP
071C00
03F800
01F000
000000
03F000
03F000
03F800
07F800
07F800
07FC00
0E7C00
0E7E00
1E3E00
1C3E00
1FFF00
3FFF00
3FFF80
780F80
700F80
7007C0
E007C0
ENDCHAR
STARTCHAR uni01CE
ENCODING 462
SWIDTH 623 0
DWIDTH 15 0
BBX 13 17 1 0
BITMAP
38E0
1FC0
0F80
0000
3F80
7FE0
7FF0
41F0
01F0
3FF0
7FF0
FFF0
F9F0
F9F0
FFF8
7FF8
3CF8
ENDCHAR
STARTCHAR uni01CF
ENCODING 463
SWIDTH 361 0
DWIDTH 9 0
BBX 9 21 0 0
BITMAP
E380
7F00
3E00
0000
3E00
3E00
3E00
3E00
3E00
3E00
3E00
3E00
3E00
3E00
3E00
3E00
3E00
3E00
3E00
3E00
3E00
ENDCHAR
STARTCHAR uni01D0
ENCODING 464
SWIDTH 361 0
DWIDTH 9 0
BBX 9 17 0 0
BITMAP
E380
7F00
3E00
0000
3E00
3E00
3E00
3E00
3E00
3E00
3E00
3E00
3E00
3E00
3E00
3E00
3E00
ENDCHAR
STARTCHAR uni01D1
ENCODING 465
SWIDTH 855 0
DWIDTH 21 0
BBX 19 21 1 0
BITMAP
071C00
03F800
01F000
000000
03F800
0FFE00
3FFF80
7E0FC0
7C07C0
FC07E0
F803E0
F803E0
F803E0
F803E0
F803E0
FC07E0
7C07C0
7E0FC0
3FFF80
0FFE00
03F800
ENDCHAR
STARTCHAR uni01D2
ENCODING 466
SWIDTH 675 0
DWIDTH 16 0
BBX 14 17 1 0
BITMAP
1C70
0FE0
07C0
0000
0FC0
3FF0
7FF8
7CF8
F87C
F87C
F87C
F87C
F87C
7CF8
7FF8
3FF0
0FC0
ENDCHAR
STARTCHAR uni01D3
ENCODING 467
SWIDTH 783 0
DWIDTH 19 0
BBX 15 21 2 0
BITMAP
1C70
0FE0
07C0
0000
F83E
F83E
F83E
F83E
F83E
F83E
F83E
F83E
F83E
F83E
F83E
F83E
F83E
7C7C
7FFC
3FF8
0FE0
ENDCHAR
STARTCHAR uni01D4
ENCODING 468
SWIDTH 693 0
DWIDTH 17 0
BBX 13 17 2 0
BITMAP
38E0
1FC0
0F80
0000
F8F8
F8F8
F8F8
F8F8
F8F8
F8F8
F8F8
F8F8
F8F8
F9F8
FFF8
7EF8
3CF8
ENDCHAR
STARTCHAR uni01D5
ENCODING 469
SWIDTH 783 0
DWIDTH 19 0
BBX 15 25 2 0
BITMAP
0FF0
0FF0
0FF0
0000
0E70
0E70
0E70
0000
F83E
F83E
F83E
F83E
F83E
F83E
F83E
F83E
F83E
F83E
F83E
F83E
F83E
7C7C
7FFC
3FF8
0FE0
ENDCHAR
STARTCHAR uni01D6
ENCODING 470
SWIDTH 693 0
DWIDTH 17 0
BBX 13 21 2 0
BITMAP
1FE0
1FE0
1FE0
0000
1CE0
1CE0
1CE0
0000
F8F8
F8F8
F8F8
F8F8
F8F8
F8F8
F8F8
F8F8
F8F8
F9F8
FFF8
7EF8
3CF8
ENDCHAR
STARTCHAR uni01D7
ENCODING 471
SWIDTH 783 0
DWIDTH 19 0
BBX 15 25 2 0
BITMAP
00F0
01C0
0380
0000
0E70
0E70
0E70
0000
F83E
F83E
F83E
F83E
F83E
F83E
F83E
F83E
F83E
F83E
F83E
F83E
F83E
7C7C
7FFC
3FF8
0FE0
ENDCHAR
STARTCHAR uni01D8
ENCODING 472
SWIDTH 693 0
DWIDTH 17 0
BBX 13 21 2 0
BITMAP
01E0
0380
0700
0000
1CE0
1CE0
1CE0
0000
F8F8
F8F8
F8F8
F8F8
F8F8
F8F8
F8F8
F8F8
F8F8
F9F8
FFF8
7EF8
3CF8
ENDCHAR
STARTCHAR uni01D9
ENCODING 473
SWIDTH 783 0
DWIDTH 19 0
BBX 15 25 2 0
BITMAP
1C70
0FE0
07C0
0000
0E70
0E70
0E70
0000
F83E
F83E
F83E
F83E
F83E
F83E
F83E
F83E
F83E
F83E
F83E
F83E
F83E
7C7C
7FFC
3FF8
0FE0
ENDCHAR
STARTCHAR uni01DA
ENCODING 474
SWIDTH 693 0
DWIDTH 17 0
BBX 13 21 2 0
BITMAP
38E0
1FC0
0F80
0000
1CE0
1CE0
1CE0
0000
F8F8
F8F8
F8F8
F8F8
F8F8
F8F8
F8F8
F8F8
F8F8
F9F8
FFF8
7EF8
3CF8
ENDCHAR
STARTCHAR uni01DB
ENCODING 475
SWIDTH 783 0
DWIDTH 19 0
BBX 15 25 2 0
BITMAP
0F00
0380
01C0
0000
0E70
0E70
0E70
0000
F83E
F83E
F83E
F83E
F83E
F83E
F83E
F83E
F83E
F83E
F83E
F83E
F83E
7C7C
7FFC
3FF8
0FE0
ENDCHAR
STARTCHAR uni01DC
ENCODING 476
SWIDTH 693 0
DWIDTH 17 0
BBX 13 21 2 0
BITMAP
1E00
0700
0380
0000
1CE0
1CE0
1CE0
0000
F8F8
F8F8
F8F8
F8F8
F8F8
F8F8
F8F8
F8F8
F8F8
F9F8
FFF8
7EF8
3CF8
ENDCHAR
STARTCHAR uni01DD
ENCODING 477
SWIDTH 614 0
DWIDTH 15 0
BBX 13 13 1 0
BITMAP
7F80
FFE0
FFF0
81F0
00F8
FFF8
FFF8
FFF8
F8F8
78F0
7FF0
3FE0
1F80
ENDCHAR
STARTCHAR uni01DE
ENCODING 478
SWIDTH 773 0
DWIDTH 19 0
BBX 18 25 0 0
BITMAP
07F800
07F800
07F800
000000
073800
073800
073800
000000
03F000
03F000
03F800
07F800
07F800
07FC00
0E7C00
0E7E00
1E3E00
1C3E00
1FFF00
3FFF00
3FFF80
780F80
700F80
7007C0
E007C0
ENDCHAR
STARTCHAR uni01DF
ENCODING 479
SWIDTH 623 0
DWIDTH 15 0
BBX 13 21 1 0
BITMAP
1FE0
1FE0
1FE0
0000
1CE0
1CE0
1CE0
0000
3F80
7FE0
7FF0
41F0
01F0
3FF0
7FF0
FFF0
F9F0
F9F0
FFF8
7FF8
3CF8
ENDCHAR
STARTCHAR uni01E0
ENCODING 480
SWIDTH 773 0
DWIDTH 19 0
BBX 18 25 0 0
BITMAP
07F800
07F800
07F800
000000
00E000
00E000
00E000
000000
03F000
03F000
03F800
07F800
07F800
07FC00
0E7C00
0E7E00
1E3E00
1C3E00
1FFF00
3FFF00
3FFF80
780F80
700F80
7007C0
E007C0
ENDCHAR
STARTCHAR uni01E1
ENCODING 481
SWIDTH 623 0
DWIDTH 15 0
BBX 13 21 1 0
BITMAP
3FC0
3FC0
3FC0
0000
0700
0700
0700
0000
3F80
7FE0
7FF0
41F0
01F0
3FF0
7FF0
FFF0
F9F0
F9F0
FFF8
7FF8
3CF8
ENDCHAR
STARTCHAR uni01E2
ENCODING 482
SWIDTH 997 0
DWIDTH 24 0
BBX 23 21 0 0
BITMAP
007F80
007F80
007F80
000000
003FFC
007FFC
00FFFC
00FE00
01FE00
01FE00
03BE00
03BFF8
073FF8
0F3FF8
0F3E00
1FFE00
1FFE00
3FFE00
383FFE
703FFE
E03FFE
ENDCHAR
STARTCHAR uni01E3
ENCODING 483
SWIDTH 913 0
DWIDTH 22 0
BBX 20 17 1 0
BITMAP
03FC00
03FC00
03FC00
000000
3F0F80
7FFFC0
7FFFE0
41F1E0
00F1F0
1FFFF0
7FFFF0
FFFFF0
F8F000
F9F810
FFFFF0
7F3FF0
3C1FE0
ENDCHAR
STARTCHAR uni01E4
ENCODING 484
SWIDTH 759 0
DWIDTH 18 0
BBX 16 17 1 0
BITMAP
03FF
0FFF
3FFF
3F03
7C00
FC00
F800
F800
F81F
F81F
F81F
FC1F
7C1F
7F1F
3FFF
0FFF
03FE
ENDCHAR
STARTCHAR uni01E5
ENCODING 485
SWIDTH 696 0
DWIDTH 17 0
BBX 14 18 1 -5
BITMAP
1F3C
3FFC
7FFC
7CFC
F87C
F87C
F87C
F87C
F87C
FCFC
7FFC
FFFC
FFFC
FFFC
20FC
7FF8
7FF0
1FC0
ENDCHAR
STARTCHAR Gcaron
ENCODING 486
SWIDTH 759 0
DWIDTH 18 0
BBX 16 21 1 0
BITMAP
0E38
07F0
03E0
0000
03FF
0FFF
3FFF
3F03
7C00
FC00
F800
F800
F81F
F81F
F81F
FC1F
7C1F
7F1F
3FFF
0FFF
03FE
ENDCHAR
STARTCHAR gcaron
ENCODING 487
SWIDTH 696 0
DWIDTH 17 0
BBX 14 22 1 -5
BITMAP
1C70
0FE0
07C0
0000
1F3C
3FFC
7FFC
7CFC
F87C
F87C
F87C
F87C
F87C
FCFC
7FFC
7F7C
1E7C
007C
20FC
7FF8
7FF0
1FC0
ENDCHAR
STARTCHAR uni01E8
ENCODING 488
SWIDTH 753 0
DWIDTH 18 0
BBX 16 21 2 0
BITMAP
38E0
1FC0
0F80
0000
F81E
F83C
F878
F8F0
F8E0
F9E0
FBC0
FFC0
FFC0
FFE0
FBF0
FBF0
F9F8
F8FC
F8FE
F87E
F83F
ENDCHAR
STARTCHAR uni01E9
ENCODING 489
SWIDTH 681 0
DWIDTH 16 0
BBX 14 22 2 0
BITMAP
E380
7F00
3E00
0000
F800
F800
F800
F800
F800
F878
F8F0
F8E0
F9C0
FBC0
FBC0
FFC0
FFE0
FBF0
FBF0
F9F8
F8F8
F8FC
ENDCHAR
STARTCHAR uni01EA
ENCODING 490
SWIDTH 855 0
DWIDTH 21 0
BBX 19 21 1 -4
BITMAP
03F800
0FFE00
3FFF80
7E0FC0
7C07C0
FC07E0
F803E0
F803E0
F803E0
F803E0
F803E0
FC07E0
7C07C0
7E0FC0
3FFF80
0FFE00
03F800
000000
00E000
01C000
00F000
ENDCHAR
STARTCHAR uni01EB
ENCODING 491
SWIDTH 675 0
DWIDTH 16 0
BBX 14 17 1 -4
BITMAP
0FC0
3FF0
7FF8
7CF8
F87C
F87C
F87C
F87C
F87C
7CF8
7FF8
3FF0
0FC0
0000
0380
0700
03C0
ENDCHAR
STARTCHAR uni01EC
ENCODING 492
SWIDTH 855 0
DWIDTH 21 0
BBX 19 25 1 -4
BITMAP
03FC00
03FC00
03FC00
000000
03F800
0FFE00
3FFF80
7E0FC0
7C07C0
FC07E0
F803E0
F803E0
F803E0
F803E0
F803E0
FC07E0
7C07C0
7E0FC0
3FFF80
0FFE00
03F800
000000
00E000
01C000
00F000
ENDCHAR
STARTCHAR uni01ED
ENCODING 493
SWIDTH 675 0
DWIDTH 16 0
BBX 14 21 1 -4
BITMAP
1FE0
1FE0
1FE0
0000
0FC0
3FF0
7FF8
7CF8
F87C
F87C
F87C
F87C
F87C
7CF8
7FF8
3FF0
0FC0
0000
0380
0700
03C0
ENDCHAR
STARTCHAR uni01F0
ENCODING 496
SWIDTH 361 0
DWIDTH 9 0
BBX 10 22 -1 -5
BITMAP
71C0
3F80
1F00
0000
0F80
0F80
0F80
0F80
0F80
0F80
0F80
0F80
0F80
0F80
0F80
0F80
0F80
0F80
0F80
FF80
FF00
FE00
ENDCHAR
STARTCHAR uni01F4
ENCODING 500
SWIDTH 759 0
DWIDTH 18 0
BBX 16 21 1 0
BITMAP
0078
00E0
01C0
0000
03FF
0FFF
3FFF
3F03
7C00
FC00
F800
F800
F81F
F81F
F81F
FC1F
7C1F
7F1F
3FFF
0FFF
03FE
ENDCHAR
STARTCHAR uni01F5
ENCODING 501
SWIDTH 696 0
DWIDTH 17 0
BBX 14 22 1 -5
BITMAP
01E0
0380
0700
0000
1F3C
3FFC
7FFC
7CFC
F87C
F87C
F87C
F87C
F87C
FCFC
7FFC
7F7C
1E7C
007C
20FC
7FF8
7FF0
1FC0
ENDCHAR
STARTCHAR uni01F8
ENCODING 504
SWIDTH 783 0
DWIDTH 19 0
BBX 15 21 2 0
BITMAP
1E00
0700
0380
0000
F00E
F80E
FC0E
FE0E
FF0E
FF0E
FF8E
EFCE
EFEE
E7EE
E3FE
E1FE
E1FE
E0FE
E07E
E03E
E01E
ENDCHAR
STARTCHAR uni01F9
ENCODING 505
SWIDTH 693 0
DWIDTH 17 0
BBX 13 17 2 0
BITMAP
3C00
0E00
0700
0000
F9E0
FBF0
FFF8
FFF8
FCF8
F8F8
F8F8
F8F8
F8F8
F8F8
F8F8
F8F8
F8F8
ENDCHAR
STARTCHAR Aringacute
ENCODING 506
SWIDTH 773 0
DWIDTH 19 0
BBX 18 26 0 0
BITMAP
007800
00E000
01C000
000000
00C000
012000
012000
00C000
000000
03F000
03F000
03F800
07F800
07F800
07FC00
0E7C00
0E7E00
1E3E00
1C3E00
1FFF00
3FFF00
3FFF80
780F80
700F80
7007C0
E007C0
ENDCHAR
STARTCHAR aringacute
ENCODING 507
SWIDTH 623 0
DWIDTH 15 0
BBX 13 22 1 0
BITMAP
03C0
0700
0E00
0000
0600
0900
0900
0600
0000
3F80
7FE0
7FF0
41F0
01F0
3FF0
7FF0
FFF0
F9F0
F9F0
FFF8
7FF8
3CF8
ENDCHAR
STARTCHAR AEacute
ENCODING 508
SWIDTH 997 0
DWIDTH 24 0
BBX 23 21 0 0
BITMAP
000780
000E00
001C00
000000
003FFC
007FFC
00FFFC
00FE00
01FE00
01FE00
03BE00
03BFF8
073FF8
0F3FF8
0F3E00
1FFE00
1FFE00
3FFE00
383FFE
703FFE
E03FFE
ENDCHAR
STARTCHAR aeacute
ENCODING 509
SWIDTH 913 0
DWIDTH 22 0
BBX 20 17 1 0
BITMAP
003C00
007000
00E000
000000
3F0F80
7FFFC0
7FFFE0
41F1E0
00F1F0
1FFFF0
7FFFF0
FFFFF0
F8F000
F9F810
FFFFF0
7F3FF0
3C1FE0
ENDCHAR
STARTCHAR Oslashacute
ENCODING 510
SWIDTH 855 0
DWIDTH 21 0
BBX 19 21 1 0
BITMAP
003C00
007000
00E000
000000
03F9E0
0FFFC0
3FFF80
7E0FC0
7C1FC0
FC3FE0
F87BE0
F8F3E0
F9F3E0
F9E3E0
FBC3E0
FF87E0
7F07C0
7E0FC0
3FFF80
7FFE00
F3F800
ENDCHAR
STARTCHAR oslashacute
ENCODING 511
SWIDTH 675 0
DWIDTH 16 0
BBX 15 17 1 0
BITMAP
00F0
01C0
0380
0000
0FDE
3FFC
7FF8
7CF8
F9FC
FBFC
FFFC
FFFC
FF7C
7EF8
7FF8
7FF0
FFC0
ENDCHAR
STARTCHAR uni0200
ENCODING 512
SWIDTH 773 0
DWIDTH 19 0
BBX 18 21 0 0
BITMAP
0EE000
037000
01B800
000000
03F000
03F000
03F800
07F800
07F800
07FC00
0E7C00
0E7E00
1E3E00
1C3E00
1FFF00
3FFF00
3FFF80
780F80
700F80
7007C0
E007C0
ENDCHAR
STARTCHAR uni0201
ENCODING 513
SWIDTH 623 0
DWIDTH 15 0
BBX 13 17 1 0
BITMAP
7700
1B80
0DC0
0000
3F80
7FE0
7FF0
41F0
01F0
3FF0
7FF0
FFF0
F9F0
F9F0
FFF8
7FF8
3CF8
ENDCHAR
STARTCHAR uni0202
ENCODING 514
SWIDTH 773 0
DWIDTH 19 0
BBX 18 21 0 0
BITMAP
01F000
03F800
071C00
000000
03F000
03F000
03F800
07F800
07F800
07FC00
0E7C00
0E7E00
1E3E00
1C3E00
1FFF00
3FFF00
3FFF80
780F80
700F80
7007C0
E007C0
ENDCHAR
STARTCHAR uni0203
ENCODING 515
SWIDTH 623 0
DWIDTH 15 0
BBX 13 17 1 0
BITMAP
0F80
1FC0
38E0
0000
3F80
7FE0
7FF0
41F0
01F0
3FF0
7FF0
FFF0
F9F0
F9F0
FFF8
7FF8
3CF8
ENDCHAR
STARTCHAR uni0204
ENCODING 516
SWIDTH 645 0
DWIDTH 15 0
BBX 13 21 2 0
BITMAP
EE00
3700
1B80
0000
FFF0
FFF0
FFF0
F800
F800
F800
F800
FFE0
FFE0
FFE0
F800
F800
F800
F800
FFF8
FFF8
FFF8
ENDCHAR
STARTCHAR uni0205
ENCODING 517
SWIDTH 614 0
DWIDTH 15 0
BBX 13 17 1 0
BITMAP
7700
1B80
0DC0
0000
0FC0
3FE0
7FF0
78F0
F8F8
FFF8
FFF8
FFF8
F800
7C08
7FF8
3FF8
0FF0
ENDCHAR
STARTCHAR uni0206
ENCODING 518
SWIDTH 645 0
DWIDTH 15 0
BBX 13 21 2 0
BITMAP
1F00
3F80
71C0
0000
FFF0
FFF0
FFF0
F800
F800
F800
F800
FFE0
FFE0
FFE0
F800
F800
F800
F800
FFF8
FFF8
FFF8
ENDCHAR
STARTCHAR uni0207
ENCODING 519
SWIDTH 614 0
DWIDTH 15 0
BBX 13 17 1 0
BITMAP
0F80
1FC0
38E0
0000
0FC0
3FE0
7FF0
78F0
F8F8
FFF8
FFF8
FFF8
F800
7C08
7FF8
3FF8
0FF0
ENDCHAR
STARTCHAR uni0208
ENCODING 520
SWIDTH 361 0
DWIDTH 9 0
BBX 9 21 -1 0
BITMAP
EE00
3700
1B80
0000
1F00
1F00
1F00
1F00
1F00
1F00
1F00
1F00
1F00
1F00
1F00
1F00
1F00
1F00
1F00
1F00
1F00
ENDCHAR
STARTCHAR uni0209
ENCODING 521
SWIDTH 361 0
DWIDTH 9 0
BBX 9 17 -1 0
BITMAP
EE00
3700
1B80
0000
1F00
1F00
1F00
1F00
1F00
1F00
1F00
1F00
1F00
1F00
1F00
1F00
1F00
ENDCHAR
STARTCHAR uni020A
ENCODING 522
SWIDTH 361 0
DWIDTH 9 0
BBX 9 21 0 0
BITMAP
3E00
7F00
E380
0000
3E00
3E00
3E00
3E00
3E00
3E00
3E00
3E00
3E00
3E00
3E00
3E00
3E00
3E00
3E00
3E00
3E00
ENDCHAR
STARTCHAR uni020B
ENCODING 523
SWIDTH 361 0
DWIDTH 9 0
BBX 9 17 0 0
BITMAP
3E00
7F00
E380
0000
3E00
3E00
3E00
3E00
3E00
3E00
3E00
3E00
3E00
3E00
3E00
3E00
3E00
ENDCHAR
STARTCHAR uni020C
ENCODING 524
SWIDTH 855 0
DWIDTH 21 0
BBX 19 21 1 0
BITMAP
0EE000
037000
01B800
000000
03F800
0FFE00
3FFF80
7E0FC0
7C07C0
FC07E0
F803E0
F803E0
F803E0
F803E0
F803E0
FC07E0
7C07C0
7E0FC0
3FFF80
0FFE00
03F800
ENDCHAR
STARTCHAR uni020D
ENCODING 525
SWIDTH 675 0
DWIDTH 16 0
BBX 14 17 1 0
BITMAP
7700
1B80
0DC0
0000
0FC0
3FF0
7FF8
7CF8
F87C
F87C
F87C
F87C
F87C
7CF8
7FF8
3FF0
0FC0
ENDCHAR
STARTCHAR uni020E
ENCODING 526
SWIDTH 855 0
DWIDTH 21 0
BBX 19 21 1 0
BITMAP
01F000
03F800
071C00
000000
03F800
0FFE00
3FFF80
7E0FC0
7C07C0
FC07E0
F803E0
F803E0
F803E0
F803E0
F803E0
FC07E0
7C07C0
7E0FC0
3FFF80
0FFE00
03F800
ENDCHAR
STARTCHAR uni020F
ENCODING 527
SWIDTH 675 0
DWIDTH 16 0
BBX 14 17 1 0
BITMAP
07C0
0FE0
1C70
0000
0FC0
3FF0
7FF8
7CF8
F87C
F87C
F87C
F87C
F87C
7CF8
7FF8
3FF0
0FC0
ENDCHAR
STARTCHAR uni0210
ENCODING 528
SWIDTH 734 0
DWIDTH 18 0
BBX 16 21 2 0
BITMAP
7700
1B80
0DC0
0000
FFC0
FFF0
FFF8
F8F8
F8F8
F8F8
F9F8
FFF0
FFE0
FFE0
FBF0
F9F0
F9F8
F8F8
F8FC
F87E
F87F
ENDCHAR
STARTCHAR uni0211
ENCODING 529
SWIDTH 500 0
DWIDTH 12 0
BBX 11 17 1 0
BITMAP
EE00
3700
1B80
0000
7CE0
7DE0
7FE0
7FE0
7E00
7C00
7C00
7C00
7C00
7C00
7C00
7C00
7C00
ENDCHAR
STARTCHAR uni0212
ENCODING 530
SWIDTH 734 0
DWIDTH 18 0
BBX 16 21 2 0
BITMAP
0F80
1FC0
38E0
0000
FFC0
FFF0
FFF8
F8F8
F8F8
F8F8
F9F8
FFF0
FFE0
FFE0
FBF0
F9F0
F9F8
F8F8
F8FC
F87E
F87F
ENDCHAR
STARTCHAR uni0213
ENCODING 531
SWIDTH 500 0
DWIDTH 12 0
BBX 10 17 2 0
BITMAP
3E00
7F00
E380
0000
F9C0
FBC0
FFC0
FFC0
FC00
F800
F800
F800
F800
F800
F800
F800
F800
ENDCHAR
STARTCHAR uni0214
ENCODING 532
SWIDTH 783 0
DWIDTH 19 0
BBX 15 21 2 0
BITMAP
3B80
0DC0
06E0
0000
F83E
F83E
F83E
F83E
F83E
F83E
F83E
F83E
F83E
F83E
F83E
F83E
F83E
7C7C
7FFC
3FF8
0FE0
ENDCHAR
STARTCHAR uni0215
ENCODING 533
SWIDTH 693 0
DWIDTH 17 0
BBX 13 17 2 0
BITMAP
7700
1B80
0DC0
0000
F8F8
F8F8
F8F8
F8F8
F8F8
F8F8
F8F8
F8F8
F8F8
F9F8
FFF8
7EF8
3CF8
ENDCHAR
STARTCHAR uni0216
ENCODING 534
SWIDTH 783 0
DWIDTH 19 0
BBX 15 21 2 0
BITMAP
07C0
0FE0
1C70
0000
F83E
F83E
F83E
F83E
F83E
F83E
F83E
F83E
F83E
F83E
F83E
F83E
F83E
7C7C
7FFC
3FF8
0FE0
ENDCHAR
STARTCHAR uni0217
ENCODING 535
SWIDTH 693 0
DWIDTH 17 0
BBX 13 17 2 0
BITMAP
0F80
1FC0
38E0
0000
F8F8
F8F8
F8F8
F8F8
F8F8
F8F8
F8F8
F8F8
F8F8
F9F8
FFF8
7EF8
3CF8
ENDCHAR
STARTCHAR Scommaaccent
ENCODING 536
SWIDTH 594 0
DWIDTH 14 0
BBX 13 27 1 -10
BITMAP
1FF0
7FF0
7FF0
F830
F800
FE00
FF00
7FC0
3FF0
1FF0
07F8
01F8
00F8
C1F8
FFF0
FFE0
FF80
0000
0F80
0F80
0F80
0F80
0F80
0380
0700
0F00
0C00
ENDCHAR
STARTCHAR scommaaccent
ENCODING 537
SWIDTH 622 0
DWIDTH 15 0
BBX 12 23 2 -10
BITMAP
3FC0
7FE0
FFE0
F820
F800
FF00
3FC0
0FF0
01F0
C1F0
FFF0
FFE0
7F80
0000
1F00
1F00
1F00
1F00
1F00
0700
0E00
1E00
1800
ENDCHAR
STARTCHAR Tcommaaccent
ENCODING 538
SWIDTH 735 0
DWIDTH 18 0
BBX 17 27 0 -10
BITMAP
FFFF80
FFFF80
FFFF80
03E000
03E000
03E000
03E000
03E000
03E000
03E000
03E000
03E000
03E000
03E000
03E000
03E000
03E000
000000
03E000
03E000
03E000
03E000
03E000
00E000
01C000
03C000
030000
ENDCHAR
STARTCHAR tcommaaccent
ENCODING 539
SWIDTH 436 0
DWIDTH 10 0
BBX 9 26 1 -10
BITMAP
3C00
7C00
7C00
FF80
FF80
FF80
7C00
7C00
7C00
7C00
7C00
7C00
7C00
7F80
3F80
1F80
0000
3E00
3E00
3E00
3E00
3E00
0E00
1C00
3C00
3000
ENDCHAR
STARTCHAR uni021E
ENCODING 542
SWIDTH 813 0
DWIDTH 20 0
BBX 15 21 2 0
BITMAP
1C70
0FE0
07C0
0000
F83E
F83E
F83E
F83E
F83E
F83E
F83E
FFFE
FFFE
FFFE
F83E
F83E
F83E
F83E
F83E
F83E
F83E
ENDCHAR
STARTCHAR uni021F
ENCODING 543
SWIDTH 693 0
DWIDTH 17 0
BBX 14 22 1 0
BITMAP
E380
7F00
3E00
0000
7C00
7C00
7C00
7C00
7C00
7CF0
7DF8
7FFC
7FFC
7E7C
7C7C
7C7C
7C7C
7C7C
7C7C
7C7C
7C7C
7C7C
ENDCHAR
STARTCHAR uni0226
ENCODING 550
SWIDTH 773 0
DWIDTH 19 0
BBX 18 21 0 0
BITMAP
00E000
00E000
00E000
000000
03F000
03F000
03F800
07F800
07F800
07FC00
0E7C00
0E7E00
1E3E00
1C3E00
1FFF00
3FFF00
3FFF80
780F80
700F80
7007C0
E007C0
ENDCHAR
STARTCHAR uni0227
ENCODING 551
SWIDTH 623 0
DWIDTH 15 0
BBX 13 17 1 0
BITMAP
0700
0700
0700
0000
3F80
7FE0
7FF0
41F0
01F0
3FF0
7FF0
FFF0
F9F0
F9F0
FFF8
7FF8
3CF8
ENDCHAR
STARTCHAR uni0228
ENCODING 552
SWIDTH 645 0
DWIDTH 15 0
BBX 13 22 2 -5
BITMAP
FFF0
FFF0
FFF0
F800
F800
F800
F800
FFE0
FFE0
FFE0
F800
F800
F800
F800
FFF8
FFF8
FFF8
0600
0C00
0700
1F00
1E00
ENDCHAR
STARTCHAR uni0229
ENCODING 553
SWIDTH 614 0
DWIDTH 15 0
BBX 13 18 1 -5
BITMAP
0FC0
3FE0
7FF0
78F0
F8F8
FFF8
FFF8
FFF8
F800
7C08
7FF8
3FF8
0FF0
0300
0600
0380
0F80
0F00
ENDCHAR
STARTCHAR uni022A
ENCODING 554
SWIDTH 855 0
DWIDTH 21 0
BBX 19 25 1 0
BITMAP
03FC00
03FC00
03FC00
000000
039C00
039C00
039C00
000000
03F800
0FFE00
3FFF80
7E0FC0
7C07C0
FC07E0
F803E0
F803E0
F803E0
F803E0
F803E0
FC07E0
7C07C0
7E0FC0
3FFF80
0FFE00
03F800
ENDCHAR
STARTCHAR uni022B
ENCODING 555
SWIDTH 675 0
DWIDTH 16 0
BBX 14 21 1 0
BITMAP
1FE0
1FE0
1FE0
0000
1CE0
1CE0
1CE0
0000
0FC0
3FF0
7FF8
7CF8
F87C
F87C
F87C
F87C
F87C
7CF8
7FF8
3FF0
0FC0
ENDCHAR
STARTCHAR uni022C
ENCODING 556
SWIDTH 855 0
DWIDTH 21 0
BBX 19 25 1 0
BITMAP
03FC00
03FC00
03FC00
000000
03DC00
07FC00
077800
000000
03F800
0FFE00
3FFF80
7E0FC0
7C07C0
FC07E0
F803E0
F803E0
F803E0
F803E0
F803E0
FC07E0
7C07C0
7E0FC0
3FFF80
0FFE00
03F800
ENDCHAR
STARTCHAR uni022D
ENCODING 557
SWIDTH 675 0
DWIDTH 16 0
BBX 14 21 1 0
BITMAP
1FE0
1FE0
1FE0
0000
0F70
1FF0
1DE0
0000
0FC0
3FF0
7FF8
7CF8
F87C
F87C
F87C
F87C
F87C
7CF8
7FF8
3FF0
0FC0
ENDCHAR
STARTCHAR uni022E
ENCODING 558
SWIDTH 855 0
DWIDTH 21 0
BBX 19 21 1 0
BITMAP
00E000
00E000
00E000
000000
03F800
0FFE00
3FFF80
7E0FC0
7C07C0
FC07E0
F803E0
F803E0
F803E0
F803E0
F803E0
FC07E0
7C07C0
7E0FC0
3FFF80
0FFE00
03F800
ENDCHAR
STARTCHAR uni022F
ENCODING 559
SWIDTH 675 0
DWIDTH 16 0
BBX 14 17 1 0
BITMAP
0380
0380
0380
0000
0FC0
3FF0
7FF8
7CF8
F87C
F87C
F87C
F87C
F87C
7CF8
7FF8
3FF0
0FC0
ENDCHAR
STARTCHAR uni0230
ENCODING 560
SWIDTH 855 0
DWIDTH 21 0
BBX 19 25 1 0
BITMAP
03FC00
03FC00
03FC00
000000
00E000
00E000
00E000
000000
03F800
0FFE00
3FFF80
7E0FC0
7C07C0
FC07E0
F803E0
F803E0
F803E0
F803E0
F803E0
FC07E0
7C07C0
7E0FC0
3FFF80
0FFE00
03F800
ENDCHAR
STARTCHAR uni0231
ENCODING 561
SWIDTH 675 0
DWIDTH 16 0
BBX 14 21 1 0
BITMAP
1FE0
1FE0
1FE0
0000
0380
0380
0380
0000
0FC0
3FF0
7FF8
7CF8
F87C
F87C
F87C
F87C
F87C
7CF8
7FF8
3FF0
0FC0
ENDCHAR
STARTCHAR uni0232
ENCODING 562
SWIDTH 738 0
DWIDTH 18 0
BBX 17 21 0 0
BITMAP
0FF000
0FF000
0FF000
000000
FC0780
7C0700
7E0E00
3F1E00
3F1C00
1FBC00
0FF800
0FF000
07F000
07E000
03E000
03E000
03E000
03E000
03E000
03E000
03E000
ENDCHAR
STARTCHAR uni0233
ENCODING 563
SWIDTH 645 0
DWIDTH 15 0
BBX 15 22 0 -5
BITMAP
1FE0
1FE0
1FE0
0000
F81E
FC1C
7C3C
7E38
3E38
3E70
3F70
1FE0
1FE0
0FE0
0FC0
0FC0
0780
0780
0F00
0F00
1E00
3E00
ENDCHAR
STARTCHAR uni0250
ENCODING 592
SWIDTH 623 0
DWIDTH 15 0
BBX 13 13 1 0
BITMAP
F9E0
FFF0
FFF8
7CF8
7CF8
7FF8
7FF0
7FE0
7C00
7C10
7FF0
3FF0
0FE0
ENDCHAR
STARTCHAR uni0254
ENCODING 596
SWIDTH 545 0
DWIDTH 13 0
BBX 12 13 1 0
BITMAP
7F00
FFC0
FFE0
87E0
03F0
01F0
01F0
01F0
03F0
87E0
FFE0
FFC0
FF00
ENDCHAR
STARTCHAR uni0258
ENCODING 600
SWIDTH 614 0
DWIDTH 15 0
BBX 13 13 1 0
BITMAP
1F80
3FE0
7FF0
78F0
F8F8
FFF8
FFF8
FFF8
00F8
81F0
FFF0
FFE0
7F80
ENDCHAR
STARTCHAR uni0259
ENCODING 601
SWIDTH 614 0
DWIDTH 15 0
BBX 13 13 1 0
BITMAP
7F80
FFE0
FFF0
81F0
00F8
FFF8
FFF8
FFF8
F8F8
78F0
7FF0
3FE0
1F80
ENDCHAR
STARTCHAR uni025F
ENCODING 607
SWIDTH 461 0
DWIDTH 11 0
BBX 11 18 0 -5
BITMAP
0F80
0F80
0F80
0F80
0F80
0F80
0F80
0F80
0F80
0F80
7FE0
7FE0
7FE0
0F80
0F80
FF80
FF00
FE00
ENDCHAR
STARTCHAR uni0265
ENCODING 613
SWIDTH 693 0
DWIDTH 17 0
BBX 13 18 2 -5
BITMAP
F8F8
F8F8
F8F8
F8F8
F8F8
F8F8
F8F8
F8F8
F9F8
FFF8
FFF8
7EF8
3CF8
00F8
00F8
00F8
00F8
00F8
ENDCHAR
STARTCHAR uni0275
ENCODING 629
SWIDTH 675 0
DWIDTH 16 0
BBX 14 13 1 0
BITMAP
0FC0
3FF0
7FF8
7CF8
F87C
FFFC
FFFC
FFFC
F87C
7CF8
7FF8
3FF0
0FC0
ENDCHAR
STARTCHAR uni0279
ENCODING 633
SWIDTH 500 0
DWIDTH 12 0
BBX 10 13 2 0
BITMAP
07C0
07C0
07C0
07C0
07C0
07C0
07C0
07C0
0FC0
FFC0
FFC0
F7C0
E7C0
ENDCHAR
STARTCHAR uni0287
ENCODING 647
SWIDTH 436 0
DWIDTH 10 0
BBX 9 16 1 0
BITMAP
FC00
FE00
FF00
1F00
1F00
1F00
1F00
1F00
1F00
1F00
FF80
FF80
FF80
1F00
1F00
1E00
ENDCHAR
STARTCHAR uni0288
ENCODING 648
SWIDTH 436 0
DWIDTH 10 0
BBX 10 21 1 -5
BITMAP
3C00
7C00
7C00
FF80
FF80
FF80
7C00
7C00
7C00
7C00
7C00
7C00
7C00
7C00
7C00
7C00
7C00
7C00
7FC0
3FC0
1FC0
ENDCHAR
STARTCHAR uni0289
ENCODING 649
SWIDTH 693 0
DWIDTH 17 0
BBX 13 13 2 0
BITMAP
F8F8
F8F8
F8F8
F8F8
F8F8
FFF8
FFF8
FFF8
F8F8
F9F8
FFF8
7EF8
3CF8
ENDCHAR
STARTCHAR uni028C
ENCODING 652
SWIDTH 663 0
DWIDTH 16 0
BBX 15 13 0 0
BITMAP
07C0
0FE0
0FE0
0FE0
1FF0
1DF0
3DF8
38F8
38F8
78FC
707C
707E
E03E
ENDCHAR
STARTCHAR uni028D
ENCODING 653
SWIDTH 885 0
DWIDTH 21 0
BBX 20 13 1 0
BITMAP
1F0F80
1F0F80
1F8F80
1F9FC0
3F9FC0
3B9FC0
3BFBC0
3BFBE0
73F9E0
71F9E0
71F1E0
E1F1F0
E1F0F0
ENDCHAR
STARTCHAR uni028E
ENCODING 654
SWIDTH 645 0
DWIDTH 15 0
BBX 15 18 0 0
BITMAP
00F8
00F0
01E0
01E0
03C0
03C0
07E0
07E0
0FE0
0FF0
0FF0
1DF8
1CF8
38F8
38FC
787C
707E
F03E
ENDCHAR
STARTCHAR uni029E
ENCODING 670
SWIDTH 681 0
DWIDTH 16 0
BBX 14 18 2 -5
BITMAP
FC7C
7C7C
7E7C
3F7C
3F7C
1FFC
0FFC
0F7C
0F7C
0E7C
1C7C
3C7C
787C
007C
007C
007C
007C
007C
ENDCHAR
STARTCHAR uni02BB
ENCODING 699
SWIDTH 265 0
DWIDTH 6 0
BBX 5 8 1 10
BITMAP
18
78
E0
F8
F8
F8
F8
F8
ENDCHAR
STARTCHAR afii57929
ENCODING 700
SWIDTH 265 0
DWIDTH 6 0
BBX 5 8 1 10
BITMAP
F8
F8
F8
F8
F8
38
F0
C0
ENDCHAR
STARTCHAR afii64937
ENCODING 701
SWIDTH 265 0
DWIDTH 6 0
BBX 5 8 1 10
BITMAP
F8
F8
F8
F8
F8
E0
78
18
ENDCHAR
STARTCHAR circumflex
ENCODING 710
SWIDTH 675 0
DWIDTH 16 0
BBX 9 3 4 15
BITMAP
3E00
7F00
E380
ENDCHAR
STARTCHAR caron
ENCODING 711
SWIDTH 675 0
DWIDTH 16 0
BBX 9 3 4 15
BITMAP
E380
7F00
3E00
ENDCHAR
STARTCHAR uni02C8
ENCODING 712
SWIDTH 265 0
DWIDTH 6 0
BBX 5 8 1 10
BITMAP
F8
F8
F8
F8
70
70
70
70
ENDCHAR
STARTCHAR macron
ENCODING 713
SWIDTH 675 0
DWIDTH 16 0
BBX 8 3 4 14
BITMAP
FF
FF
FF
ENDCHAR
STARTCHAR uni02CA
ENCODING 714
SWIDTH 675 0
DWIDTH 16 0
BBX 6 3 6 15
BITMAP
3C
70
E0
ENDCHAR
STARTCHAR uni02CB
ENCODING 715
SWIDTH 675 0
DWIDTH 16 0
BBX 6 3 4 15
BITMAP
F0
38
1C
ENDCHAR
STARTCHAR uni02CD
ENCODING 717
SWIDTH 675 0
DWIDTH 16 0
BBX 8 3 4 -4
BITMAP
FF
FF
FF
ENDCHAR
STARTCHAR uni02CE
ENCODING 718
SWIDTH 675 0
DWIDTH 16 0
BBX 6 3 4 -4
BITMAP
F0
38
1C
ENDCHAR
STARTCHAR uni02CF
ENCODING 719
SWIDTH 675 0
DWIDTH 16 0
BBX 6 3 6 -4
BITMAP
3C
70
E0
ENDCHAR
STARTCHAR breve
ENCODING 728
SWIDTH 675 0
DWIDTH 16 0
BBX 9 3 4 15
BITMAP
E380
7F00
3E00
ENDCHAR
STARTCHAR dotaccent
ENCODING 729
SWIDTH 675 0
DWIDTH 16 0
BBX 3 3 7 15
BITMAP
E0
E0
E0
ENDCHAR
STARTCHAR ring
ENCODING 730
SWIDTH 675 0
DWIDTH 16 0
BBX 4 4 6 14
BITMAP
60
90
90
60
ENDCHAR
STARTCHAR ogonek
ENCODING 731
SWIDTH 675 0
DWIDTH 16 0
BBX 5 3 6 -4
BITMAP
70
E0
78
ENDCHAR
STARTCHAR tilde
ENCODING 732
SWIDTH 675 0
DWIDTH 16 0
BBX 9 3 4 15
BITMAP
7B80
FF80
EF00
ENDCHAR
STARTCHAR hungarumlaut
ENCODING 733
SWIDTH 675 0
DWIDTH 16 0
BBX 9 3 5 15
BITMAP
3B80
7600
EC00
ENDCHAR
STARTCHAR uni02EE
ENCODING 750
SWIDTH 530 0
DWIDTH 13 0
BBX 11 8 1 10
BITMAP
FBE0
FBE0
FBE0
FBE0
FBE0
38E0
F3C0
C300
ENDCHAR
STARTCHAR uni037E
ENCODING 894
SWIDTH 343 0
DWIDTH 8 0
BBX 5 17 2 -4
BITMAP
F8
F8
F8
F8
F8
00
00
00
F8
F8
F8
F8
F8
38
70
F0
C0
ENDCHAR
STARTCHAR tonos
ENCODING 900
SWIDTH 675 0
DWIDTH 16 0
BBX 6 3 6 15
BITMAP
3C
70
E0
ENDCHAR
STARTCHAR dieresistonos
ENCODING 901
SWIDTH 675 0
DWIDTH 16 0
BBX 8 7 4 14
BITMAP
0F
1C
38
00
E7
E7
E7
ENDCHAR
STARTCHAR anoteleia
ENCODING 903
SWIDTH 343 0
DWIDTH 16 0
BBX 3 3 7 6
BITMAP
E0
E0
E0
ENDCHAR
STARTCHAR mu
ENCODING 956
SWIDTH 699 0
DWIDTH 17 0
BBX 13 17 2 -4
BITMAP
F8F8
F8F8
F8F8
F8F8
F8F8
F8F8
F8F8
F8F8
F8F8
F9F8
FFF8
FFF8
FEF8
F800
F800
F800
F800
ENDCHAR
STARTCHAR uni1E00
ENCODING 7680
SWIDTH 773 0
DWIDTH 19 0
BBX 18 22 0 -5
BITMAP
03F000
03F000
03F800
07F800
07F800
07FC00
0E7C00
0E7E00
1E3E00
1C3E00
1FFF00
3FFF00
3FFF80
780F80
700F80
7007C0
E007C0
000000
006000
009000
009000
006000
ENDCHAR
STARTCHAR uni1E01
ENCODING 7681
SWIDTH 623 0
DWIDTH 15 0
BBX 13 18 1 -5
BITMAP
3F80
7FE0
7FF0
41F0
01F0
3FF0
7FF0
FFF0
F9F0
F9F0
FFF8
7FF8
3CF8
0000
0300
0480
0480
0300
ENDCHAR
STARTCHAR uni1E02
ENCODING 7682
SWIDTH 669 0
DWIDTH 16 0
BBX 14 21 2 0
BITMAP
0700
0700
0700
0000
FFE0
FFF0
FFF8
F8F8
F8F8
F8F8
F9F0
FFC0
FFC0
FFF0
F8F8
F87C
F87C
F87C
FFFC
FFF8
FFE0
ENDCHAR
STARTCHAR uni1E03
ENCODING 7683
SWIDTH 696 0
DWIDTH 17 0
BBX 14 22 2 0
BITMAP
1C00
1C00
1C00
0000
F800
F800
F800
F800
F800
F9E0
FBF8
FFF8
FCFC
F87C
F87C
F87C
F87C
F87C
FCF8
FFF8
FFF0
F3E0
ENDCHAR
STARTCHAR uni1E04
ENCODING 7684
SWIDTH 669 0
DWIDTH 16 0
BBX 14 21 2 -4
BITMAP
FFE0
FFF0
FFF8
F8F8
F8F8
F8F8
F9F0
FFC0
FFC0
FFF0
F8F8
F87C
F87C
F87C
FFFC
FFF8
FFE0
0000
0700
0700
0700
ENDCHAR
STARTCHAR uni1E05
ENCODING 7685
SWIDTH 696 0
DWIDTH 17 0
BBX 14 22 2 -4
BITMAP
F800
F800
F800
F800
F800
F9E0
FBF8
FFF8
FCFC
F87C
F87C
F87C
F87C
F87C
FCF8
FFF8
FFF0
F3E0
0000
0700
0700
0700
ENDCHAR
STARTCHAR uni1E06
ENCODING 7686
SWIDTH 669 0
DWIDTH 16 0
BBX 14 21 2 -4
BITMAP
FFE0
FFF0
FFF8
F8F8
F8F8
F8F8
F9F0
FFC0
FFC0
FFF0
F8F8
F87C
F87C
F87C
FFFC
FFF8
FFE0
0000
1FE0
1FE0
1FE0
ENDCHAR
STARTCHAR uni1E07
ENCODING 7687
SWIDTH 696 0
DWIDTH 17 0
BBX 14 22 2 -4
BITMAP
F800
F800
F800
F800
F800
F9E0
FBF8
FFF8
FCFC
F87C
F87C
F87C
F87C
F87C
FCF8
FFF8
FFF0
F3E0
0000
1FE0
1FE0
1FE0
ENDCHAR
STARTCHAR uni1E08
ENCODING 7688
SWIDTH 726 0
DWIDTH 17 0
BBX 16 26 1 -5
BITMAP
00F0
01C0
0380
0000
03FE
0FFF
3FFF
7F03
7C00
FC00
F800
F800
F800
F800
F800
FC00
7E00
7F01
3FFF
0FFF
03FC
00C0
0180
00E0
03E0
03C0
ENDCHAR
STARTCHAR uni1E09
ENCODING 7689
SWIDTH 545 0
DWIDTH 13 0
BBX 12 22 1 -5
BITMAP
03C0
0700
0E00
0000
0FE0
3FF0
7FF0
7E10
FC00
F800
F800
F800
FC00
7E10
7FF0
3FF0
0FF0
0300
0600
0380
0F80
0F00
ENDCHAR
STARTCHAR uni1E0A
ENCODING 7690
SWIDTH 819 0
DWIDTH 20 0
BBX 17 21 2 0
BITMAP
038000
038000
038000
000000
FFF000
FFFC00
FFFE00
F87F00
F81F00
F81F80
F80F80
F80F80
F80F80
F80F80
F80F80
F80F80
F81F00
F83F00
FFFE00
FFFC00
FFF000
ENDCHAR
STARTCHAR uni1E0B
ENCODING 7691
SWIDTH 696 0
DWIDTH 17 0
BBX 14 22 1 0
BITMAP
0070
0070
0070
0000
007C
007C
007C
007C
007C
1E7C
3FFC
7FFC
FCFC
F87C
F87C
F87C
F87C
F87C
FCFC
7FFC
7F7C
1E7C
ENDCHAR
STARTCHAR uni1E0C
ENCODING 7692
SWIDTH 819 0
DWIDTH 20 0
BBX 17 21 2 -4
BITMAP
FFF000
FFFC00
FFFE00
F87F00
F81F00
F81F80
F80F80
F80F80
F80F80
F80F80
F80F80
F80F80
F81F00
F83F00
FFFE00
FFFC00
FFF000
000000
038000
038000
038000
ENDCHAR
STARTCHAR uni1E0D
ENCODING 7693
SWIDTH 696 0
DWIDTH 17 0
BBX 14 22 1 -4
BITMAP
007C
007C
007C
007C
007C
1E7C
3FFC
7FFC
FCFC
F87C
F87C
F87C
F87C
F87C
FCFC
7FFC
7F7C
1E7C
0000
0380
0380
0380
ENDCHAR
STARTCHAR uni1E0E
ENCODING 7694
SWIDTH 819 0
DWIDTH 20 0
BBX 17 21 2 -4
BITMAP
FFF000
FFFC00
FFFE00
F87F00
F81F00
F81F80
F80F80
F80F80
F80F80
F80F80
F80F80
F80F80
F81F00
F83F00
FFFE00
FFFC00
FFF000
000000
0FF000
0FF000
0FF000
ENDCHAR
STARTCHAR uni1E0F
ENCODING 7695
SWIDTH 696 0
DWIDTH 17 0
BBX 14 22 1 -4
BITMAP
007C
007C
007C
007C
007C
1E7C
3FFC
7FFC
FCFC
F87C
F87C
F87C
F87C
F87C
FCFC
7FFC
7F7C
1E7C
0000
1FE0
1FE0
1FE0
ENDCHAR
STARTCHAR uni1E10
ENCODING 7696
SWIDTH 819 0
DWIDTH 20 0
BBX 17 22 2 -5
BITMAP
FFF000
FFFC00
FFFE00
F87F00
F81F00
F81F80
F80F80
F80F80
F80F80
F80F80
F80F80
F80F80
F81F00
F83F00
FFFE00
FFFC00
FFF000
018000
030000
01C000
07C000
078000
ENDCHAR
STARTCHAR uni1E11
ENCODING 7697
SWIDTH 696 0
DWIDTH 17 0
BBX 14 23 1 -5
BITMAP
007C
007C
007C
007C
007C
1E7C
3FFC
7FFC
FCFC
F87C
F87C
F87C
F87C
F87C
FCFC
7FFC
7F7C
1E7C
0180
0300
01C0
07C0
0780
ENDCHAR
STARTCHAR uni1E12
ENCODING 7698
SWIDTH 819 0
DWIDTH 20 0
BBX 17 21 2 -4
BITMAP
FFF000
FFFC00
FFFE00
F87F00
F81F00
F81F80
F80F80
F80F80
F80F80
F80F80
F80F80
F80F80
F81F00
F83F00
FFFE00
FFFC00
FFF000
000000
07C000
0FE000
1C7000
ENDCHAR
STARTCHAR uni1E13
ENCODING 7699
SWIDTH 696 0
DWIDTH 17 0
BBX 14 22 1 -4
BITMAP
007C
007C
007C
007C
007C
1E7C
3FFC
7FFC
FCFC
F87C
F87C
F87C
F87C
F87C
FCFC
7FFC
7F7C
1E7C
0000
07C0
0FE0
1C70
ENDCHAR
STARTCHAR uni1E14
ENCODING 7700
SWIDTH 645 0
DWIDTH 15 0
BBX 13 25 2 0
BITMAP
3C00
0E00
0700
0000
3FC0
3FC0
3FC0
0000
FFF0
FFF0
FFF0
F800
F800
F800
F800
FFE0
FFE0
FFE0
F800
F800
F800
F800
FFF8
FFF8
FFF8
ENDCHAR
STARTCHAR uni1E15
ENCODING 7701
SWIDTH 614 0
DWIDTH 15 0
BBX 13 21 1 0
BITMAP
1E00
0700
0380
0000
1FE0
1FE0
1FE0
0000
0FC0
3FE0
7FF0
78F0
F8F8
FFF8
FFF8
FFF8
F800
7C08
7FF8
3FF8
0FF0
ENDCHAR
STARTCHAR uni1E16
ENCODING 7702
SWIDTH 645 0
DWIDTH 15 0
BBX 13 25 2 0
BITMAP
03C0
0700
0E00
0000
3FC0
3FC0
3FC0
0000
FFF0
FFF0
FFF0
F800
F800
F800
F800
FFE0
FFE0
FFE0
F800
F800
F800
F800
FFF8
FFF8
FFF8
ENDCHAR
STARTCHAR uni1E17
ENCODING 7703
SWIDTH 614 0
DWIDTH 15 0
BBX 13 21 1 0
BITMAP
01E0
0380
0700
0000
1FE0
1FE0
1FE0
0000
0FC0
3FE0
7FF0
78F0
F8F8
FFF8
FFF8
FFF8
F800
7C08
7FF8
3FF8
0FF0
ENDCHAR
STARTCHAR uni1E18
ENCODING 7704
SWIDTH 645 0
DWIDTH 15 0
BBX 13 21 2 -4
BITMAP
FFF0
FFF0
FFF0
F800
F800
F800
F800
FFE0
FFE0
FFE0
F800
F800
F800
F800
FFF8
FFF8
FFF8
0000
1F00
3F80
71C0
ENDCHAR
STARTCHAR uni1E19
ENCODING 7705
SWIDTH 614 0
DWIDTH 15 0
BBX 13 17 1 -4
BITMAP
0FC0
3FE0
7FF0
78F0
F8F8
FFF8
FFF8
FFF8
F800
7C08
7FF8
3FF8
0FF0
0000
0F80
1FC0
38E0
ENDCHAR
STARTCHAR uni1E1A
ENCODING 7706
SWIDTH 645 0
DWIDTH 15 0
BBX 13 21 2 -4
BITMAP
FFF0
FFF0
FFF0
F800
F800
F800
F800
FFE0
FFE0
FFE0
F800
F800
F800
F800
FFF8
FFF8
FFF8
0000
3DC0
7FC0
7780
ENDCHAR
STARTCHAR uni1E1B
ENCODING 7707
SWIDTH 614 0
DWIDTH 15 0
BBX 13 17 1 -4
BITMAP
0FC0
3FE0
7FF0
78F0
F8F8
FFF8
FFF8
FFF8
F800
7C08
7FF8
3FF8
0FF0
0000
1EE0
3FE0
3BC0
ENDCHAR
STARTCHAR uni1E1C
ENCODING 7708
SWIDTH 645 0
DWIDTH 15 0
BBX 13 26 2 -5
BITMAP
71C0
3F80
1F00
0000
FFF0
FFF0
FFF0
F800
F800
F800
F800
FFE0
FFE0
FFE0
F800
F800
F800
F800
FFF8
FFF8
FFF8
0600
0C00
0700
1F00
1E00
ENDCHAR
STARTCHAR uni1E1D
ENCODING 7709
SWIDTH 614 0
DWIDTH 15 0
BBX 13 22 1 -5
BITMAP
38E0
1FC0
0F80
0000
0FC0
3FE0
7FF0
78F0
F8F8
FFF8
FFF8
FFF8
F800
7C08
7FF8
3FF8
0FF0
0300
0600
0380
0F80
0F00
ENDCHAR
STARTCHAR uni1E1E
ENCODING 7710
SWIDTH 602 0
DWIDTH 14 0
BBX 12 21 2 0
BITMAP
0E00
0E00
0E00
0000
FFF0
FFF0
FFF0
F800
F800
F800
F800
FFE0
FFE0
FFE0
F800
F800
F800
F800
F800
F800
F800
ENDCHAR
STARTCHAR uni1E1F
ENCODING 7711
SWIDTH 461 0
DWIDTH 11 0
BBX 11 22 0 0
BITMAP
0E00
0E00
0E00
0000
0FE0
1FE0
3FE0
3E00
3E00
FFC0
FFC0
FFC0
3E00
3E00
3E00
3E00
3E00
3E00
3E00
3E00
3E00
3E00
ENDCHAR
STARTCHAR uni1E20
ENCODING 7712
SWIDTH 759 0
DWIDTH 18 0
BBX 16 21 1 0
BITMAP
07F8
07F8
07F8
0000
03FF
0FFF
3FFF
3F03
7C00
FC00
F800
F800
F81F
F81F
F81F
FC1F
7C1F
7F1F
3FFF
0FFF
03FE
ENDCHAR
STARTCHAR uni1E21
ENCODING 7713
SWIDTH 696 0
DWIDTH 17 0
BBX 14 22 1 -5
BITMAP
1FE0
1FE0
1FE0
0000
1F3C
3FFC
7FFC
7CFC
F87C
F87C
F87C
F87C
F87C
FCFC
7FFC
7F7C
1E7C
007C
20FC
7FF8
7FF0
1FC0
ENDCHAR
STARTCHAR uni1E22
ENCODING 7714
SWIDTH 813 0
DWIDTH 20 0
BBX 15 21 2 0
BITMAP
0380
0380
0380
0000
F83E
F83E
F83E
F83E
F83E
F83E
F83E
FFFE
FFFE
FFFE
F83E
F83E
F83E
F83E
F83E
F83E
F83E
ENDCHAR
STARTCHAR uni1E23
ENCODING 7715
SWIDTH 693 0
DWIDTH 17 0
BBX 13 22 2 0
BITMAP
3800
3800
3800
0000
F800
F800
F800
F800
F800
F9E0
FBF0
FFF8
FFF8
FCF8
F8F8
F8F8
F8F8
F8F8
F8F8
F8F8
F8F8
F8F8
ENDCHAR
STARTCHAR uni1E24
ENCODING 7716
SWIDTH 813 0
DWIDTH 20 0
BBX 15 21 2 -4
BITMAP
F83E
F83E
F83E
F83E
F83E
F83E
F83E
FFFE
FFFE
FFFE
F83E
F83E
F83E
F83E
F83E
F83E
F83E
0000
0380
0380
0380
ENDCHAR
STARTCHAR uni1E25
ENCODING 7717
SWIDTH 693 0
DWIDTH 17 0
BBX 13 22 2 -4
BITMAP
F800
F800
F800
F800
F800
F9E0
FBF0
FFF8
FFF8
FCF8
F8F8
F8F8
F8F8
F8F8
F8F8
F8F8
F8F8
F8F8
0000
0700
0700
0700
ENDCHAR
STARTCHAR uni1E26
ENCODING 7718
SWIDTH 813 0
DWIDTH 20 0
BBX 15 21 2 0
BITMAP
0E70
0E70
0E70
0000
F83E
F83E
F83E
F83E
F83E
F83E
F83E
FFFE
FFFE
FFFE
F83E
F83E
F83E
F83E
F83E
F83E
F83E
ENDCHAR
STARTCHAR uni1E27
ENCODING 7719
SWIDTH 693 0
DWIDTH 17 0
BBX 13 22 2 0
BITMAP
E700
E700
E700
0000
F800
F800
F800
F800
F800
F9E0
FBF0
FFF8
FFF8
FCF8
F8F8
F8F8
F8F8
F8F8
F8F8
F8F8
F8F8
F8F8
ENDCHAR
STARTCHAR uni1E28
ENCODING 7720
SWIDTH 813 0
DWIDTH 20 0
BBX 15 22 2 -5
BITMAP
F83E
F83E
F83E
F83E
F83E
F83E
F83E
FFFE
FFFE
FFFE
F83E
F83E
F83E
F83E
F83E
F83E
F83E
0180
0300
01C0
07C0
0780
ENDCHAR
STARTCHAR uni1E29
ENCODING 7721
SWIDTH 693 0
DWIDTH 17 0
BBX 13 23 2 -5
BITMAP
F800
F800
F800
F800
F800
F9E0
FBF0
FFF8
FFF8
FCF8
F8F8
F8F8
F8F8
F8F8
F8F8
F8F8
F8F8
F8F8
0300
0600
0380
0F80
0F00
ENDCHAR
STARTCHAR uni1E2A
ENCODING 7722
SWIDTH 813 0
DWIDTH 20 0
BBX 15 21 2 -4
BITMAP
F83E
F83E
F83E
F83E
F83E
F83E
F83E
FFFE
FFFE
FFFE
F83E
F83E
F83E
F83E
F83E
F83E
F83E
0000
1C70
0FE0
07C0
ENDCHAR
STARTCHAR uni1E2B
ENCODING 7723
SWIDTH 693 0
DWIDTH 17 0
BBX 13 22 2 -4
BITMAP
F800
F800
F800
F800
F800
F9E0
FBF0
FFF8
FFF8
FCF8
F8F8
F8F8
F8F8
F8F8
F8F8
F8F8
F8F8
F8F8
0000
38E0
1FC0
0F80
ENDCHAR
STARTCHAR uni1E2C
ENCODING 7724
SWIDTH 361 0
DWIDTH 9 0
BBX 9 21 0 -4
BITMAP
3E00
3E00
3E00
3E00
3E00
3E00
3E00
3E00
3E00
3E00
3E00
3E00
3E00
3E00
3E00
3E00
3E00
0000
7B80
FF80
EF00
ENDCHAR
STARTCHAR uni1E2D
ENCODING 7725
SWIDTH 361 0
DWIDTH 9 0
BBX 9 22 0 -4
BITMAP
3E00
3E00
3E00
0000
0000
3E00
3E00
3E00
3E00
3E00
3E00
3E00
3E00
3E00
3E00
3E00
3E00
3E00
0000
7B80
FF80
EF00
ENDCHAR
STARTCHAR uni1E2E
ENCODING 7726
SWIDTH 361 0
DWIDTH 9 0
BBX 8 25 1 0
BITMAP
0F
1C
38
00
E7
E7
E7
00
7C
7C
7C
7C
7C
7C
7C
7C
7C
7C
7C
7C
7C
7C
7C
7C
7C
ENDCHAR
STARTCHAR uni1E2F
ENCODING 7727
SWIDTH 361 0
DWIDTH 9 0
BBX 8 21 1 0
BITMAP
0F
1C
38
00
E7
E7
E7
00
7C
7C
7C
7C
7C
7C
7C
7C
7C
7C
7C
7C
7C
ENDCHAR
STARTCHAR uni1E30
ENCODING 7728
SWIDTH 753 0
DWIDTH 18 0
BBX 16 21 2 0
BITMAP
01E0
0380
0700
0000
F81E
F83C
F878
F8F0
F8E0
F9E0
FBC0
FFC0
FFC0
FFE0
FBF0
FBF0
F9F8
F8FC
F8FE
F87E
F83F
ENDCHAR
STARTCHAR uni1E31
ENCODING 7729
SWIDTH 681 0
DWIDTH 16 0
BBX 14 22 2 0
BITMAP
0F00
1C00
3800
0000
F800
F800
F800
F800
F800
F878
F8F0
F8E0
F9C0
FBC0
FBC0
FFC0
FFE0
FBF0
FBF0
F9F8
F8F8
F8FC
ENDCHAR
STARTCHAR uni1E32
ENCODING 7730
SWIDTH 753 0
DWIDTH 18 0
BBX 16 21 2 -4
BITMAP
F81E
F83C
F878
F8F0
F8E0
F9E0
FBC0
FFC0
FFC0
FFE0
FBF0
FBF0
F9F8
F8FC
F8FE
F87E
F83F
0000
0380
0380
0380
ENDCHAR
STARTCHAR uni1E33
ENCODING 7731
SWIDTH 681 0
DWIDTH 16 0
BBX 14 22 2 -4
BITMAP
F800
F800
F800
F800
F800
F878
F8F0
F8E0
F9C0
FBC0
FBC0
FFC0
FFE0
FBF0
FBF0
F9F8
F8F8
F8FC
0000
0700
0700
0700
ENDCHAR
STARTCHAR uni1E34
ENCODING 7732
SWIDTH 753 0
DWIDTH 18 0
BBX 16 21 2 -4
BITMAP
F81E
F83C
F878
F8F0
F8E0
F9E0
FBC0
FFC0
FFC0
FFE0
FBF0
FBF0
F9F8
F8FC
F8FE
F87E
F83F
0000
0FF0
0FF0
0FF0
ENDCHAR
STARTCHAR uni1E35
ENCODING 7733
SWIDTH 681 0
DWIDTH 16 0
BBX 14 22 2 -4
BITMAP
F800
F800
F800
F800
F800
F878
F8F0
F8E0
F9C0
FBC0
FBC0
FFC0
FFE0
FBF0
FBF0
F9F8
F8F8
F8FC
0000
1FE0
1FE0
1FE0
ENDCHAR
STARTCHAR uni1E36
ENCODING 7734
SWIDTH 620 0
DWIDTH 15 0
BBX 13 21 2 -4
BITMAP
F800
F800
F800
F800
F800
F800
F800
F800
F800
F800
F800
F800
F800
F800
FFF8
FFF8
FFF8
0000
0E00
0E00
0E00
ENDCHAR
STARTCHAR uni1E37
ENCODING 7735
SWIDTH 361 0
DWIDTH 9 0
BBX 5 22 2 -4
BITMAP
F8
F8
F8
F8
F8
F8
F8
F8
F8
F8
F8
F8
F8
F8
F8
F8
F8
F8
00
70
70
70
ENDCHAR
STARTCHAR uni1E38
ENCODING 7736
SWIDTH 620 0
DWIDTH 15 0
BBX 13 25 2 -4
BITMAP
FF00
FF00
FF00
0000
F800
F800
F800
F800
F800
F800
F800
F800
F800
F800
F800
F800
F800
F800
FFF8
FFF8
FFF8
0000
0E00
0E00
0E00
ENDCHAR
STARTCHAR uni1E39
ENCODING 7737
SWIDTH 361 0
DWIDTH 9 0
BBX 8 26 1 -4
BITMAP
FF
FF
FF
00
7C
7C
7C
7C
7C
7C
7C
7C
7C
7C
7C
7C
7C
7C
7C
7C
7C
7C
00
38
38
38
ENDCHAR
STARTCHAR uni1E3A
ENCODING 7738
SWIDTH 620 0
DWIDTH 15 0
BBX 13 21 2 -4
BITMAP
F800
F800
F800
F800
F800
F800
F800
F800
F800
F800
F800
F800
F800
F800
FFF8
FFF8
FFF8
0000
3FC0
3FC0
3FC0
ENDCHAR
STARTCHAR uni1E3B
ENCODING 7739
SWIDTH 361 0
DWIDTH 9 0
BBX 8 22 1 -4
BITMAP
7C
7C
7C
7C
7C
7C
7C
7C
7C
7C
7C
7C
7C
7C
7C
7C
7C
7C
00
FF
FF
FF
ENDCHAR
STARTCHAR uni1E3C
ENCODING 7740
SWIDTH 620 0
DWIDTH 15 0
BBX 13 21 2 -4
BITMAP
F800
F800
F800
F800
F800
F800
F800
F800
F800
F800
F800
F800
F800
F800
FFF8
FFF8
FFF8
0000
1F00
3F80
71C0
ENDCHAR
STARTCHAR uni1E3D
ENCODING 7741
SWIDTH 361 0
DWIDTH 9 0
BBX 9 22 0 -4
BITMAP
3E00
3E00
3E00
3E00
3E00
3E00
3E00
3E00
3E00
3E00
3E00
3E00
3E00
3E00
3E00
3E00
3E00
3E00
0000
3E00
7F00
E380
ENDCHAR
STARTCHAR uni1E3E
ENCODING 7742
SWIDTH 940 0
DWIDTH 23 0
BBX 18 21 2 0
BITMAP
007800
00E000
01C000
000000
FC0FC0
FC0FC0
FC1FC0
FE1FC0
FE1FC0
FE3FC0
EF3FC0
EF3FC0
EF7FC0
E7F7C0
E7F7C0
E7F7C0
E7E7C0
E3E7C0
E3E7C0
E3C7C0
E007C0
ENDCHAR
STARTCHAR uni1E3F
ENCODING 7743
SWIDTH 1006 0
DWIDTH 24 0
BBX 21 17 2 0
BITMAP
003C00
007000
00E000
000000
FBE1F0
F7F3F8
FFFFF8
FFFFF8
FCFCF8
F8F8F8
F8F8F8
F8F8F8
F8F8F8
F8F8F8
F8F8F8
F8F8F8
F8F8F8
ENDCHAR
STARTCHAR uni1E40
ENCODING 7744
SWIDTH 940 0
DWIDTH 23 0
BBX 18 21 2 0
BITMAP
00E000
00E000
00E000
000000
FC0FC0
FC0FC0
FC1FC0
FE1FC0
FE1FC0
FE3FC0
EF3FC0
EF3FC0
EF7FC0
E7F7C0
E7F7C0
E7F7C0
E7E7C0
E3E7C0
E3E7C0
E3C7C0
E007C0
ENDCHAR
STARTCHAR uni1E41
ENCODING 7745
SWIDTH 1006 0
DWIDTH 24 0
BBX 21 17 2 0
BITMAP
007000
007000
007000
000000
FBE1F0
F7F3F8
FFFFF8
FFFFF8
FCFCF8
F8F8F8
F8F8F8
F8F8F8
F8F8F8
F8F8F8
F8F8F8
F8F8F8
F8F8F8
ENDCHAR
STARTCHAR uni1E42
ENCODING 7746
SWIDTH 940 0
DWIDTH 23 0
BBX 18 21 2 -4
BITMAP
FC0FC0
FC0FC0
FC1FC0
FE1FC0
FE1FC0
FE3FC0
EF3FC0
EF3FC0
EF7FC0
E7F7C0
E7F7C0
E7F7C0
E7E7C0
E3E7C0
E3E7C0
E3C7C0
E007C0
000000
00E000
00E000
00E000
ENDCHAR
STARTCHAR uni1E43
ENCODING 7747
SWIDTH 1006 0
DWIDTH 24 0
BBX 21 17 2 -4
BITMAP
FBE1F0
F7F3F8
FFFFF8
FFFFF8
FCFCF8
F8F8F8
F8F8F8
F8F8F8
F8F8F8
F8F8F8
F8F8F8
F8F8F8
F8F8F8
000000
007000
007000
007000
ENDCHAR
STARTCHAR uni1E44
ENCODING 7748
SWIDTH 783 0
DWIDTH 19 0
BBX 15 21 2 0
BITMAP
0700
0700
0700
0000
F00E
F80E
FC0E
FE0E
FF0E
FF0E
FF8E
EFCE
EFEE
E7EE
E3FE
E1FE
E1FE
E0FE
E07E
E03E
E01E
ENDCHAR
STARTCHAR uni1E45
ENCODING 7749
SWIDTH 693 0
DWIDTH 17 0
BBX 13 17 2 0
BITMAP
0700
0700
0700
0000
F9E0
FBF0
FFF8
FFF8
FCF8
F8F8
F8F8
F8F8
F8F8
F8F8
F8F8
F8F8
F8F8
ENDCHAR
STARTCHAR uni1E46
ENCODING 7750
SWIDTH 783 0
DWIDTH 19 0
BBX 15 21 2 -4
BITMAP
F00E
F80E
FC0E
FE0E
FF0E
FF0E
FF8E
EFCE
EFEE
E7EE
E3FE
E1FE
E1FE
E0FE
E07E
E03E
E01E
0000
01C0
01C0
01C0
ENDCHAR
STARTCHAR uni1E47
ENCODING 7751
SWIDTH 693 0
DWIDTH 17 0
BBX 13 17 2 -4
BITMAP
F9E0
FBF0
FFF8
FFF8
FCF8
F8F8
F8F8
F8F8
F8F8
F8F8
F8F8
F8F8
F8F8
0000
0700
0700
0700
ENDCHAR
STARTCHAR uni1E48
ENCODING 7752
SWIDTH 783 0
DWIDTH 19 0
BBX 15 21 2 -4
BITMAP
F00E
F80E
FC0E
FE0E
FF0E
FF0E
FF8E
EFCE
EFEE
E7EE
E3FE
E1FE
E1FE
E0FE
E07E
E03E
E01E
0000
0FF0
0FF0
0FF0
ENDCHAR
STARTCHAR uni1E49
ENCODING 7753
SWIDTH 693 0
DWIDTH 17 0
BBX 13 17 2 -4
BITMAP
F9E0
FBF0
FFF8
FFF8
FCF8
F8F8
F8F8
F8F8
F8F8
F8F8
F8F8
F8F8
F8F8
0000
1FE0
1FE0
1FE0
ENDCHAR
STARTCHAR uni1E4A
ENCODING 7754
SWIDTH 783 0
DWIDTH 19 0
BBX 15 21 2 -4
BITMAP
F00E
F80E
FC0E
FE0E
FF0E
FF0E
FF8E
EFCE
EFEE
E7EE
E3FE
E1FE
E1FE
E0FE
E07E
E03E
E01E
0000
03E0
07F0
0E38
ENDCHAR
STARTCHAR uni1E4B
ENCODING 7755
SWIDTH 693 0
DWIDTH 17 0
BBX 13 17 2 -4
BITMAP
F9E0
FBF0
FFF8
FFF8
FCF8
F8F8
F8F8
F8F8
F8F8
F8F8
F8F8
F8F8
F8F8
0000
0F80
1FC0
38E0
ENDCHAR
STARTCHAR uni1E4C
ENCODING 7756
SWIDTH 855 0
DWIDTH 21 0
BBX 19 25 1 0
BITMAP
003C00
007000
00E000
000000
03DC00
07FC00
077800
000000
03F800
0FFE00
3FFF80
7E0FC0
7C07C0
FC07E0
F803E0
F803E0
F803E0
F803E0
F803E0
FC07E0
7C07C0
7E0FC0
3FFF80
0FFE00
03F800
ENDCHAR
STARTCHAR uni1E4D
ENCODING 7757
SWIDTH 675 0
DWIDTH 16 0
BBX 14 21 1 0
BITMAP
01E0
0380
0700
0000
0F70
1FF0
1DE0
0000
0FC0
3FF0
7FF8
7CF8
F87C
F87C
F87C
F87C
F87C
7CF8
7FF8
3FF0
0FC0
ENDCHAR
STARTCHAR uni1E4E
ENCODING 7758
SWIDTH 855 0
DWIDTH 21 0
BBX 19 25 1 0
BITMAP
039C00
039C00
039C00
000000
03DC00
07FC00
077800
000000
03F800
0FFE00
3FFF80
7E0FC0
7C07C0
FC07E0
F803E0
F803E0
F803E0
F803E0
F803E0
FC07E0
7C07C0
7E0FC0
3FFF80
0FFE00
03F800
ENDCHAR
STARTCHAR uni1E4F
ENCODING 7759
SWIDTH 675 0
DWIDTH 16 0
BBX 14 21 1 0
BITMAP
1CE0
1CE0
1CE0
0000
0F70
1FF0
1DE0
0000
0FC0
3FF0
7FF8
7CF8
F87C
F87C
F87C
F87C
F87C
7CF8
7FF8
3FF0
0FC0
ENDCHAR
STARTCHAR uni1E50
ENCODING 7760
SWIDTH 855 0
DWIDTH 21 0
BBX 19 25 1 0
BITMAP
03C000
00E000
007000
000000
03FC00
03FC00
03FC00
000000
03F800
0FFE00
3FFF80
7E0FC0
7C07C0
FC07E0
F803E0
F803E0
F803E0
F803E0
F803E0
FC07E0
7C07C0
7E0FC0
3FFF80
0FFE00
03F800
ENDCHAR
STARTCHAR uni1E51
ENCODING 7761
SWIDTH 675 0
DWIDTH 16 0
BBX 14 21 1 0
BITMAP
1E00
0700
0380
0000
1FE0
1FE0
1FE0
0000
0FC0
3FF0
7FF8
7CF8
F87C
F87C
F87C
F87C
F87C
7CF8
7FF8
3FF0
0FC0
ENDCHAR
STARTCHAR uni1E52
ENCODING 7762
SWIDTH 855 0
DWIDTH 21 0
BBX 19 25 1 0
BITMAP
003C00
007000
00E000
000000
03FC00
03FC00
03FC00
000000
03F800
0FFE00
3FFF80
7E0FC0
7C07C0
FC07E0
F803E0
F803E0
F803E0
F803E0
F803E0
FC07E0
7C07C0
7E0FC0
3FFF80
0FFE00
03F800
ENDCHAR
STARTCHAR uni1E53
ENCODING 7763
SWIDTH 675 0
DWIDTH 16 0
BBX 14 21 1 0
BITMAP
01E0
0380
0700
0000
1FE0
1FE0
1FE0
0000
0FC0
3FF0
7FF8
7CF8
F87C
F87C
F87C
F87C
F87C
7CF8
7FF8
3FF0
0FC0
ENDCHAR
STARTCHAR uni1E54
ENCODING 7764
SWIDTH 657 0
DWIDTH 16 0
BBX 14 21 2 0
BITMAP
01E0
0380
0700
0000
FFF0
FFF8
FFFC
F8FC
F87C
F87C
F87C
F8F8
FFF8
FFF0
FFC0
F800
F800
F800
F800
F800
F800
ENDCHAR
STARTCHAR uni1E55
ENCODING 7765
SWIDTH 696 0
DWIDTH 17 0
BBX 14 22 2 -5
BITMAP
01E0
0380
0700
0000
F9E0
FBF8
FFF8
FCFC
F87C
F87C
F87C
F87C
F87C
FCFC
FFF8
FFF0
F9E0
F800
F800
F800
F800
F800
ENDCHAR
STARTCHAR uni1E56
ENCODING 7766
SWIDTH 657 0
DWIDTH 16 0
BBX 14 21 2 0
BITMAP
0700
0700
0700
0000
FFF0
FFF8
FFFC
F8FC
F87C
F87C
F87C
F8F8
FFF8
FFF0
FFC0
F800
F800
F800
F800
F800
F800
ENDCHAR
STARTCHAR uni1E57
ENCODING 7767
SWIDTH 696 0
DWIDTH 17 0
BBX 14 22 2 -5
BITMAP
0700
0700
0700
0000
F9E0
FBF8
FFF8
FCFC
F87C
F87C
F87C
F87C
F87C
FCFC
FFF8
FFF0
F9E0
F800
F800
F800
F800
F800
ENDCHAR
STARTCHAR uni1E58
ENCODING 7768
SWIDTH 734 0
DWIDTH 18 0
BBX 16 21 2 0
BITMAP
0700
0700
0700
0000
FFC0
FFF0
FFF8
F8F8
F8F8
F8F8
F9F8
FFF0
FFE0
FFE0
FBF0
F9F0
F9F8
F8F8
F8FC
F87E
F87F
ENDCHAR
STARTCHAR uni1E59
ENCODING 7769
SWIDTH 500 0
DWIDTH 12 0
BBX 10 17 2 0
BITMAP
1C00
1C00
1C00
0000
F9C0
FBC0
FFC0
FFC0
FC00
F800
F800
F800
F800
F800
F800
F800
F800
ENDCHAR
STARTCHAR uni1E5A
ENCODING 7770
SWIDTH 734 0
DWIDTH 18 0
BBX 16 21 2 -4
BITMAP
FFC0
FFF0
FFF8
F8F8
F8F8
F8F8
F9F8
FFF0
FFE0
FFE0
FBF0
F9F0
F9F8
F8F8
F8FC
F87E
F87F
0000
0380
0380
0380
ENDCHAR
STARTCHAR uni1E5B
ENCODING 7771
SWIDTH 500 0
DWIDTH 12 0
BBX 10 17 2 -4
BITMAP
F9C0
FBC0
FFC0
FFC0
FC00
F800
F800
F800
F800
F800
F800
F800
F800
0000
3800
3800
3800
ENDCHAR
STARTCHAR uni1E5C
ENCODING 7772
SWIDTH 734 0
DWIDTH 18 0
BBX 16 25 2 -4
BITMAP
1FE0
1FE0
1FE0
0000
FFC0
FFF0
FFF8
F8F8
F8F8
F8F8
F9F8
FFF0
FFE0
FFE0
FBF0
F9F0
F9F8
F8F8
F8FC
F87E
F87F
0000
0380
0380
0380
ENDCHAR
STARTCHAR uni1E5D
ENCODING 7773
SWIDTH 500 0
DWIDTH 12 0
BBX 10 21 2 -4
BITMAP
7F80
7F80
7F80
0000
F9C0
FBC0
FFC0
FFC0
FC00
F800
F800
F800
F800
F800
F800
F800
F800
0000
3800
3800
3800
ENDCHAR
STARTCHAR uni1E5E
ENCODING 7774
SWIDTH 734 0
DWIDTH 18 0
BBX 16 21 2 -4
BITMAP
FFC0
FFF0
FFF8
F8F8
F8F8
F8F8
F9F8
FFF0
FFE0
FFE0
FBF0
F9F0
F9F8
F8F8
F8FC
F87E
F87F
0000
0FF0
0FF0
0FF0
ENDCHAR
STARTCHAR uni1E5F
ENCODING 7775
SWIDTH 500 0
DWIDTH 12 0
BBX 11 17 1 -4
BITMAP
7CE0
7DE0
7FE0
7FE0
7E00
7C00
7C00
7C00
7C00
7C00
7C00
7C00
7C00
0000
FF00
FF00
FF00
ENDCHAR
STARTCHAR uni1E60
ENCODING 7776
SWIDTH 594 0
DWIDTH 14 0
BBX 13 21 1 0
BITMAP
0700
0700
0700
0000
1FF0
7FF0
7FF0
F830
F800
FE00
FF00
7FC0
3FF0
1FF0
07F8
01F8
00F8
C1F8
FFF0
FFE0
FF80
ENDCHAR
STARTCHAR uni1E61
ENCODING 7777
SWIDTH 622 0
DWIDTH 15 0
BBX 12 17 2 0
BITMAP
0E00
0E00
0E00
0000
3FC0
7FE0
FFE0
F820
F800
FF00
3FC0
0FF0
01F0
C1F0
FFF0
FFE0
7F80
ENDCHAR
STARTCHAR uni1E62
ENCODING 7778
SWIDTH 594 0
DWIDTH 14 0
BBX 13 21 1 -4
BITMAP
1FF0
7FF0
7FF0
F830
F800
FE00
FF00
7FC0
3FF0
1FF0
07F8
01F8
00F8
C1F8
FFF0
FFE0
FF80
0000
0700
0700
0700
ENDCHAR
STARTCHAR uni1E63
ENCODING 7779
SWIDTH 622 0
DWIDTH 15 0
BBX 12 17 2 -4
BITMAP
3FC0
7FE0
FFE0
F820
F800
FF00
3FC0
0FF0
01F0
C1F0
FFF0
FFE0
7F80
0000
0E00
0E00
0E00
ENDCHAR
STARTCHAR uni1E64
ENCODING 7780
SWIDTH 594 0
DWIDTH 14 0
BBX 13 25 1 0
BITMAP
0700
0700
0700
0000
03C0
0700
0E00
0000
1FF0
7FF0
7FF0
F830
F800
FE00
FF00
7FC0
3FF0
1FF0
07F8
01F8
00F8
C1F8
FFF0
FFE0
FF80
ENDCHAR
STARTCHAR uni1E65
ENCODING 7781
SWIDTH 622 0
DWIDTH 15 0
BBX 12 21 2 0
BITMAP
0700
0700
0700
0000
03C0
0700
0E00
0000
3FC0
7FE0
FFE0
F820
F800
FF00
3FC0
0FF0
01F0
C1F0
FFF0
FFE0
7F80
ENDCHAR
STARTCHAR uni1E66
ENCODING 7782
SWIDTH 594 0
DWIDTH 14 0
BBX 13 25 1 0
BITMAP
0700
0700
0700
0000
38E0
1FC0
0F80
0000
1FF0
7FF0
7FF0
F830
F800
FE00
FF00
7FC0
3FF0
1FF0
07F8
01F8
00F8
C1F8
FFF0
FFE0
FF80
ENDCHAR
STARTCHAR uni1E67
ENCODING 7783
SWIDTH 622 0
DWIDTH 15 0
BBX 12 21 2 0
BITMAP
0700
0700
0700
0000
38E0
1FC0
0F80
0000
3FC0
7FE0
FFE0
F820
F800
FF00
3FC0
0FF0
01F0
C1F0
FFF0
FFE0
7F80
ENDCHAR
STARTCHAR uni1E68
ENCODING 7784
SWIDTH 594 0
DWIDTH 14 0
BBX 13 25 1 -4
BITMAP
0E00
0E00
0E00
0000
1FF0
7FF0
7FF0
F830
F800
FE00
FF00
7FC0
3FF0
1FF0
07F8
01F8
00F8
C1F8
FFF0
FFE0
FF80
0000
0700
0700
0700
ENDCHAR
STARTCHAR uni1E69
ENCODING 7785
SWIDTH 622 0
DWIDTH 15 0
BBX 12 21 2 -4
BITMAP
0E00
0E00
0E00
0000
3FC0
7FE0
FFE0
F820
F800
FF00
3FC0
0FF0
01F0
C1F0
FFF0
FFE0
7F80
0000
0E00
0E00
0E00
ENDCHAR
STARTCHAR uni1E6A
ENCODING 7786
SWIDTH 735 0
DWIDTH 18 0
BBX 17 21 0 0
BITMAP
01C000
01C000
01C000
000000
FFFF80
FFFF80
FFFF80
03E000
03E000
03E000
03E000
03E000
03E000
03E000
03E000
03E000
03E000
03E000
03E000
03E000
03E000
ENDCHAR
STARTCHAR uni1E6B
ENCODING 7787
SWIDTH 436 0
DWIDTH 10 0
BBX 9 20 1 0
BITMAP
1C00
1C00
1C00
0000
3C00
7C00
7C00
FF80
FF80
FF80
7C00
7C00
7C00
7C00
7C00
7C00
7C00
7F80
3F80
1F80
ENDCHAR
STARTCHAR uni1E6C
ENCODING 7788
SWIDTH 735 0
DWIDTH 18 0
BBX 17 21 0 -4
BITMAP
FFFF80
FFFF80
FFFF80
03E000
03E000
03E000
03E000
03E000
03E000
03E000
03E000
03E000
03E000
03E000
03E000
03E000
03E000
000000
01C000
01C000
01C000
ENDCHAR
STARTCHAR uni1E6D
ENCODING 7789
SWIDTH 436 0
DWIDTH 10 0
BBX 9 20 1 -4
BITMAP
3C00
7C00
7C00
FF80
FF80
FF80
7C00
7C00
7C00
7C00
7C00
7C00
7C00
7F80
3F80
1F80
0000
1C00
1C00
1C00
ENDCHAR
STARTCHAR uni1E6E
ENCODING 7790
SWIDTH 735 0
DWIDTH 18 0
BBX 17 21 0 -4
BITMAP
FFFF80
FFFF80
FFFF80
03E000
03E000
03E000
03E000
03E000
03E000
03E000
03E000
03E000
03E000
03E000
03E000
03E000
03E000
000000
07F800
07F800
07F800
ENDCHAR
STARTCHAR uni1E6F
ENCODING 7791
SWIDTH 436 0
DWIDTH 10 0
BBX 9 20 1 -4
BITMAP
3C00
7C00
7C00
FF80
FF80
FF80
7C00
7C00
7C00
7C00
7C00
7C00
7C00
7F80
3F80
1F80
0000
7F80
7F80
7F80
ENDCHAR
STARTCHAR uni1E70
ENCODING 7792
SWIDTH 735 0
DWIDTH 18 0
BBX 17 21 0 -4
BITMAP
FFFF80
FFFF80
FFFF80
03E000
03E000
03E000
03E000
03E000
03E000
03E000
03E000
03E000
03E000
03E000
03E000
03E000
03E000
000000
03E000
07F000
0E3800
ENDCHAR
STARTCHAR uni1E71
ENCODING 7793
SWIDTH 436 0
DWIDTH 10 0
BBX 9 20 1 -4
BITMAP
3C00
7C00
7C00
FF80
FF80
FF80
7C00
7C00
7C00
7C00
7C00
7C00
7C00
7F80
3F80
1F80
0000
3E00
7F00
E380
ENDCHAR
STARTCHAR uni1E72
ENCODING 7794
SWIDTH 783 0
DWIDTH 19 0
BBX 15 21 2 -4
BITMAP
F83E
F83E
F83E
F83E
F83E
F83E
F83E
F83E
F83E
F83E
F83E
F83E
F83E
7C7C
7FFC
3FF8
0FE0
0000
0E70
0E70
0E70
ENDCHAR
STARTCHAR uni1E73
ENCODING 7795
SWIDTH 693 0
DWIDTH 17 0
BBX 13 17 2 -4
BITMAP
F8F8
F8F8
F8F8
F8F8
F8F8
F8F8
F8F8
F8F8
F8F8
F9F8
FFF8
7EF8
3CF8
0000
1CE0
1CE0
1CE0
ENDCHAR
STARTCHAR uni1E74
ENCODING 7796
SWIDTH 783 0
DWIDTH 19 0
BBX 15 21 2 -4
BITMAP
F83E
F83E
F83E
F83E
F83E
F83E
F83E
F83E
F83E
F83E
F83E
F83E
F83E
7C7C
7FFC
3FF8
0FE0
0000
0F70
1FF0
1DE0
ENDCHAR
STARTCHAR uni1E75
ENCODING 7797
SWIDTH 693 0
DWIDTH 17 0
BBX 13 17 2 -4
BITMAP
F8F8
F8F8
F8F8
F8F8
F8F8
F8F8
F8F8
F8F8
F8F8
F9F8
FFF8
7EF8
3CF8
0000
1EE0
3FE0
3BC0
ENDCHAR
STARTCHAR uni1E76
ENCODING 7798
SWIDTH 783 0
DWIDTH 19 0
BBX 15 21 2 -4
BITMAP
F83E
F83E
F83E
F83E
F83E
F83E
F83E
F83E
F83E
F83E
F83E
F83E
F83E
7C7C
7FFC
3FF8
0FE0
0000
07C0
0FE0
1C70
ENDCHAR
STARTCHAR uni1E77
ENCODING 7799
SWIDTH 693 0
DWIDTH 17 0
BBX 13 17 2 -4
BITMAP
F8F8
F8F8
F8F8
F8F8
F8F8
F8F8
F8F8
F8F8
F8F8
F9F8
FFF8
7EF8
3CF8
0000
0F80
1FC0
38E0
ENDCHAR
STARTCHAR uni1E78
ENCODING 7800
SWIDTH 783 0
DWIDTH 19 0
BBX 15 25 2 0
BITMAP
00F0
01C0
0380
0000
0F70
1FF0
1DE0
0000
F83E
F83E
F83E
F83E
F83E
F83E
F83E
F83E
F83E
F83E
F83E
F83E
F83E
7C7C
7FFC
3FF8
0FE0
ENDCHAR
STARTCHAR uni1E79
ENCODING 7801
SWIDTH 693 0
DWIDTH 17 0
BBX 13 21 2 0
BITMAP
01E0
0380
0700
0000
1EE0
3FE0
3BC0
0000
F8F8
F8F8
F8F8
F8F8
F8F8
F8F8
F8F8
F8F8
F8F8
F9F8
FFF8
7EF8
3CF8
ENDCHAR
STARTCHAR uni1E7A
ENCODING 7802
SWIDTH 783 0
DWIDTH 19 0
BBX 15 25 2 0
BITMAP
0E70
0E70
0E70
0000
0FF0
0FF0
0FF0
0000
F83E
F83E
F83E
F83E
F83E
F83E
F83E
F83E
F83E
F83E
F83E
F83E
F83E
7C7C
7FFC
3FF8
0FE0
ENDCHAR
STARTCHAR uni1E7B
ENCODING 7803
SWIDTH 693 0
DWIDTH 17 0
BBX 13 21 2 0
BITMAP
1CE0
1CE0
1CE0
0000
1FE0
1FE0
1FE0
0000
F8F8
F8F8
F8F8
F8F8
F8F8
F8F8
F8F8
F8F8
F8F8
F9F8
FFF8
7EF8
3CF8
ENDCHAR
STARTCHAR uni1E7C
ENCODING 7804
SWIDTH 735 0
DWIDTH 18 0
BBX 17 21 0 0
BITMAP
07B800
0FF800
0EF000
000000
F80380
FC0780
7C0700
7C0700
7E0E00
3E0E00
3F0E00
1F1C00
1F1C00
1FBC00
0FB800
0FB800
0FF800
07F000
07F000
03E000
03E000
ENDCHAR
STARTCHAR uni1E7D
ENCODING 7805
SWIDTH 663 0
DWIDTH 16 0
BBX 15 17 0 0
BITMAP
0F70
1FF0
1DE0
0000
F80E
FC1C
7C1C
7E3C
3E38
3E38
3F78
1F70
1FF0
0FE0
0FE0
0FE0
07C0
ENDCHAR
STARTCHAR uni1E7E
ENCODING 7806
SWIDTH 735 0
DWIDTH 18 0
BBX 17 21 0 -4
BITMAP
F80380
FC0780
7C0700
7C0700
7E0E00
3E0E00
3F0E00
1F1C00
1F1C00
1FBC00
0FB800
0FB800
0FF800
07F000
07F000
03E000
03E000
000000
01C000
01C000
01C000
ENDCHAR
STARTCHAR uni1E7F
ENCODING 7807
SWIDTH 663 0
DWIDTH 16 0
BBX 15 17 0 -4
BITMAP
F80E
FC1C
7C1C
7E3C
3E38
3E38
3F78
1F70
1FF0
0FE0
0FE0
0FE0
07C0
0000
0380
0380
0380
ENDCHAR
STARTCHAR Wgrave
ENCODING 7808
SWIDTH 940 0
DWIDTH 23 0
BBX 22 21 0 0
BITMAP
03C000
00E000
007000
000000
F83C1C
F87C1C
F87C38
FC7C38
7C7E38
7CFE38
7CFE70
7EFE70
3EFE70
3FEF70
3FCFE0
3FCFE0
1FCFE0
1FCFE0
1F87C0
1F87C0
0F87C0
ENDCHAR
STARTCHAR wgrave
ENCODING 7809
SWIDTH 885 0
DWIDTH 21 0
BBX 20 17 1 0
BITMAP
03C000
00E000
007000
000000
F0F870
F8F870
78F8E0
79F8E0
79FCE0
7DFDC0
3DFDC0
3F9DC0
3F9FC0
3F9F80
1F1F80
1F0F80
1F0F80
ENDCHAR
STARTCHAR Wacute
ENCODING 7810
SWIDTH 940 0
DWIDTH 23 0
BBX 22 21 0 0
BITMAP
003C00
007000
00E000
000000
F83C1C
F87C1C
F87C38
FC7C38
7C7E38
7CFE38
7CFE70
7EFE70
3EFE70
3FEF70
3FCFE0
3FCFE0
1FCFE0
1FCFE0
1F87C0
1F87C0
0F87C0
ENDCHAR
STARTCHAR wacute
ENCODING 7811
SWIDTH 885 0
DWIDTH 21 0
BBX 20 17 1 0
BITMAP
003C00
007000
00E000
000000
F0F870
F8F870
78F8E0
79F8E0
79FCE0
7DFDC0
3DFDC0
3F9DC0
3F9FC0
3F9F80
1F1F80
1F0F80
1F0F80
ENDCHAR
STARTCHAR Wdieresis
ENCODING 7812
SWIDTH 940 0
DWIDTH 23 0
BBX 22 21 0 0
BITMAP
039C00
039C00
039C00
000000
F83C1C
F87C1C
F87C38
FC7C38
7C7E38
7CFE38
7CFE70
7EFE70
3EFE70
3FEF70
3FCFE0
3FCFE0
1FCFE0
1FCFE0
1F87C0
1F87C0
0F87C0
ENDCHAR
STARTCHAR wdieresis
ENCODING 7813
SWIDTH 885 0
DWIDTH 21 0
BBX 20 17 1 0
BITMAP
039C00
039C00
039C00
000000
F0F870
F8F870
78F8E0
79F8E0
79FCE0
7DFDC0
3DFDC0
3F9DC0
3F9FC0
3F9F80
1F1F80
1F0F80
1F0F80
ENDCHAR
STARTCHAR uni1E86
ENCODING 7814
SWIDTH 940 0
DWIDTH 23 0
BBX 22 21 0 0
BITMAP
007000
007000
007000
000000
F83C1C
F87C1C
F87C38
FC7C38
7C7E38
7CFE38
7CFE70
7EFE70
3EFE70
3FEF70
3FCFE0
3FCFE0
1FCFE0
1FCFE0
1F87C0
1F87C0
0F87C0
ENDCHAR
STARTCHAR uni1E87
ENCODING 7815
SWIDTH 885 0
DWIDTH 21 0
BBX 20 17 1 0
BITMAP
00E000
00E000
00E000
000000
F0F870
F8F870
78F8E0
79F8E0
79FCE0
7DFDC0
3DFDC0
3F9DC0
3F9FC0
3F9F80
1F1F80
1F0F80
1F0F80
ENDCHAR
STARTCHAR uni1E88
ENCODING 7816
SWIDTH 940 0
DWIDTH 23 0
BBX 22 21 0 -4
BITMAP
F83C1C
F87C1C
F87C38
FC7C38
7C7E38
7CFE38
7CFE70
7EFE70
3EFE70
3FEF70
3FCFE0
3FCFE0
1FCFE0
1FCFE0
1F87C0
1F87C0
0F87C0
000000
007000
007000
007000
ENDCHAR
STARTCHAR uni1E89
ENCODING 7817
SWIDTH 885 0
DWIDTH 21 0
BBX 20 17 1 -4
BITMAP
F0F870
F8F870
78F8E0
79F8E0
79FCE0
7DFDC0
3DFDC0
3F9DC0
3F9FC0
3F9F80
1F1F80
1F0F80
1F0F80
000000
00E000
00E000
00E000
ENDCHAR
STARTCHAR uni1E8A
ENCODING 7818
SWIDTH 699 0
DWIDTH 17 0
BBX 16 21 1 0
BITMAP
0380
0380
0380
0000
FC0F
7E1E
3E3C
3F38
1FF8
1FF0
0FE0
07E0
07E0
07F0
0FF0
0FF8
1EF8
3CFC
387E
787E
F03F
ENDCHAR
STARTCHAR uni1E8B
ENCODING 7819
SWIDTH 568 0
DWIDTH 14 0
BBX 13 17 0 0
BITMAP
0700
0700
0700
0000
FC78
7CF0
3EE0
3FE0
1FC0
1F80
0F80
0FC0
1FC0
3FE0
3BF0
79F0
F0F8
ENDCHAR
STARTCHAR uni1E8C
ENCODING 7820
SWIDTH 699 0
DWIDTH 17 0
BBX 16 21 1 0
BITMAP
0E70
0E70
0E70
0000
FC0F
7E1E
3E3C
3F38
1FF8
1FF0
0FE0
07E0
07E0
07F0
0FF0
0FF8
1EF8
3CFC
387E
787E
F03F
ENDCHAR
STARTCHAR uni1E8D
ENCODING 7821
SWIDTH 568 0
DWIDTH 14 0
BBX 13 17 0 0
BITMAP
39C0
39C0
39C0
0000
FC78
7CF0
3EE0
3FE0
1FC0
1F80
0F80
0FC0
1FC0
3FE0
3BF0
79F0
F0F8
ENDCHAR
STARTCHAR uni1E8E
ENCODING 7822
SWIDTH 738 0
DWIDTH 18 0
BBX 17 21 0 0
BITMAP
038000
038000
038000
000000
FC0780
7C0700
7E0E00
3F1E00
3F1C00
1FBC00
0FF800
0FF000
07F000
07E000
03E000
03E000
03E000
03E000
03E000
03E000
03E000
ENDCHAR
STARTCHAR uni1E8F
ENCODING 7823
SWIDTH 645 0
DWIDTH 15 0
BBX 15 22 0 -5
BITMAP
0380
0380
0380
0000
F81E
FC1C
7C3C
7E38
3E38
3E70
3F70
1FE0
1FE0
0FE0
0FC0
0FC0
0780
0780
0F00
0F00
1E00
3E00
ENDCHAR
STARTCHAR uni1E90
ENCODING 7824
SWIDTH 675 0
DWIDTH 16 0
BBX 13 21 1 0
BITMAP
0F80
1FC0
38E0
0000
FFF8
FFF8
FFF8
01F8
03F0
03F0
07E0
0FC0
1FC0
1F80
3F00
7E00
7E00
FC00
FFF8
FFF8
FFF8
ENDCHAR
STARTCHAR uni1E91
ENCODING 7825
SWIDTH 608 0
DWIDTH 15 0
BBX 12 17 1 0
BITMAP
0F80
1FC0
38E0
0000
FFF0
FFF0
FFF0
07F0
0FE0
1FC0
1F80
3F00
7F00
FE00
FFF0
FFF0
FFF0
ENDCHAR
STARTCHAR uni1E92
ENCODING 7826
SWIDTH 675 0
DWIDTH 16 0
BBX 13 21 1 -4
BITMAP
FFF8
FFF8
FFF8
01F8
03F0
03F0
07E0
0FC0
1FC0
1F80
3F00
7E00
7E00
FC00
FFF8
FFF8
FFF8
0000
0700
0700
0700
ENDCHAR
STARTCHAR uni1E93
ENCODING 7827
SWIDTH 608 0
DWIDTH 15 0
BBX 12 17 1 -4
BITMAP
FFF0
FFF0
FFF0
07F0
0FE0
1FC0
1F80
3F00
7F00
FE00
FFF0
FFF0
FFF0
0000
0E00
0E00
0E00
ENDCHAR
STARTCHAR uni1E94
ENCODING 7828
SWIDTH 675 0
DWIDTH 16 0
BBX 13 21 1 -4
BITMAP
FFF8
FFF8
FFF8
01F8
03F0
03F0
07E0
0FC0
1FC0
1F80
3F00
7E00
7E00
FC00
FFF8
FFF8
FFF8
0000
3FC0
3FC0
3FC0
ENDCHAR
STARTCHAR uni1E95
ENCODING 7829
SWIDTH 608 0
DWIDTH 15 0
BBX 12 17 1 -4
BITMAP
FFF0
FFF0
FFF0
07F0
0FE0
1FC0
1F80
3F00
7F00
FE00
FFF0
FFF0
FFF0
0000
3FC0
3FC0
3FC0
ENDCHAR
STARTCHAR uni1E96
ENCODING 7830
SWIDTH 693 0
DWIDTH 17 0
BBX 13 22 2 -4
BITMAP
F800
F800
F800
F800
F800
F9E0
FBF0
FFF8
FFF8
FCF8
F8F8
F8F8
F8F8
F8F8
F8F8
F8F8
F8F8
F8F8
0000
1FE0
1FE0
1FE0
ENDCHAR
STARTCHAR uni1E97
ENCODING 7831
SWIDTH 436 0
DWIDTH 10 0
BBX 9 20 1 0
BITMAP
E700
E700
E700
0000
3C00
7C00
7C00
FF80
FF80
FF80
7C00
7C00
7C00
7C00
7C00
7C00
7C00
7F80
3F80
1F80
ENDCHAR
STARTCHAR uni1E98
ENCODING 7832
SWIDTH 885 0
DWIDTH 21 0
BBX 20 18 1 0
BITMAP
006000
009000
009000
006000
000000
F0F870
F8F870
78F8E0
79F8E0
79FCE0
7DFDC0
3DFDC0
3F9DC0
3F9FC0
3F9F80
1F1F80
1F0F80
1F0F80
ENDCHAR
STARTCHAR uni1E99
ENCODING 7833
SWIDTH 645 0
DWIDTH 15 0
BBX 15 23 0 -5
BITMAP
0300
0480
0480
0300
0000
F81E
FC1C
7C3C
7E38
3E38
3E70
3F70
1FE0
1FE0
0FE0
0FC0
0FC0
0780
0780
0F00
0F00
1E00
3E00
ENDCHAR
STARTCHAR uni1EA0
ENCODING 7840
SWIDTH 773 0
DWIDTH 19 0
BBX 18 21 0 -4
BITMAP
03F000
03F000
03F800
07F800
07F800
07FC00
0E7C00
0E7E00
1E3E00
1C3E00
1FFF00
3FFF00
3FFF80
780F80
700F80
7007C0
E007C0
000000
00E000
00E000
00E000
ENDCHAR
STARTCHAR uni1EA1
ENCODING 7841
SWIDTH 623 0
DWIDTH 15 0
BBX 13 17 1 -4
BITMAP
3F80
7FE0
7FF0
41F0
01F0
3FF0
7FF0
FFF0
F9F0
F9F0
FFF8
7FF8
3CF8
0000
0700
0700
0700
ENDCHAR
STARTCHAR uni1EA4
ENCODING 7844
SWIDTH 773 0
DWIDTH 19 0
BBX 18 25 0 0
BITMAP
007800
00E000
01C000
000000
01F000
03F800
071C00
000000
03F000
03F000
03F800
07F800
07F800
07FC00
0E7C00
0E7E00
1E3E00
1C3E00
1FFF00
3FFF00
3FFF80
780F80
700F80
7007C0
E007C0
ENDCHAR
STARTCHAR uni1EA5
ENCODING 7845
SWIDTH 623 0
DWIDTH 15 0
BBX 13 21 1 0
BITMAP
03C0
0700
0E00
0000
0F80
1FC0
38E0
0000
3F80
7FE0
7FF0
41F0
01F0
3FF0
7FF0
FFF0
F9F0
F9F0
FFF8
7FF8
3CF8
ENDCHAR
STARTCHAR uni1EA6
ENCODING 7846
SWIDTH 773 0
DWIDTH 19 0
BBX 18 25 0 0
BITMAP
078000
01C000
00E000
000000
01F000
03F800
071C00
000000
03F000
03F000
03F800
07F800
07F800
07FC00
0E7C00
0E7E00
1E3E00
1C3E00
1FFF00
3FFF00
3FFF80
780F80
700F80
7007C0
E007C0
ENDCHAR
STARTCHAR uni1EA7
ENCODING 7847
SWIDTH 623 0
DWIDTH 15 0
BBX 13 21 1 0
BITMAP
3C00
0E00
0700
0000
0F80
1FC0
38E0
0000
3F80
7FE0
7FF0
41F0
01F0
3FF0
7FF0
FFF0
F9F0
F9F0
FFF8
7FF8
3CF8
ENDCHAR
STARTCHAR uni1EAA
ENCODING 7850
SWIDTH 773 0
DWIDTH 19 0
BBX 18 25 0 0
BITMAP
03DC00
07FC00
077800
000000
01F000
03F800
071C00
000000
03F000
03F000
03F800
07F800
07F800
07FC00
0E7C00
0E7E00
1E3E00
1C3E00
1FFF00
3FFF00
3FFF80
780F80
700F80
7007C0
E007C0
ENDCHAR
STARTCHAR uni1EAB
ENCODING 7851
SWIDTH 623 0
DWIDTH 15 0
BBX 13 21 1 0
BITMAP
1EE0
3FE0
3BC0
0000
0F80
1FC0
38E0
0000
3F80
7FE0
7FF0
41F0
01F0
3FF0
7FF0
FFF0
F9F0
F9F0
FFF8
7FF8
3CF8
ENDCHAR
STARTCHAR uni1EAC
ENCODING 7852
SWIDTH 773 0
DWIDTH 19 0
BBX 18 25 0 -4
BITMAP
01F000
03F800
071C00
000000
03F000
03F000
03F800
07F800
07F800
07FC00
0E7C00
0E7E00
1E3E00
1C3E00
1FFF00
3FFF00
3FFF80
780F80
700F80
7007C0
E007C0
000000
00E000
00E000
00E000
ENDCHAR
STARTCHAR uni1EAD
ENCODING 7853
SWIDTH 623 0
DWIDTH 15 0
BBX 13 21 1 -4
BITMAP
0F80
1FC0
38E0
0000
3F80
7FE0
7FF0
41F0
01F0
3FF0
7FF0
FFF0
F9F0
F9F0
FFF8
7FF8
3CF8
0000
0700
0700
0700
ENDCHAR
STARTCHAR uni1EAE
ENCODING 7854
SWIDTH 773 0
DWIDTH 19 0
BBX 18 25 0 0
BITMAP
007800
00E000
01C000
000000
071C00
03F800
01F000
000000
03F000
03F000
03F800
07F800
07F800
07FC00
0E7C00
0E7E00
1E3E00
1C3E00
1FFF00
3FFF00
3FFF80
780F80
700F80
7007C0
E007C0
ENDCHAR
STARTCHAR uni1EAF
ENCODING 7855
SWIDTH 623 0
DWIDTH 15 0
BBX 13 21 1 0
BITMAP
03C0
0700
0E00
0000
38E0
1FC0
0F80
0000
3F80
7FE0
7FF0
41F0
01F0
3FF0
7FF0
FFF0
F9F0
F9F0
FFF8
7FF8
3CF8
ENDCHAR
STARTCHAR uni1EB0
ENCODING 7856
SWIDTH 773 0
DWIDTH 19 0
BBX 18 25 0 0
BITMAP
078000
01C000
00E000
000000
071C00
03F800
01F000
000000
03F000
03F000
03F800
07F800
07F800
07FC00
0E7C00
0E7E00
1E3E00
1C3E00
1FFF00
3FFF00
3FFF80
780F80
700F80
7007C0
E007C0
ENDCHAR
STARTCHAR uni1EB1
ENCODING 7857
SWIDTH 623 0
DWIDTH 15 0
BBX 13 21 1 0
BITMAP
3C00
0E00
0700
0000
38E0
1FC0
0F80
0000
3F80
7FE0
7FF0
41F0
01F0
3FF0
7FF0
FFF0
F9F0
F9F0
FFF8
7FF8
3CF8
ENDCHAR
STARTCHAR uni1EB4
ENCODING 7860
SWIDTH 773 0
DWIDTH 19 0
BBX 18 25 0 0
BITMAP
03DC00
07FC00
077800
000000
071C00
03F800
01F000
000000
03F000
03F000
03F800
07F800
07F800
07FC00
0E7C00
0E7E00
1E3E00
1C3E00
1FFF00
3FFF00
3FFF80
780F80
700F80
7007C0
E007C0
ENDCHAR
STARTCHAR uni1EB5
ENCODING 7861
SWIDTH 623 0
DWIDTH 15 0
BBX 13 21 1 0
BITMAP
1EE0
3FE0
3BC0
0000
38E0
1FC0
0F80
0000
3F80
7FE0
7FF0
41F0
01F0
3FF0
7FF0
FFF0
F9F0
F9F0
FFF8
7FF8
3CF8
ENDCHAR
STARTCHAR uni1EB6
ENCODING 7862
SWIDTH 773 0
DWIDTH 19 0
BBX 18 25 0 -4
BITMAP
071C00
03F800
01F000
000000
03F000
03F000
03F800
07F800
07F800
07FC00
0E7C00
0E7E00
1E3E00
1C3E00
1FFF00
3FFF00
3FFF80
780F80
700F80
7007C0
E007C0
000000
00E000
00E000
00E000
ENDCHAR
STARTCHAR uni1EB7
ENCODING 7863
SWIDTH 623 0
DWIDTH 15 0
BBX 13 21 1 -4
BITMAP
38E0
1FC0
0F80
0000
3F80
7FE0
7FF0
41F0
01F0
3FF0
7FF0
FFF0
F9F0
F9F0
FFF8
7FF8
3CF8
0000
0700
0700
0700
ENDCHAR
STARTCHAR uni1EB8
ENCODING 7864
SWIDTH 645 0
DWIDTH 15 0
BBX 13 21 2 -4
BITMAP
FFF0
FFF0
FFF0
F800
F800
F800
F800
FFE0
FFE0
FFE0
F800
F800
F800
F800
FFF8
FFF8
FFF8
0000
0E00
0E00
0E00
ENDCHAR
STARTCHAR uni1EB9
ENCODING 7865
SWIDTH 614 0
DWIDTH 15 0
BBX 13 17 1 -4
BITMAP
0FC0
3FE0
7FF0
78F0
F8F8
FFF8
FFF8
FFF8
F800
7C08
7FF8
3FF8
0FF0
0000
0700
0700
0700
ENDCHAR
STARTCHAR uni1EBC
ENCODING 7868
SWIDTH 645 0
DWIDTH 15 0
BBX 13 21 2 0
BITMAP
3DC0
7FC0
7780
0000
FFF0
FFF0
FFF0
F800
F800
F800
F800
FFE0
FFE0
FFE0
F800
F800
F800
F800
FFF8
FFF8
FFF8
ENDCHAR
STARTCHAR uni1EBD
ENCODING 7869
SWIDTH 614 0
DWIDTH 15 0
BBX 13 17 1 0
BITMAP
1EE0
3FE0
3BC0
0000
0FC0
3FE0
7FF0
78F0
F8F8
FFF8
FFF8
FFF8
F800
7C08
7FF8
3FF8
0FF0
ENDCHAR
STARTCHAR uni1EBE
ENCODING 7870
SWIDTH 645 0
DWIDTH 15 0
BBX 13 25 2 0
BITMAP
03C0
0700
0E00
0000
0F80
1FC0
38E0
0000
FFF0
FFF0
FFF0
F800
F800
F800
F800
FFE0
FFE0
FFE0
F800
F800
F800
F800
FFF8
FFF8
FFF8
ENDCHAR
STARTCHAR uni1EBF
ENCODING 7871
SWIDTH 614 0
DWIDTH 15 0
BBX 13 21 1 0
BITMAP
01E0
0380
0700
0000
0F80
1FC0
38E0
0000
0FC0
3FE0
7FF0
78F0
F8F8
FFF8
FFF8
FFF8
F800
7C08
7FF8
3FF8
0FF0
ENDCHAR
STARTCHAR uni1EC0
ENCODING 7872
SWIDTH 645 0
DWIDTH 15 0
BBX 13 25 2 0
BITMAP
3C00
0E00
0700
0000
0F80
1FC0
38E0
0000
FFF0
FFF0
FFF0
F800
F800
F800
F800
FFE0
FFE0
FFE0
F800
F800
F800
F800
FFF8
FFF8
FFF8
ENDCHAR
STARTCHAR uni1EC1
ENCODING 7873
SWIDTH 614 0
DWIDTH 15 0
BBX 13 21 1 0
BITMAP
1E00
0700
0380
0000
0F80
1FC0
38E0
0000
0FC0
3FE0
7FF0
78F0
F8F8
FFF8
FFF8
FFF8
F800
7C08
7FF8
3FF8
0FF0
ENDCHAR
STARTCHAR uni1EC4
ENCODING 7876
SWIDTH 645 0
DWIDTH 15 0
BBX 13 25 2 0
BITMAP
1EE0
3FE0
3BC0
0000
0F80
1FC0
38E0
0000
FFF0
FFF0
FFF0
F800
F800
F800
F800
FFE0
FFE0
FFE0
F800
F800
F800
F800
FFF8
FFF8
FFF8
ENDCHAR
STARTCHAR uni1EC5
ENCODING 7877
SWIDTH 614 0
DWIDTH 15 0
BBX 13 21 1 0
BITMAP
1EE0
3FE0
3BC0
0000
0F80
1FC0
38E0
0000
0FC0
3FE0
7FF0
78F0
F8F8
FFF8
FFF8
FFF8
F800
7C08
7FF8
3FF8
0FF0
ENDCHAR
STARTCHAR uni1EC6
ENCODING 7878
SWIDTH 645 0
DWIDTH 15 0
BBX 13 25 2 -4
BITMAP
1F00
3F80
71C0
0000
FFF0
FFF0
FFF0
F800
F800
F800
F800
FFE0
FFE0
FFE0
F800
F800
F800
F800
FFF8
FFF8
FFF8
0000
0E00
0E00
0E00
ENDCHAR
STARTCHAR uni1EC7
ENCODING 7879
SWIDTH 614 0
DWIDTH 15 0
BBX 13 21 1 -4
BITMAP
0F80
1FC0
38E0
0000
0FC0
3FE0
7FF0
78F0
F8F8
FFF8
FFF8
FFF8
F800
7C08
7FF8
3FF8
0FF0
0000
0700
0700
0700
ENDCHAR
STARTCHAR uni1ECA
ENCODING 7882
SWIDTH 361 0
DWIDTH 9 0
BBX 5 21 2 -4
BITMAP
F8
F8
F8
F8
F8
F8
F8
F8
F8
F8
F8
F8
F8
F8
F8
F8
F8
00
70
70
70
ENDCHAR
STARTCHAR uni1ECB
ENCODING 7883
SWIDTH 361 0
DWIDTH 9 0
BBX 5 22 2 -4
BITMAP
F8
F8
F8
00
00
F8
F8
F8
F8
F8
F8
F8
F8
F8
F8
F8
F8
F8
00
70
70
70
ENDCHAR
STARTCHAR uni1ECC
ENCODING 7884
SWIDTH 855 0
DWIDTH 21 0
BBX 19 21 1 -4
BITMAP
03F800
0FFE00
3FFF80
7E0FC0
7C07C0
FC07E0
F803E0
F803E0
F803E0
F803E0
F803E0
FC07E0
7C07C0
7E0FC0
3FFF80
0FFE00
03F800
000000
00E000
00E000
00E000
ENDCHAR
STARTCHAR uni1ECD
ENCODING 7885
SWIDTH 675 0
DWIDTH 16 0
BBX 14 17 1 -4
BITMAP
0FC0
3FF0
7FF8
7CF8
F87C
F87C
F87C
F87C
F87C
7CF8
7FF8
3FF0
0FC0
0000
0380
0380
0380
ENDCHAR
STARTCHAR uni1ED0
ENCODING 7888
SWIDTH 855 0
DWIDTH 21 0
BBX 19 25 1 0
BITMAP
003C00
007000
00E000
000000
01F000
03F800
071C00
000000
03F800
0FFE00
3FFF80
7E0FC0
7C07C0
FC07E0
F803E0
F803E0
F803E0
F803E0
F803E0
FC07E0
7C07C0
7E0FC0
3FFF80
0FFE00
03F800
ENDCHAR
STARTCHAR uni1ED1
ENCODING 7889
SWIDTH 675 0
DWIDTH 16 0
BBX 14 21 1 0
BITMAP
01E0
0380
0700
0000
07C0
0FE0
1C70
0000
0FC0
3FF0
7FF8
7CF8
F87C
F87C
F87C
F87C
F87C
7CF8
7FF8
3FF0
0FC0
ENDCHAR
STARTCHAR uni1ED2
ENCODING 7890
SWIDTH 855 0
DWIDTH 21 0
BBX 19 25 1 0
BITMAP
03C000
00E000
007000
000000
01F000
03F800
071C00
000000
03F800
0FFE00
3FFF80
7E0FC0
7C07C0
FC07E0
F803E0
F803E0
F803E0
F803E0
F803E0
FC07E0
7C07C0
7E0FC0
3FFF80
0FFE00
03F800
ENDCHAR
STARTCHAR uni1ED3
ENCODING 7891
SWIDTH 675 0
DWIDTH 16 0
BBX 14 21 1 0
BITMAP
1E00
0700
0380
0000
07C0
0FE0
1C70
0000
0FC0
3FF0
7FF8
7CF8
F87C
F87C
F87C
F87C
F87C
7CF8
7FF8
3FF0
0FC0
ENDCHAR
STARTCHAR uni1ED6
ENCODING 7894
SWIDTH 855 0
DWIDTH 21 0
BBX 19 25 1 0
BITMAP
03DC00
07FC00
077800
000000
01F000
03F800
071C00
000000
03F800
0FFE00
3FFF80
7E0FC0
7C07C0
FC07E0
F803E0
F803E0
F803E0
F803E0
F803E0
FC07E0
7C07C0
7E0FC0
3FFF80
0FFE00
03F800
ENDCHAR
STARTCHAR uni1ED7
ENCODING 7895
SWIDTH 675 0
DWIDTH 16 0
BBX 14 21 1 0
BITMAP
0F70
1FF0
1DE0
0000
07C0
0FE0
1C70
0000
0FC0
3FF0
7FF8
7CF8
F87C
F87C
F87C
F87C
F87C
7CF8
7FF8
3FF0
0FC0
ENDCHAR
STARTCHAR uni1ED8
ENCODING 7896
SWIDTH 855 0
DWIDTH 21 0
BBX 19 25 1 -4
BITMAP
01F000
03F800
071C00
000000
03F800
0FFE00
3FFF80
7E0FC0
7C07C0
FC07E0
F803E0
F803E0
F803E0
F803E0
F803E0
FC07E0
7C07C0
7E0FC0
3FFF80
0FFE00
03F800
000000
00E000
00E000
00E000
ENDCHAR
STARTCHAR uni1ED9
ENCODING 7897
SWIDTH 675 0
DWIDTH 16 0
BBX 14 21 1 -4
BITMAP
07C0
0FE0
1C70
0000
0FC0
3FF0
7FF8
7CF8
F87C
F87C
F87C
F87C
F87C
7CF8
7FF8
3FF0
0FC0
0000
0380
0380
0380
ENDCHAR
STARTCHAR uni1EDA
ENCODING 7898
SWIDTH 855 0
DWIDTH 21 0
BBX 22 21 1 0
BITMAP
000F00
001C00
003800
000000
03F87C
0FFE7C
3FFFFC
7E0FFC
7C07FC
FC07FC
F803F8
F803E0
F803E0
F803E0
F803E0
FC07E0
7C07C0
7E0FC0
3FFF80
0FFE00
03F800
ENDCHAR
STARTCHAR uni1EDB
ENCODING 7899
SWIDTH 675 0
DWIDTH 16 0
BBX 18 17 1 0
BITMAP
003C00
007000
00E000
000000
0FC7C0
3FF7C0
7FFFC0
7CFFC0
F87FC0
F87DC0
F87F80
F87E00
F87C00
7CF800
7FF800
3FF000
0FC000
ENDCHAR
STARTCHAR uni1EDC
ENCODING 7900
SWIDTH 855 0
DWIDTH 21 0
BBX 22 21 1 0
BITMAP
00F000
003800
001C00
000000
03F87C
0FFE7C
3FFFFC
7E0FFC
7C07FC
FC07FC
F803F8
F803E0
F803E0
F803E0
F803E0
FC07E0
7C07C0
7E0FC0
3FFF80
0FFE00
03F800
ENDCHAR
STARTCHAR uni1EDD
ENCODING 7901
SWIDTH 675 0
DWIDTH 16 0
BBX 18 17 1 0
BITMAP
03C000
00E000
007000
000000
0FC7C0
3FF7C0
7FFFC0
7CFFC0
F87FC0
F87DC0
F87F80
F87E00
F87C00
7CF800
7FF800
3FF000
0FC000
ENDCHAR
STARTCHAR uni1EE0
ENCODING 7904
SWIDTH 855 0
DWIDTH 21 0
BBX 22 21 1 0
BITMAP
007B80
00FF80
00EF00
000000
03F87C
0FFE7C
3FFFFC
7E0FFC
7C07FC
FC07FC
F803F8
F803E0
F803E0
F803E0
F803E0
FC07E0
7C07C0
7E0FC0
3FFF80
0FFE00
03F800
ENDCHAR
STARTCHAR uni1EE1
ENCODING 7905
SWIDTH 675 0
DWIDTH 16 0
BBX 18 17 1 0
BITMAP
03DC00
07FC00
077800
000000
0FC7C0
3FF7C0
7FFFC0
7CFFC0
F87FC0
F87DC0
F87F80
F87E00
F87C00
7CF800
7FF800
3FF000
0FC000
ENDCHAR
STARTCHAR uni1EE2
ENCODING 7906
SWIDTH 855 0
DWIDTH 21 0
BBX 22 21 1 -4
BITMAP
03F87C
0FFE7C
3FFFFC
7E0FFC
7C07FC
FC07FC
F803F8
F803E0
F803E0
F803E0
F803E0
FC07E0
7C07C0
7E0FC0
3FFF80
0FFE00
03F800
000000
007000
007000
007000
ENDCHAR
STARTCHAR uni1EE3
ENCODING 7907
SWIDTH 675 0
DWIDTH 16 0
BBX 18 17 1 -4
BITMAP
0FC7C0
3FF7C0
7FFFC0
7CFFC0
F87FC0
F87DC0
F87F80
F87E00
F87C00
7CF800
7FF800
3FF000
0FC000
000000
038000
038000
038000
ENDCHAR
STARTCHAR uni1EE4
ENCODING 7908
SWIDTH 783 0
DWIDTH 19 0
BBX 15 21 2 -4
BITMAP
F83E
F83E
F83E
F83E
F83E
F83E
F83E
F83E
F83E
F83E
F83E
F83E
F83E
7C7C
7FFC
3FF8
0FE0
0000
0380
0380
0380
ENDCHAR
STARTCHAR uni1EE5
ENCODING 7909
SWIDTH 693 0
DWIDTH 17 0
BBX 13 17 2 -4
BITMAP
F8F8
F8F8
F8F8
F8F8
F8F8
F8F8
F8F8
F8F8
F8F8
F9F8
FFF8
7EF8
3CF8
0000
0700
0700
0700
ENDCHAR
STARTCHAR uni1EE8
ENCODING 7912
SWIDTH 783 0
DWIDTH 19 0
BBX 19 21 2 0
BITMAP
003C00
007000
00E000
000000
F83FE0
F83FE0
F83FE0
F83FE0
F83FE0
F83EE0
F83FC0
F83F00
F83E00
F83E00
F83E00
F83E00
F83E00
7C7C00
7FFC00
3FF800
0FE000
ENDCHAR
STARTCHAR uni1EE9
ENCODING 7913
SWIDTH 693 0
DWIDTH 17 0
BBX 17 17 2 0
BITMAP
007800
00E000
01C000
000000
F8FF80
F8FF80
F8FF80
F8FF80
F8FF80
F8FB80
F8FF00
F8FC00
F8F800
F9F800
FFF800
7EF800
3CF800
ENDCHAR
STARTCHAR uni1EEA
ENCODING 7914
SWIDTH 783 0
DWIDTH 19 0
BBX 19 21 2 0
BITMAP
03C000
00E000
007000
000000
F83FE0
F83FE0
F83FE0
F83FE0
F83FE0
F83EE0
F83FC0
F83F00
F83E00
F83E00
F83E00
F83E00
F83E00
7C7C00
7FFC00
3FF800
0FE000
ENDCHAR
STARTCHAR uni1EEB
ENCODING 7915
SWIDTH 693 0
DWIDTH 17 0
BBX 17 17 2 0
BITMAP
078000
01C000
00E000
000000
F8FF80
F8FF80
F8FF80
F8FF80
F8FF80
F8FB80
F8FF00
F8FC00
F8F800
F9F800
FFF800
7EF800
3CF800
ENDCHAR
STARTCHAR uni1EEE
ENCODING 7918
SWIDTH 783 0
DWIDTH 19 0
BBX 19 21 2 0
BITMAP
01EE00
03FE00
03BC00
000000
F83FE0
F83FE0
F83FE0
F83FE0
F83FE0
F83EE0
F83FC0
F83F00
F83E00
F83E00
F83E00
F83E00
F83E00
7C7C00
7FFC00
3FF800
0FE000
ENDCHAR
STARTCHAR uni1EEF
ENCODING 7919
SWIDTH 693 0
DWIDTH 17 0
BBX 17 17 2 0
BITMAP
03DC00
07FC00
077800
000000
F8FF80
F8FF80
F8FF80
F8FF80
F8FF80
F8FB80
F8FF00
F8FC00
F8F800
F9F800
FFF800
7EF800
3CF800
ENDCHAR
STARTCHAR uni1EF0
ENCODING 7920
SWIDTH 783 0
DWIDTH 19 0
BBX 19 21 2 -4
BITMAP
F83FE0
F83FE0
F83FE0
F83FE0
F83FE0
F83EE0
F83FC0
F83F00
F83E00
F83E00
F83E00
F83E00
F83E00
7C7C00
7FFC00
3FF800
0FE000
000000
01C000
01C000
01C000
ENDCHAR
STARTCHAR uni1EF1
ENCODING 7921
SWIDTH 693 0
DWIDTH 17 0
BBX 17 17 2 -4
BITMAP
F8FF80
F8FF80
F8FF80
F8FF80
F8FF80
F8FB80
F8FF00
F8FC00
F8F800
F9F800
FFF800
7EF800
3CF800
000000
038000
038000
038000
ENDCHAR
STARTCHAR Ygrave
ENCODING 7922
SWIDTH 738 0
DWIDTH 18 0
BBX 17 21 0 0
BITMAP
0F0000
038000
01C000
000000
FC0780
7C0700
7E0E00
3F1E00
3F1C00
1FBC00
0FF800
0FF000
07F000
07E000
03E000
03E000
03E000
03E000
03E000
03E000
03E000
ENDCHAR
STARTCHAR ygrave
ENCODING 7923
SWIDTH 645 0
DWIDTH 15 0
BBX 15 22 0 -5
BITMAP
1E00
0700
0380
0000
F81E
FC1C
7C3C
7E38
3E38
3E70
3F70
1FE0
1FE0
0FE0
0FC0
0FC0
0780
0780
0F00
0F00
1E00
3E00
ENDCHAR
STARTCHAR uni1EF4
ENCODING 7924
SWIDTH 738 0
DWIDTH 18 0
BBX 17 21 0 -4
BITMAP
FC0780
7C0700
7E0E00
3F1E00
3F1C00
1FBC00
0FF800
0FF000
07F000
07E000
03E000
03E000
03E000
03E000
03E000
03E000
03E000
000000
01C000
01C000
01C000
ENDCHAR
STARTCHAR uni1EF5
ENCODING 7925
SWIDTH 645 0
DWIDTH 15 0
BBX 15 22 0 -9
BITMAP
F81E
FC1C
7C3C
7E38
3E38
3E70
3F70
1FE0
1FE0
0FE0
0FC0
0FC0
0780
0780
0F00
0F00
1E00
3E00
0000
0700
0700
0700
ENDCHAR
STARTCHAR uni1EF8
ENCODING 7928
SWIDTH 738 0
DWIDTH 18 0
BBX 17 21 0 0
BITMAP
07B800
0FF800
0EF000
000000
FC0780
7C0700
7E0E00
3F1E00
3F1C00
1FBC00
0FF800
0FF000
07F000
07E000
03E000
03E000
03E000
03E000
03E000
03E000
03E000
ENDCHAR
STARTCHAR uni1EF9
ENCODING 7929
SWIDTH 645 0
DWIDTH 15 0
BBX 15 22 0 -5
BITMAP
0F70
1FF0
1DE0
0000
F81E
FC1C
7C3C
7E38
3E38
3E70
3F70
1FE0
1FE0
0FE0
0FC0
0FC0
0780
0780
0F00
0F00
1E00
3E00
ENDCHAR
STARTCHAR uni2000
ENCODING 8192
SWIDTH 500 0
DWIDTH 13 0
BBX 1 1 0 0
BITMAP
00
ENDCHAR
STARTCHAR uni2001
ENCODING 8193
SWIDTH 1000 0
DWIDTH 25 0
BBX 1 1 0 0
BITMAP
00
ENDCHAR
STARTCHAR uni2002
ENCODING 8194
SWIDTH 500 0
DWIDTH 13 0
BBX 1 1 0 0
BITMAP
00
ENDCHAR
STARTCHAR uni2003
ENCODING 8195
SWIDTH 1000 0
DWIDTH 25 0
BBX 1 1 0 0
BITMAP
00
ENDCHAR
STARTCHAR uni2004
ENCODING 8196
SWIDTH 333 0
DWIDTH 8 0
BBX 1 1 0 0
BITMAP
00
ENDCHAR
STARTCHAR uni2005
ENCODING 8197
SWIDTH 250 0
DWIDTH 6 0
BBX 1 1 0 0
BITMAP
00
ENDCHAR
STARTCHAR uni2006
ENCODING 8198
SWIDTH 167 0
DWIDTH 4 0
BBX 1 1 0 0
BITMAP
00
ENDCHAR
STARTCHAR uni2007
ENCODING 8199
SWIDTH 687 0
DWIDTH 16 0
BBX 1 1 0 0
BITMAP
00
ENDCHAR
STARTCHAR uni2008
ENCODING 8200
SWIDTH 343 0
DWIDTH 8 0
BBX 1 1 0 0
BITMAP
00
ENDCHAR
STARTCHAR uni2009
ENCODING 8201
SWIDTH 200 0
DWIDTH 5 0
BBX 1 1 0 0
BITMAP
00
ENDCHAR
STARTCHAR uni200A
ENCODING 8202
SWIDTH 100 0
DWIDTH 3 0
BBX 1 1 0 0
BITMAP
00
ENDCHAR
STARTCHAR uni200B
ENCODING 8203
SWIDTH 0 0
DWIDTH 0 0
BBX 1 1 0 0
BITMAP
00
ENDCHAR
STARTCHAR uni2010
ENCODING 8208
SWIDTH 289 0
DWIDTH 7 0
BBX 5 3 1 6
BITMAP
F8
F8
F8
ENDCHAR
STARTCHAR uni2011
ENCODING 8209
SWIDTH 289 0
DWIDTH 7 0
BBX 5 3 1 6
BITMAP
F8
F8
F8
ENDCHAR
STARTCHAR figuredash
ENCODING 8210
SWIDTH 500 0
DWIDTH 12 0
BBX 10 3 1 6
BITMAP
FFC0
FFC0
FFC0
ENDCHAR
STARTCHAR endash
ENCODING 8211
SWIDTH 500 0
DWIDTH 12 0
BBX 10 3 1 6
BITMAP
FFC0
FFC0
FFC0
ENDCHAR
STARTCHAR emdash
ENCODING 8212
SWIDTH 1000 0
DWIDTH 24 0
BBX 23 2 1 6
BITMAP
FFFFFE
FFFFFE
ENDCHAR
STARTCHAR afii00208
ENCODING 8213
SWIDTH 1000 0
DWIDTH 24 0
BBX 23 2 1 6
BITMAP
FFFFFE
FFFFFE
ENDCHAR
STARTCHAR quoteleft
ENCODING 8216
SWIDTH 265 0
DWIDTH 6 0
BBX 5 8 1 10
BITMAP
18
78
E0
F8
F8
F8
F8
F8
ENDCHAR
STARTCHAR quoteright
ENCODING 8217
SWIDTH 265 0
DWIDTH 6 0
BBX 5 8 1 10
BITMAP
F8
F8
F8
F8
F8
38
F0
C0
ENDCHAR
STARTCHAR quotesinglbase
ENCODING 8218
SWIDTH 265 0
DWIDTH 6 0
BBX 5 9 1 -4
BITMAP
F8
F8
F8
F8
F8
38
70
F0
C0
ENDCHAR
STARTCHAR quotereversed
ENCODING 8219
SWIDTH 265 0
DWIDTH 6 0
BBX 5 8 1 10
BITMAP
F8
F8
F8
F8
F8
E0
78
18
ENDCHAR
STARTCHAR quotedblleft
ENCODING 8220
SWIDTH 530 0
DWIDTH 13 0
BBX 11 8 1 10
BITMAP
1860
79E0
E380
FBE0
FBE0
FBE0
FBE0
FBE0
ENDCHAR
STARTCHAR quotedblright
ENCODING 8221
SWIDTH 530 0
DWIDTH 13 0
BBX 11 8 1 10
BITMAP
FBE0
FBE0
FBE0
FBE0
FBE0
38E0
F3C0
C300
ENDCHAR
STARTCHAR quotedblbase
ENCODING 8222
SWIDTH 530 0
DWIDTH 13 0
BBX 11 9 1 -4
BITMAP
FBE0
FBE0
FBE0
FBE0
FBE0
38E0
70C0
F3C0
C300
ENDCHAR
STARTCHAR uni201F
ENCODING 8223
SWIDTH 530 0
DWIDTH 13 0
BBX 11 8 1 10
BITMAP
FBE0
FBE0
FBE0
FBE0
FBE0
E380
79E0
1860
ENDCHAR
STARTCHAR dagger
ENCODING 8224
SWIDTH 693 0
DWIDTH 16 0
BBX 12 21 2 -4
BITMAP
0F00
0F00
0F00
0F00
0F00
0F00
FFF0
FFF0
FFF0
0F00
0F00
0F00
0F00
0F00
0F00
0F00
0F00
0F00
0F00
0F00
0F00
ENDCHAR
STARTCHAR daggerdbl
ENCODING 8225
SWIDTH 693 0
DWIDTH 16 0
BBX 12 21 2 -4
BITMAP
0F00
0F00
0F00
0F00
0F00
FFF0
FFF0
FFF0
0F00
0F00
0F00
0F00
FFF0
FFF0
FFF0
0F00
0F00
0F00
0F00
0F00
0F00
ENDCHAR
STARTCHAR bullet
ENCODING 8226
SWIDTH 687 0
DWIDTH 16 0
BBX 9 9 4 3
BITMAP
FF80
FF80
FF80
FF80
FF80
FF80
FF80
FF80
FF80
ENDCHAR
STARTCHAR ellipsis
ENCODING 8230
SWIDTH 1000 0
DWIDTH 24 0
BBX 19 3 3 0
BITMAP
E0E0E0
E0E0E0
E0E0E0
ENDCHAR
STARTCHAR perthousand
ENCODING 8240
SWIDTH 1313 0
DWIDTH 32 0
BBX 31 17 0 0
BITMAP
3E01E000
7F03C000
FF878000
E3870000
E38F0000
FF9E0000
7F3C0000
3E780000
0073E0F8
00F7F1FC
01EFFBFE
03CE3B8E
078E3B8E
0F0E3B8E
0F0FFBFE
1E07F1FC
3C03E0F8
ENDCHAR
STARTCHAR guilsinglleft
ENCODING 8249
SWIDTH 361 0
DWIDTH 9 0
BBX 7 11 1 1
BITMAP
04
0E
1C
3C
78
F0
78
3C
1C
0E
04
ENDCHAR
STARTCHAR guilsinglright
ENCODING 8250
SWIDTH 361 0
DWIDTH 9 0
BBX 7 11 1 1
BITMAP
40
E0
70
78
3C
1E
3C
78
70
E0
40
ENDCHAR
STARTCHAR fraction
ENCODING 8260
SWIDTH 93 0
DWIDTH 2 0
BBX 17 17 -7 0
BITMAP
000780
000F00
001E00
003C00
003800
007800
00F000
01E000
01C000
03C000
078000
0F0000
1E0000
1C0000
3C0000
780000
F00000
ENDCHAR
STARTCHAR oneinferior
ENCODING 8321
SWIDTH 536 0
DWIDTH 10 0
BBX 3 10 -18 -5
BITMAP
E0
60
60
60
60
60
60
60
60
60
ENDCHAR
STARTCHAR twoinferior
ENCODING 8322
SWIDTH 536 0
DWIDTH 10 0
BBX 8 10 -15 -5
BITMAP
FC
87
03
03
06
0C
18
70
E0
FF
ENDCHAR
STARTCHAR threeinferior
ENCODING 8323
SWIDTH 536 0
DWIDTH 10 0
BBX 8 10 -16 -5
BITMAP
FE
83
03
07
7C
06
03
03
87
FC
ENDCHAR
STARTCHAR uni20A5
ENCODING 8357
SWIDTH 1006 0
DWIDTH 24 0
BBX 21 22 2 -4
BITMAP
0003C0
000380
000780
000700
000F00
FBEFF0
F7FFF8
FFFFF8
FFFFF8
FCFCF8
F8F8F8
F8F8F8
F8F8F8
F8F8F8
F8F8F8
F9F8F8
F9F8F8
FBF8F8
038000
078000
070000
0F0000
ENDCHAR
STARTCHAR uni20A6
ENCODING 8358
SWIDTH 783 0
DWIDTH 19 0
BBX 15 17 2 0
BITMAP
F00E
F80E
FC0E
FE0E
FFFE
FFFE
FFFE
EFCE
EFEE
E7EE
FFFE
FFFE
FFFE
E0FE
E07E
E03E
E01E
ENDCHAR
STARTCHAR uni20A9
ENCODING 8361
SWIDTH 940 0
DWIDTH 23 0
BBX 22 17 0 0
BITMAP
F83C1C
F87C1C
F87C38
FC7C38
7FFFF8
7FFFF8
7FFFF0
7EFE70
3EFE70
3FEF70
3FFFE0
3FFFE0
1FFFE0
1FCFE0
1F87C0
1F87C0
0F87C0
ENDCHAR
STARTCHAR Euro
ENCODING 8364
SWIDTH 726 0
DWIDTH 17 0
BBX 20 17 -3 0
BITMAP
003FE0
00FFF0
03FFF0
07F030
FFFC00
FFFC00
FFFC00
0F8000
0F8000
0F8000
FFFC00
FFFC00
FFFC00
07F010
03FFF0
00FFF0
003FC0
ENDCHAR
STARTCHAR uni20AD
ENCODING 8365
SWIDTH 753 0
DWIDTH 18 0
BBX 16 17 2 0
BITMAP
F81E
F83C
F878
F8F0
F8E0
F9E0
FBC0
FFFF
FFFF
FFFF
FBF0
FBF0
F9F8
F8FC
F8FE
F87E
F83F
ENDCHAR
STARTCHAR uni2103
ENCODING 8451
SWIDTH 955 0
DWIDTH 23 0
BBX 22 17 1 0
BITMAP
600FF8
903FFC
90FFFC
61FC0C
01F000
03F000
03E000
03E000
03E000
03E000
03E000
03F000
01F800
01FC04
00FFFC
003FFC
000FF0
ENDCHAR
STARTCHAR uni2109
ENCODING 8457
SWIDTH 831 0
DWIDTH 20 0
BBX 19 17 1 0
BITMAP
61FFE0
91FFE0
91FFE0
61F000
01F000
01F000
01F000
01FFC0
01FFC0
01FFC0
01F000
01F000
01F000
01F000
01F000
01F000
01F000
ENDCHAR
STARTCHAR trademark
ENCODING 8482
SWIDTH 901 0
DWIDTH 22 0
BBX 21 9 0 8
BITMAP
FFFE78
FFFE78
FFFEF8
1F1FF8
1F1FF8
1F1FF8
1F1FF8
1F1FF8
1F1CF8
ENDCHAR
STARTCHAR uni212A
ENCODING 8490
SWIDTH 753 0
DWIDTH 18 0
BBX 16 17 2 0
BITMAP
F81E
F83C
F878
F8F0
F8E0
F9E0
FBC0
FFC0
FFC0
FFE0
FBF0
FBF0
F9F8
F8FC
F8FE
F87E
F83F
ENDCHAR
STARTCHAR uni212B
ENCODING 8491
SWIDTH 773 0
DWIDTH 19 0
BBX 18 22 0 0
BITMAP
00C000
012000
012000
00C000
000000
03F000
03F000
03F800
07F800
07F800
07FC00
0E7C00
0E7E00
1E3E00
1C3E00
1FFF00
3FFF00
3FFF80
780F80
700F80
7007C0
E007C0
ENDCHAR
STARTCHAR uni2132
ENCODING 8498
SWIDTH 602 0
DWIDTH 14 0
BBX 12 17 2 0
BITMAP
01F0
01F0
01F0
01F0
01F0
01F0
01F0
7FF0
7FF0
7FF0
01F0
01F0
01F0
01F0
FFF0
FFF0
FFF0
ENDCHAR
STARTCHAR universal
ENCODING 8704
SWIDTH 773 0
DWIDTH 19 0
BBX 18 17 0 0
BITMAP
E007C0
7007C0
700F80
780F80
3FFF80
3FFF00
1FFF00
1C3E00
1E3E00
0E7E00
0E7C00
07FC00
07F800
07F800
03F800
03F000
03F000
ENDCHAR
STARTCHAR existential
ENCODING 8707
SWIDTH 645 0
DWIDTH 15 0
BBX 13 17 2 0
BITMAP
7FF8
7FF8
7FF8
00F8
00F8
00F8
00F8
3FF8
3FF8
3FF8
00F8
00F8
00F8
00F8
FFF8
FFF8
FFF8
ENDCHAR
STARTCHAR uni2204
ENCODING 8708
SWIDTH 645 0
DWIDTH 15 0
BBX 14 22 2 -2
BITMAP
003C
0038
0078
7FF8
7FF8
7FF8
01F8
01F8
01F8
03F8
3FF8
3FF8
3FF8
0EF8
0EF8
1CF8
1CF8
FFF8
FFF8
FFF8
7000
F000
ENDCHAR
STARTCHAR minus
ENCODING 8722
SWIDTH 687 0
DWIDTH 16 0
BBX 14 3 1 6
BITMAP
FFFC
FFFC
FFFC
ENDCHAR
STARTCHAR fraction
ENCODING 8725
SWIDTH 93 0
DWIDTH 2 0
BBX 17 17 -7 0
BITMAP
000780
000F00
001E00
003C00
003800
007800
00F000
01E000
01C000
03C000
078000
0F0000
1E0000
1C0000
3C0000
780000
F00000
ENDCHAR
STARTCHAR periodcentered
ENCODING 8729
SWIDTH 343 0
DWIDTH 16 0
BBX 3 3 7 6
BITMAP
E0
E0
E0
ENDCHAR
STARTCHAR uni2236
ENCODING 8758
SWIDTH 343 0
DWIDTH 8 0
BBX 5 13 2 0
BITMAP
F8
F8
F8
F8
F8
00
00
00
F8
F8
F8
F8
F8
ENDCHAR
STARTCHAR uni2259
ENCODING 8793
SWIDTH 687 0
DWIDTH 16 0
BBX 14 13 1 2
BITMAP
07C0
0FE0
1C70
0000
FFFC
FFFC
FFFC
0000
0000
0000
FFFC
FFFC
FFFC
ENDCHAR
STARTCHAR uni225A
ENCODING 8794
SWIDTH 687 0
DWIDTH 16 0
BBX 14 13 1 2
BITMAP
1C70
0FE0
07C0
0000
FFFC
FFFC
FFFC
0000
0000
0000
FFFC
FFFC
FFFC
ENDCHAR
STARTCHAR notequal
ENCODING 8800
SWIDTH 687 0
DWIDTH 16 0
BBX 14 22 1 -4
BITMAP
003C
0038
0078
0070
00F0
00E0
01E0
FFFC
FFFC
FFFC
0380
0700
0700
FFFC
FFFC
FFFC
1C00
3800
3800
7800
7000
F000
ENDCHAR
STARTCHAR equivalence
ENCODING 8801
SWIDTH 687 0
DWIDTH 16 0
BBX 14 11 0 1
BITMAP
FFFC
FFFC
FFFC
0000
FFFC
FFFC
FFFC
0000
FFFC
FFFC
FFFC
ENDCHAR
STARTCHAR uni2262
ENCODING 8802
SWIDTH 687 0
DWIDTH 16 0
BBX 14 22 0 -4
BITMAP
003C
0038
0078
0070
00F0
00E0
FFFC
FFFC
FFFC
0380
FFFC
FFFC
FFFC
0E00
FFFC
FFFC
FFFC
3800
3800
7800
7000
F000
ENDCHAR
STARTCHAR lessequal
ENCODING 8804
SWIDTH 687 0
DWIDTH 16 0
BBX 14 18 1 -4
BITMAP
0004
001C
007C
01F8
07E0
1F80
FE00
7E00
1F80
07E0
01F8
007C
001C
0004
0000
FFFC
FFFC
FFFC
ENDCHAR
STARTCHAR greaterequal
ENCODING 8805
SWIDTH 687 0
DWIDTH 16 0
BBX 14 18 1 -4
BITMAP
8000
E000
F800
7E00
1F80
07E0
01F8
01FC
07E0
1F80
7E00
F800
E000
8000
0000
FFFC
FFFC
FFFC
ENDCHAR
STARTCHAR uni226E
ENCODING 8814
SWIDTH 687 0
DWIDTH 16 0
BBX 14 22 1 -4
BITMAP
003C
0038
0078
0070
00F4
00FC
01FC
01F8
07E0
1F80
FF80
7F00
1F80
0FE0
0FF8
1C7C
1C1C
3804
3800
7800
7000
F000
ENDCHAR
STARTCHAR uni226F
ENCODING 8815
SWIDTH 687 0
DWIDTH 16 0
BBX 14 22 1 -4
BITMAP
003C
0038
0078
0070
80F0
E0E0
F9E0
7FC0
1FC0
07E0
03F8
07FC
07E0
1F80
7E00
FC00
FC00
B800
3800
7800
7000
F000
ENDCHAR
STARTCHAR uni2270
ENCODING 8816
SWIDTH 687 0
DWIDTH 16 0
BBX 14 22 1 -6
BITMAP
003C
0038
007C
007C
00FC
01F8
07E0
1FC0
FFC0
7F80
1F80
07E0
07F8
0E7C
0E1C
1C04
1C00
FFFC
FFFC
FFFC
7000
F000
ENDCHAR
STARTCHAR uni2271
ENCODING 8817
SWIDTH 687 0
DWIDTH 16 0
BBX 14 22 1 -6
BITMAP
003C
0038
8078
E070
F8F0
7EE0
1FE0
07E0
01F8
03FC
07E0
1F80
7F00
FE00
EE00
9C00
1C00
FFFC
FFFC
FFFC
7000
F000
ENDCHAR
STARTCHAR fi
ENCODING -1
SWIDTH 711 0
DWIDTH 17 0
BBX 15 18 0 0
BITMAP
0FE0
1FE0
3FE0
3E00
3E00
FFFE
FFFE
FFFE
3E3E
3E3E
3E3E
3E3E
3E3E
3E3E
3E3E
3E3E
3E3E
3E3E
ENDCHAR
STARTCHAR fl
ENCODING -1
SWIDTH 711 0
DWIDTH 17 0
BBX 15 18 0 0
BITMAP
0FFE
1FFE
3FFE
3E3E
3E3E
FFBE
FFBE
FFBE
3E3E
3E3E
3E3E
3E3E
3E3E
3E3E
3E3E
3E3E
3E3E
3E3E
ENDCHAR
ENDFONT
